<?xml version="1.0" encoding="utf-8" standalone="no"?>
<!DOCTYPE svg PUBLIC "-//W3C//DTD SVG 1.1//EN"
  "http://www.w3.org/Graphics/SVG/1.1/DTD/svg11.dtd">
<svg xmlns:xlink="http://www.w3.org/1999/xlink" width="460.8pt" height="345.6pt" viewBox="0 0 460.8 345.6" xmlns="http://www.w3.org/2000/svg" version="1.1">
 <metadata>
  <rdf:RDF xmlns:dc="http://purl.org/dc/elements/1.1/" xmlns:cc="http://creativecommons.org/ns#" xmlns:rdf="http://www.w3.org/1999/02/22-rdf-syntax-ns#">
   <cc:Work>
    <dc:type rdf:resource="http://purl.org/dc/dcmitype/StillImage"/>
    <dc:date>2022-06-14T10:32:53.404141</dc:date>
    <dc:format>image/svg+xml</dc:format>
    <dc:creator>
     <cc:Agent>
      <dc:title>Matplotlib v3.5.2, https://matplotlib.org/</dc:title>
     </cc:Agent>
    </dc:creator>
   </cc:Work>
  </rdf:RDF>
 </metadata>
 <defs>
  <style type="text/css">*{stroke-linejoin: round; stroke-linecap: butt}</style>
 </defs>
 <g id="figure_1">
  <g id="patch_1">
   <path d="M 0 345.6 
L 460.8 345.6 
L 460.8 0 
L 0 0 
z
" style="fill: #ffffff"/>
  </g>
  <g id="axes_1">
   <g id="patch_2">
    <path d="M 57.44 96.900701 
L 225.6725 96.900701 
L 225.6725 10.8 
L 57.44 10.8 
z
" style="fill: #ffffff"/>
   </g>
   <g id="matplotlib.axis_1">
    <g id="xtick_1">
     <g id="line2d_1">
      <defs>
       <path id="m0427ac0ac2" d="M 0 0 
L 0 3.5 
" style="stroke: #000000; stroke-width: 0.8"/>
      </defs>
      <g>
       <use xlink:href="#m0427ac0ac2" x="57.44" y="96.900701" style="stroke: #000000; stroke-width: 0.8"/>
      </g>
     </g>
    </g>
    <g id="xtick_2">
     <g id="line2d_2">
      <g>
       <use xlink:href="#m0427ac0ac2" x="91.0865" y="96.900701" style="stroke: #000000; stroke-width: 0.8"/>
      </g>
     </g>
    </g>
    <g id="xtick_3">
     <g id="line2d_3">
      <g>
       <use xlink:href="#m0427ac0ac2" x="124.733" y="96.900701" style="stroke: #000000; stroke-width: 0.8"/>
      </g>
     </g>
    </g>
    <g id="xtick_4">
     <g id="line2d_4">
      <g>
       <use xlink:href="#m0427ac0ac2" x="158.3795" y="96.900701" style="stroke: #000000; stroke-width: 0.8"/>
      </g>
     </g>
    </g>
    <g id="xtick_5">
     <g id="line2d_5">
      <g>
       <use xlink:href="#m0427ac0ac2" x="192.026" y="96.900701" style="stroke: #000000; stroke-width: 0.8"/>
      </g>
     </g>
    </g>
    <g id="xtick_6">
     <g id="line2d_6">
      <g>
       <use xlink:href="#m0427ac0ac2" x="225.6725" y="96.900701" style="stroke: #000000; stroke-width: 0.8"/>
      </g>
     </g>
    </g>
   </g>
   <g id="matplotlib.axis_2">
    <g id="ytick_1">
     <g id="line2d_7">
      <defs>
       <path id="m9ca5f2664d" d="M 0 0 
L -3.5 0 
" style="stroke: #000000; stroke-width: 0.8"/>
      </defs>
      <g>
       <use xlink:href="#m9ca5f2664d" x="57.44" y="77.301918" style="stroke: #000000; stroke-width: 0.8"/>
      </g>
     </g>
     <g id="text_1">
      <!-- −0.2 -->
      <g transform="translate(26.157188 81.101137)scale(0.1 -0.1)">
       <defs>
        <path id="DejaVuSans-2212" d="M 678 2272 
L 4684 2272 
L 4684 1741 
L 678 1741 
L 678 2272 
z
" transform="scale(0.015625)"/>
        <path id="DejaVuSans-30" d="M 2034 4250 
Q 1547 4250 1301 3770 
Q 1056 3291 1056 2328 
Q 1056 1369 1301 889 
Q 1547 409 2034 409 
Q 2525 409 2770 889 
Q 3016 1369 3016 2328 
Q 3016 3291 2770 3770 
Q 2525 4250 2034 4250 
z
M 2034 4750 
Q 2819 4750 3233 4129 
Q 3647 3509 3647 2328 
Q 3647 1150 3233 529 
Q 2819 -91 2034 -91 
Q 1250 -91 836 529 
Q 422 1150 422 2328 
Q 422 3509 836 4129 
Q 1250 4750 2034 4750 
z
" transform="scale(0.015625)"/>
        <path id="DejaVuSans-2e" d="M 684 794 
L 1344 794 
L 1344 0 
L 684 0 
L 684 794 
z
" transform="scale(0.015625)"/>
        <path id="DejaVuSans-32" d="M 1228 531 
L 3431 531 
L 3431 0 
L 469 0 
L 469 531 
Q 828 903 1448 1529 
Q 2069 2156 2228 2338 
Q 2531 2678 2651 2914 
Q 2772 3150 2772 3378 
Q 2772 3750 2511 3984 
Q 2250 4219 1831 4219 
Q 1534 4219 1204 4116 
Q 875 4013 500 3803 
L 500 4441 
Q 881 4594 1212 4672 
Q 1544 4750 1819 4750 
Q 2544 4750 2975 4387 
Q 3406 4025 3406 3419 
Q 3406 3131 3298 2873 
Q 3191 2616 2906 2266 
Q 2828 2175 2409 1742 
Q 1991 1309 1228 531 
z
" transform="scale(0.015625)"/>
       </defs>
       <use xlink:href="#DejaVuSans-2212"/>
       <use xlink:href="#DejaVuSans-30" x="83.789062"/>
       <use xlink:href="#DejaVuSans-2e" x="147.412109"/>
       <use xlink:href="#DejaVuSans-32" x="179.199219"/>
      </g>
     </g>
    </g>
    <g id="ytick_2">
     <g id="line2d_8">
      <g>
       <use xlink:href="#m9ca5f2664d" x="57.44" y="52.221181" style="stroke: #000000; stroke-width: 0.8"/>
      </g>
     </g>
     <g id="text_2">
      <!-- 0.0 -->
      <g transform="translate(34.536875 56.020399)scale(0.1 -0.1)">
       <use xlink:href="#DejaVuSans-30"/>
       <use xlink:href="#DejaVuSans-2e" x="63.623047"/>
       <use xlink:href="#DejaVuSans-30" x="95.410156"/>
      </g>
     </g>
    </g>
    <g id="ytick_3">
     <g id="line2d_9">
      <g>
       <use xlink:href="#m9ca5f2664d" x="57.44" y="27.140443" style="stroke: #000000; stroke-width: 0.8"/>
      </g>
     </g>
     <g id="text_3">
      <!-- 0.2 -->
      <g transform="translate(34.536875 30.939662)scale(0.1 -0.1)">
       <use xlink:href="#DejaVuSans-30"/>
       <use xlink:href="#DejaVuSans-2e" x="63.623047"/>
       <use xlink:href="#DejaVuSans-32" x="95.410156"/>
      </g>
     </g>
    </g>
   </g>
   <g id="line2d_10">
    <path d="M 60.80465 69.218172 
L 61.47758 42.82551 
L 62.15051 59.649861 
L 62.82344 45.166687 
L 63.49637 45.829669 
L 64.1693 47.727586 
L 64.84223 50.115225 
L 65.51516 42.062348 
L 66.18809 83.188643 
L 66.86102 46.305544 
L 67.53395 30.779176 
L 68.20688 90.018845 
L 68.87981 91.370852 
L 69.55274 26.389109 
L 70.22567 57.040382 
L 70.8986 35.517638 
L 71.57153 50.256733 
L 72.24446 49.338916 
L 72.91739 58.847819 
L 73.59032 44.253756 
L 74.26325 73.125704 
L 74.93618 44.358695 
L 75.60911 34.961483 
L 76.28204 45.927762 
L 76.95497 62.104235 
L 77.6279 64.859792 
L 78.30083 36.060153 
L 78.97376 44.267955 
L 79.64669 29.366744 
L 80.31962 47.498395 
L 80.99255 61.152239 
L 81.66548 72.315632 
L 82.33841 59.873312 
L 83.01134 56.61612 
L 83.68427 39.193057 
L 84.3572 44.618026 
L 85.03013 56.247239 
L 85.70306 26.881833 
L 86.37599 28.562258 
L 87.04892 52.097183 
L 87.72185 58.485449 
L 88.39478 29.841192 
L 89.06771 35.472294 
L 89.74064 39.110162 
L 90.41357 46.219966 
L 91.0865 73.693972 
L 91.75943 63.403049 
L 92.43236 70.743826 
L 93.77822 62.553964 
L 94.45115 45.036068 
L 95.12408 46.143663 
L 95.79701 53.704433 
L 96.46994 44.615796 
L 97.14287 56.885314 
L 97.8158 65.919912 
L 98.48873 69.483884 
L 99.16166 65.093111 
L 99.83459 36.103804 
L 100.50752 60.51838 
L 101.18045 68.035359 
L 101.85338 50.953902 
L 102.52631 52.498291 
L 103.19924 40.126164 
L 103.87217 50.603007 
L 105.21803 47.444851 
L 105.89096 59.893516 
L 106.56389 43.272498 
L 107.23682 59.685636 
L 107.90975 63.42456 
L 108.58268 56.228209 
L 109.25561 41.326014 
L 109.92854 78.089248 
L 110.60147 92.987033 
L 111.2744 52.483347 
L 111.94733 40.542569 
L 112.62026 52.941674 
L 113.29319 42.97863 
L 113.96612 47.915754 
L 114.63905 27.758226 
L 115.31198 46.348794 
L 115.98491 69.157772 
L 116.65784 33.584554 
L 118.0037 69.73978 
L 118.67663 30.178265 
L 119.34956 30.358699 
L 120.02249 14.88452 
L 120.69542 45.362737 
L 121.36835 55.466515 
L 122.04128 52.648343 
L 122.71421 40.634484 
L 123.38714 59.171405 
L 124.06007 65.034889 
L 124.733 58.721799 
L 125.40593 67.061013 
L 126.07886 51.051371 
L 126.75179 53.66874 
L 127.42472 66.963866 
L 128.09765 53.922912 
L 128.77058 32.431806 
L 129.44351 45.714831 
L 130.11644 64.459023 
L 130.78937 76.492067 
L 131.4623 55.233566 
L 132.13523 57.322225 
L 132.80816 48.725189 
L 133.48109 16.276485 
L 134.15402 55.367592 
L 134.82695 14.713668 
L 135.49988 60.504535 
L 136.17281 69.029439 
L 136.84574 69.601411 
L 137.51867 46.818738 
L 138.1916 35.211171 
L 138.86453 49.683654 
L 139.53746 52.228691 
L 140.21039 51.044016 
L 140.88332 36.193052 
L 141.55625 78.722589 
L 142.22918 50.947228 
L 142.90211 43.786978 
L 143.57504 55.006134 
L 144.24797 64.234679 
L 144.9209 53.586748 
L 145.59383 38.712534 
L 146.26676 48.676652 
L 146.93969 66.586897 
L 147.61262 46.983315 
L 148.28555 44.517289 
L 148.95848 50.742734 
L 149.63141 69.88274 
L 150.30434 62.687735 
L 150.97727 62.94222 
L 151.6502 61.454866 
L 152.32313 58.474121 
L 152.99606 63.936624 
L 153.66899 49.523073 
L 154.34192 66.158623 
L 155.01485 74.345284 
L 155.68778 68.617952 
L 156.36071 38.294807 
L 157.03364 61.875092 
L 158.3795 49.1597 
L 159.05243 48.387465 
L 159.72536 26.00056 
L 160.39829 66.211781 
L 161.07122 52.514417 
L 161.74415 31.858979 
L 162.41708 46.972919 
L 163.09001 48.670054 
L 163.76294 60.301448 
L 164.43587 52.30572 
L 165.1088 60.206282 
L 165.78173 47.734541 
L 166.45466 75.752262 
L 167.80052 48.313654 
L 168.47345 70.859771 
L 169.14638 54.899436 
L 169.81931 21.796391 
L 170.49224 86.070091 
L 171.16517 34.083467 
L 171.8381 49.415409 
L 172.51103 36.674501 
L 173.18396 32.626228 
L 173.85689 72.297171 
L 174.52982 35.45439 
L 175.20275 25.68707 
L 175.87568 48.460377 
L 176.54861 66.015229 
L 177.89447 31.315175 
L 178.5674 68.986649 
L 179.24033 67.158494 
L 179.91326 30.550634 
L 181.25912 55.205924 
L 181.93205 44.925552 
L 182.60498 62.217826 
L 183.27791 52.679844 
L 183.95084 53.325507 
L 184.62377 57.944466 
L 185.2967 55.8549 
L 185.96963 57.49028 
L 186.64256 37.7607 
L 187.31549 45.355578 
L 187.98842 40.280094 
L 188.66135 41.413839 
L 189.33428 69.623723 
L 190.00721 39.206524 
L 190.68014 40.088589 
L 191.35307 56.868205 
L 192.026 51.78629 
L 193.37186 70.187369 
L 194.04479 66.344752 
L 194.71772 50.577342 
L 195.39065 43.006805 
L 196.06358 52.824538 
L 196.73651 56.182711 
L 197.40944 43.641577 
L 198.08237 57.928589 
L 198.7553 35.201063 
L 199.42823 45.512129 
L 200.10116 18.311892 
L 200.77409 43.775114 
L 201.44702 41.912123 
L 202.79288 50.108587 
L 203.46581 63.894337 
L 204.13874 83.641643 
L 204.81167 48.488808 
L 205.4846 48.113761 
L 206.15753 53.700368 
L 206.83046 51.088995 
L 207.50339 57.171907 
L 208.17632 55.802149 
L 208.84925 58.406853 
L 209.52218 58.527255 
L 210.19511 48.2141 
L 210.86804 43.117581 
L 211.54097 85.468319 
L 212.2139 64.721568 
L 212.88683 50.433625 
L 213.55976 60.738835 
L 214.23269 58.126531 
L 214.90562 50.546031 
L 215.57855 37.500538 
L 216.25148 44.825269 
L 216.92441 62.583646 
L 217.59734 63.946857 
L 218.27027 57.609467 
L 218.9432 45.807245 
L 219.61613 42.451478 
L 220.28906 79.836178 
L 220.96199 56.607961 
L 222.30785 37.478536 
L 222.98078 41.080562 
L 223.65371 63.065845 
L 224.32664 40.585365 
L 224.99957 44.437494 
L 224.99957 44.437494 
" clip-path="url(#p485f041703)" style="fill: none; stroke: #1f77b4; stroke-opacity: 0.7; stroke-width: 1.5; stroke-linecap: square"/>
   </g>
   <g id="patch_3">
    <path d="M 57.44 96.900701 
L 57.44 10.8 
" style="fill: none; stroke: #000000; stroke-width: 0.8; stroke-linejoin: miter; stroke-linecap: square"/>
   </g>
   <g id="patch_4">
    <path d="M 57.44 96.900701 
L 225.6725 96.900701 
" style="fill: none; stroke: #000000; stroke-width: 0.8; stroke-linejoin: miter; stroke-linecap: square"/>
   </g>
  </g>
  <g id="axes_2">
   <g id="patch_5">
    <path d="M 273.8925 96.900701 
L 442.125 96.900701 
L 442.125 10.8 
L 273.8925 10.8 
z
" style="fill: #ffffff"/>
   </g>
   <g id="matplotlib.axis_3">
    <g id="xtick_7">
     <g id="line2d_11">
      <g>
       <use xlink:href="#m0427ac0ac2" x="273.8925" y="96.900701" style="stroke: #000000; stroke-width: 0.8"/>
      </g>
     </g>
    </g>
    <g id="xtick_8">
     <g id="line2d_12">
      <g>
       <use xlink:href="#m0427ac0ac2" x="307.539" y="96.900701" style="stroke: #000000; stroke-width: 0.8"/>
      </g>
     </g>
    </g>
    <g id="xtick_9">
     <g id="line2d_13">
      <g>
       <use xlink:href="#m0427ac0ac2" x="341.1855" y="96.900701" style="stroke: #000000; stroke-width: 0.8"/>
      </g>
     </g>
    </g>
    <g id="xtick_10">
     <g id="line2d_14">
      <g>
       <use xlink:href="#m0427ac0ac2" x="374.832" y="96.900701" style="stroke: #000000; stroke-width: 0.8"/>
      </g>
     </g>
    </g>
    <g id="xtick_11">
     <g id="line2d_15">
      <g>
       <use xlink:href="#m0427ac0ac2" x="408.4785" y="96.900701" style="stroke: #000000; stroke-width: 0.8"/>
      </g>
     </g>
    </g>
    <g id="xtick_12">
     <g id="line2d_16">
      <g>
       <use xlink:href="#m0427ac0ac2" x="442.125" y="96.900701" style="stroke: #000000; stroke-width: 0.8"/>
      </g>
     </g>
    </g>
   </g>
   <g id="matplotlib.axis_4">
    <g id="ytick_4">
     <g id="line2d_17">
      <g>
       <use xlink:href="#m9ca5f2664d" x="273.8925" y="77.910924" style="stroke: #000000; stroke-width: 0.8"/>
      </g>
     </g>
     <g id="text_4">
      <!-- −0.05 -->
      <g transform="translate(236.247187 81.710143)scale(0.1 -0.1)">
       <defs>
        <path id="DejaVuSans-35" d="M 691 4666 
L 3169 4666 
L 3169 4134 
L 1269 4134 
L 1269 2991 
Q 1406 3038 1543 3061 
Q 1681 3084 1819 3084 
Q 2600 3084 3056 2656 
Q 3513 2228 3513 1497 
Q 3513 744 3044 326 
Q 2575 -91 1722 -91 
Q 1428 -91 1123 -41 
Q 819 9 494 109 
L 494 744 
Q 775 591 1075 516 
Q 1375 441 1709 441 
Q 2250 441 2565 725 
Q 2881 1009 2881 1497 
Q 2881 1984 2565 2268 
Q 2250 2553 1709 2553 
Q 1456 2553 1204 2497 
Q 953 2441 691 2322 
L 691 4666 
z
" transform="scale(0.015625)"/>
       </defs>
       <use xlink:href="#DejaVuSans-2212"/>
       <use xlink:href="#DejaVuSans-30" x="83.789062"/>
       <use xlink:href="#DejaVuSans-2e" x="147.412109"/>
       <use xlink:href="#DejaVuSans-30" x="179.199219"/>
       <use xlink:href="#DejaVuSans-35" x="242.822266"/>
      </g>
     </g>
    </g>
    <g id="ytick_5">
     <g id="line2d_18">
      <g>
       <use xlink:href="#m9ca5f2664d" x="273.8925" y="53.815002" style="stroke: #000000; stroke-width: 0.8"/>
      </g>
     </g>
     <g id="text_5">
      <!-- 0.00 -->
      <g transform="translate(244.626875 57.614221)scale(0.1 -0.1)">
       <use xlink:href="#DejaVuSans-30"/>
       <use xlink:href="#DejaVuSans-2e" x="63.623047"/>
       <use xlink:href="#DejaVuSans-30" x="95.410156"/>
       <use xlink:href="#DejaVuSans-30" x="159.033203"/>
      </g>
     </g>
    </g>
    <g id="ytick_6">
     <g id="line2d_19">
      <g>
       <use xlink:href="#m9ca5f2664d" x="273.8925" y="29.71908" style="stroke: #000000; stroke-width: 0.8"/>
      </g>
     </g>
     <g id="text_6">
      <!-- 0.05 -->
      <g transform="translate(244.626875 33.518298)scale(0.1 -0.1)">
       <use xlink:href="#DejaVuSans-30"/>
       <use xlink:href="#DejaVuSans-2e" x="63.623047"/>
       <use xlink:href="#DejaVuSans-30" x="95.410156"/>
       <use xlink:href="#DejaVuSans-35" x="159.033203"/>
      </g>
     </g>
    </g>
   </g>
   <g id="line2d_20">
    <path d="M 314.2683 53.074225 
L 314.94123 67.444147 
L 315.61416 65.590031 
L 316.28709 58.947878 
L 316.96002 56.672091 
L 317.63295 41.943255 
L 318.30588 57.735802 
L 318.97881 64.638617 
L 319.65174 54.702346 
L 320.32467 59.003778 
L 320.9976 65.418411 
L 321.67053 55.652622 
L 322.34346 49.254066 
L 323.01639 47.723184 
L 323.68932 29.2523 
L 324.36225 55.779418 
L 325.03518 33.135665 
L 325.70811 29.552555 
L 326.38104 65.304409 
L 327.05397 54.478364 
L 327.7269 41.680276 
L 328.39983 39.688921 
L 329.07276 48.396955 
L 329.74569 33.696156 
L 330.41862 77.247267 
L 331.76448 50.968849 
L 332.43741 44.14638 
L 333.11034 72.870057 
L 333.78327 52.685429 
L 334.4562 36.251367 
L 335.12913 49.675221 
L 335.80206 41.441095 
L 336.47499 74.795413 
L 337.14792 57.627088 
L 337.82085 43.458553 
L 338.49378 71.703704 
L 339.16671 54.877925 
L 339.83964 70.081647 
L 340.51257 50.077255 
L 341.1855 57.19194 
L 341.85843 46.2096 
L 342.53136 39.183503 
L 343.20429 59.681999 
L 343.87722 92.987033 
L 344.55015 38.006429 
L 345.22308 47.943699 
L 345.89601 68.416779 
L 346.56894 32.618703 
L 347.24187 64.426906 
L 347.9148 63.187553 
L 348.58773 54.320676 
L 349.26066 49.57585 
L 349.93359 30.814873 
L 350.60652 35.98313 
L 351.27945 59.913489 
L 351.95238 31.323678 
L 352.62531 19.803844 
L 353.29824 54.321484 
L 353.97117 47.038235 
L 354.6441 54.281006 
L 355.31703 53.647179 
L 355.98996 51.083724 
L 356.66289 78.825799 
L 358.00875 25.454271 
L 358.68168 50.025429 
L 359.35461 50.588945 
L 360.02754 79.552658 
L 360.70047 59.842206 
L 361.3734 85.95189 
L 362.04633 62.208737 
L 362.71926 60.073426 
L 363.39219 66.904125 
L 364.06512 54.907027 
L 364.73805 48.214533 
L 365.41098 47.806023 
L 366.08391 82.789149 
L 366.75684 73.719272 
L 367.42977 50.54931 
L 368.1027 88.073082 
L 368.77563 78.582311 
L 369.44856 82.169282 
L 370.12149 78.933672 
L 370.79442 55.130452 
L 371.46735 80.553641 
L 372.14028 67.331255 
L 372.81321 43.481313 
L 373.48614 47.293317 
L 374.15907 73.160526 
L 374.832 38.835736 
L 375.50493 63.665314 
L 376.17786 56.684976 
L 376.85079 57.61879 
L 377.52372 42.511265 
L 378.19665 77.771481 
L 378.86958 40.040648 
L 379.54251 70.642778 
L 380.21544 66.674158 
L 380.88837 54.350281 
L 381.5613 39.693847 
L 382.23423 60.969777 
L 382.90716 31.470686 
L 383.58009 45.362616 
L 384.25302 31.400062 
L 384.92595 20.699597 
L 385.59888 53.901204 
L 386.27181 34.146819 
L 386.94474 22.299995 
L 387.61767 40.211975 
L 388.2906 40.599801 
L 388.96353 64.674729 
L 389.63646 36.327934 
L 390.30939 20.787365 
L 390.98232 57.283986 
L 391.65525 41.226485 
L 392.32818 14.713668 
L 393.00111 53.428459 
L 393.67404 44.013461 
L 394.34697 27.319106 
L 395.0199 56.772042 
L 395.69283 39.675726 
L 396.36576 63.950205 
L 397.03869 55.966865 
L 397.71162 19.995651 
L 398.38455 54.085145 
L 399.05748 75.120121 
L 401.07627 44.152767 
L 401.7492 76.33226 
L 402.42213 43.522713 
L 403.09506 90.886485 
L 403.76799 27.498579 
L 404.44092 24.085372 
L 405.78678 48.091323 
L 406.45971 44.094574 
L 407.13264 73.658262 
L 407.80557 69.941769 
L 408.4785 37.892609 
L 409.15143 78.956932 
L 409.82436 56.276565 
L 410.49729 53.995432 
L 411.17022 53.343097 
L 411.84315 40.992291 
L 412.51608 56.604509 
L 413.18901 81.783527 
L 413.86194 76.768097 
L 414.53487 50.972931 
L 415.2078 47.48757 
L 415.88073 69.407995 
L 416.55366 49.45501 
L 417.22659 37.880921 
L 417.89952 66.832148 
L 418.57245 82.209313 
L 419.24538 67.721754 
L 419.91831 43.786793 
L 420.59124 81.58997 
L 421.26417 64.966796 
L 421.9371 57.363253 
L 422.61003 64.501119 
L 423.28296 46.829681 
L 423.95589 58.59422 
L 424.62882 27.493689 
L 425.30175 52.802725 
L 425.97468 49.140861 
L 426.64761 64.550307 
L 427.32054 59.752583 
L 427.99347 61.456554 
L 428.6664 83.151512 
L 429.33933 63.684956 
L 430.01226 57.761886 
L 430.68519 35.90366 
L 431.35812 61.010767 
L 432.03105 65.77371 
L 432.70398 40.891022 
L 433.37691 54.686037 
L 434.04984 47.756218 
L 434.72277 65.112172 
L 435.3957 55.395334 
L 436.06863 83.655945 
L 436.74156 42.94402 
L 437.41449 65.527694 
L 438.08742 31.736649 
L 438.76035 22.249529 
L 439.43328 41.366964 
L 440.10621 33.330404 
L 440.77914 56.657208 
L 441.45207 49.394123 
L 441.45207 49.394123 
" clip-path="url(#p46fa566677)" style="fill: none; stroke: #000000; stroke-width: 1.5; stroke-linecap: square"/>
   </g>
   <g id="patch_6">
    <path d="M 273.8925 96.900701 
L 273.8925 10.8 
" style="fill: none; stroke: #000000; stroke-width: 0.8; stroke-linejoin: miter; stroke-linecap: square"/>
   </g>
   <g id="patch_7">
    <path d="M 273.8925 96.900701 
L 442.125 96.900701 
" style="fill: none; stroke: #000000; stroke-width: 0.8; stroke-linejoin: miter; stroke-linecap: square"/>
   </g>
  </g>
  <g id="axes_3">
   <g id="patch_8">
    <path d="M 57.44 200.270351 
L 225.6725 200.270351 
L 225.6725 114.169649 
L 57.44 114.169649 
z
" style="fill: #ffffff"/>
   </g>
   <g id="matplotlib.axis_5">
    <g id="xtick_13">
     <g id="line2d_21">
      <g>
       <use xlink:href="#m0427ac0ac2" x="57.44" y="200.270351" style="stroke: #000000; stroke-width: 0.8"/>
      </g>
     </g>
    </g>
    <g id="xtick_14">
     <g id="line2d_22">
      <g>
       <use xlink:href="#m0427ac0ac2" x="91.0865" y="200.270351" style="stroke: #000000; stroke-width: 0.8"/>
      </g>
     </g>
    </g>
    <g id="xtick_15">
     <g id="line2d_23">
      <g>
       <use xlink:href="#m0427ac0ac2" x="124.733" y="200.270351" style="stroke: #000000; stroke-width: 0.8"/>
      </g>
     </g>
    </g>
    <g id="xtick_16">
     <g id="line2d_24">
      <g>
       <use xlink:href="#m0427ac0ac2" x="158.3795" y="200.270351" style="stroke: #000000; stroke-width: 0.8"/>
      </g>
     </g>
    </g>
    <g id="xtick_17">
     <g id="line2d_25">
      <g>
       <use xlink:href="#m0427ac0ac2" x="192.026" y="200.270351" style="stroke: #000000; stroke-width: 0.8"/>
      </g>
     </g>
    </g>
    <g id="xtick_18">
     <g id="line2d_26">
      <g>
       <use xlink:href="#m0427ac0ac2" x="225.6725" y="200.270351" style="stroke: #000000; stroke-width: 0.8"/>
      </g>
     </g>
    </g>
   </g>
   <g id="matplotlib.axis_6">
    <g id="ytick_7">
     <g id="line2d_27">
      <g>
       <use xlink:href="#m9ca5f2664d" x="57.44" y="191.946109" style="stroke: #000000; stroke-width: 0.8"/>
      </g>
     </g>
     <g id="text_7">
      <!-- −0.2 -->
      <g transform="translate(26.157188 195.745328)scale(0.1 -0.1)">
       <use xlink:href="#DejaVuSans-2212"/>
       <use xlink:href="#DejaVuSans-30" x="83.789062"/>
       <use xlink:href="#DejaVuSans-2e" x="147.412109"/>
       <use xlink:href="#DejaVuSans-32" x="179.199219"/>
      </g>
     </g>
    </g>
    <g id="ytick_8">
     <g id="line2d_28">
      <g>
       <use xlink:href="#m9ca5f2664d" x="57.44" y="153.602993" style="stroke: #000000; stroke-width: 0.8"/>
      </g>
     </g>
     <g id="text_8">
      <!-- 0.0 -->
      <g transform="translate(34.536875 157.402212)scale(0.1 -0.1)">
       <use xlink:href="#DejaVuSans-30"/>
       <use xlink:href="#DejaVuSans-2e" x="63.623047"/>
       <use xlink:href="#DejaVuSans-30" x="95.410156"/>
      </g>
     </g>
    </g>
    <g id="ytick_9">
     <g id="line2d_29">
      <g>
       <use xlink:href="#m9ca5f2664d" x="57.44" y="115.259878" style="stroke: #000000; stroke-width: 0.8"/>
      </g>
     </g>
     <g id="text_9">
      <!-- 0.2 -->
      <g transform="translate(34.536875 119.059097)scale(0.1 -0.1)">
       <use xlink:href="#DejaVuSans-30"/>
       <use xlink:href="#DejaVuSans-2e" x="63.623047"/>
       <use xlink:href="#DejaVuSans-32" x="95.410156"/>
      </g>
     </g>
    </g>
    <g id="text_10">
     <!-- $\Delta F/F$ (%) -->
     <g transform="translate(20.0775 178.32)rotate(-90)scale(0.1 -0.1)">
      <defs>
       <path id="DejaVuSans-394" d="M 2188 4044 
L 906 525 
L 3472 525 
L 2188 4044 
z
M 50 0 
L 1831 4666 
L 2547 4666 
L 4325 0 
L 50 0 
z
" transform="scale(0.015625)"/>
       <path id="DejaVuSans-Oblique-46" d="M 1081 4666 
L 3756 4666 
L 3653 4134 
L 1606 4134 
L 1338 2759 
L 3188 2759 
L 3084 2228 
L 1234 2228 
L 800 0 
L 172 0 
L 1081 4666 
z
" transform="scale(0.015625)"/>
       <path id="DejaVuSans-2f" d="M 1625 4666 
L 2156 4666 
L 531 -594 
L 0 -594 
L 1625 4666 
z
" transform="scale(0.015625)"/>
       <path id="DejaVuSans-20" transform="scale(0.015625)"/>
       <path id="DejaVuSans-28" d="M 1984 4856 
Q 1566 4138 1362 3434 
Q 1159 2731 1159 2009 
Q 1159 1288 1364 580 
Q 1569 -128 1984 -844 
L 1484 -844 
Q 1016 -109 783 600 
Q 550 1309 550 2009 
Q 550 2706 781 3412 
Q 1013 4119 1484 4856 
L 1984 4856 
z
" transform="scale(0.015625)"/>
       <path id="DejaVuSans-25" d="M 4653 2053 
Q 4381 2053 4226 1822 
Q 4072 1591 4072 1178 
Q 4072 772 4226 539 
Q 4381 306 4653 306 
Q 4919 306 5073 539 
Q 5228 772 5228 1178 
Q 5228 1588 5073 1820 
Q 4919 2053 4653 2053 
z
M 4653 2450 
Q 5147 2450 5437 2106 
Q 5728 1763 5728 1178 
Q 5728 594 5436 251 
Q 5144 -91 4653 -91 
Q 4153 -91 3862 251 
Q 3572 594 3572 1178 
Q 3572 1766 3864 2108 
Q 4156 2450 4653 2450 
z
M 1428 4353 
Q 1159 4353 1004 4120 
Q 850 3888 850 3481 
Q 850 3069 1003 2837 
Q 1156 2606 1428 2606 
Q 1700 2606 1854 2837 
Q 2009 3069 2009 3481 
Q 2009 3884 1853 4118 
Q 1697 4353 1428 4353 
z
M 4250 4750 
L 4750 4750 
L 1831 -91 
L 1331 -91 
L 4250 4750 
z
M 1428 4750 
Q 1922 4750 2215 4408 
Q 2509 4066 2509 3481 
Q 2509 2891 2217 2550 
Q 1925 2209 1428 2209 
Q 931 2209 642 2551 
Q 353 2894 353 3481 
Q 353 4063 643 4406 
Q 934 4750 1428 4750 
z
" transform="scale(0.015625)"/>
       <path id="DejaVuSans-29" d="M 513 4856 
L 1013 4856 
Q 1481 4119 1714 3412 
Q 1947 2706 1947 2009 
Q 1947 1309 1714 600 
Q 1481 -109 1013 -844 
L 513 -844 
Q 928 -128 1133 580 
Q 1338 1288 1338 2009 
Q 1338 2731 1133 3434 
Q 928 4138 513 4856 
z
" transform="scale(0.015625)"/>
      </defs>
      <use xlink:href="#DejaVuSans-394" transform="translate(0 0.125)"/>
      <use xlink:href="#DejaVuSans-Oblique-46" transform="translate(68.408203 0.125)"/>
      <use xlink:href="#DejaVuSans-2f" transform="translate(125.927734 0.125)"/>
      <use xlink:href="#DejaVuSans-Oblique-46" transform="translate(159.619141 0.125)"/>
      <use xlink:href="#DejaVuSans-20" transform="translate(217.138672 0.125)"/>
      <use xlink:href="#DejaVuSans-28" transform="translate(248.925781 0.125)"/>
      <use xlink:href="#DejaVuSans-25" transform="translate(287.939453 0.125)"/>
      <use xlink:href="#DejaVuSans-29" transform="translate(382.958984 0.125)"/>
     </g>
    </g>
   </g>
   <g id="line2d_30">
    <path d="M 60.80465 141.107525 
L 61.47758 187.864705 
L 62.15051 173.025589 
L 62.82344 152.128454 
L 63.49637 146.920321 
L 64.1693 161.750736 
L 64.84223 159.482953 
L 65.51516 181.436157 
L 66.18809 159.693449 
L 66.86102 147.952987 
L 67.53395 161.939591 
L 68.20688 147.286321 
L 68.87981 166.055507 
L 69.55274 166.556743 
L 70.22567 130.556312 
L 70.8986 153.238664 
L 71.57153 145.776471 
L 72.24446 154.340137 
L 72.91739 158.52126 
L 73.59032 154.137929 
L 74.26325 164.442719 
L 74.93618 138.748924 
L 75.60911 163.70954 
L 76.28204 140.125667 
L 77.6279 170.14669 
L 78.97376 128.610626 
L 79.64669 118.083318 
L 80.31962 151.018465 
L 80.99255 137.919607 
L 81.66548 146.536711 
L 82.33841 162.985428 
L 83.01134 159.496883 
L 84.3572 143.06103 
L 85.03013 177.789851 
L 85.70306 146.579172 
L 86.37599 145.784426 
L 87.04892 160.517563 
L 87.72185 138.920896 
L 88.39478 143.391321 
L 89.06771 140.974178 
L 89.74064 144.383183 
L 90.41357 142.075957 
L 91.0865 142.249564 
L 91.75943 163.305357 
L 92.43236 165.764622 
L 93.10529 147.45285 
L 93.77822 153.871313 
L 94.45115 127.3074 
L 95.12408 153.410407 
L 95.79701 148.371509 
L 96.46994 154.680875 
L 97.14287 155.944904 
L 97.8158 163.371762 
L 98.48873 167.92832 
L 99.16166 136.994485 
L 99.83459 164.416438 
L 100.50752 137.110756 
L 101.18045 143.57055 
L 101.85338 158.536198 
L 102.52631 145.205522 
L 103.87217 163.635125 
L 104.5451 129.820651 
L 105.21803 146.33377 
L 105.89096 143.584751 
L 106.56389 161.219942 
L 107.23682 133.831697 
L 107.90975 161.622969 
L 108.58268 154.595448 
L 109.25561 145.369578 
L 109.92854 155.357816 
L 110.60147 184.894904 
L 111.2744 163.220126 
L 111.94733 153.064946 
L 112.62026 164.633829 
L 113.29319 164.135698 
L 113.96612 167.128088 
L 114.63905 165.581571 
L 115.31198 162.340141 
L 115.98491 150.37807 
L 116.65784 151.776947 
L 117.33077 138.266049 
L 118.0037 158.023179 
L 119.34956 139.761239 
L 120.02249 156.276919 
L 120.69542 135.467724 
L 121.36835 136.050315 
L 122.04128 140.292824 
L 122.71421 164.589204 
L 123.38714 142.026257 
L 124.06007 145.372454 
L 124.733 158.401477 
L 125.40593 156.522838 
L 126.07886 144.253365 
L 126.75179 146.68575 
L 127.42472 127.017814 
L 128.09765 168.724165 
L 128.77058 171.43492 
L 129.44351 147.027379 
L 130.11644 150.872535 
L 130.78937 165.071235 
L 131.4623 166.705826 
L 132.13523 144.903062 
L 132.80816 140.647558 
L 133.48109 191.745548 
L 134.15402 170.559947 
L 134.82695 160.398082 
L 135.49988 148.546588 
L 136.17281 165.618508 
L 136.84574 142.191396 
L 137.51867 171.442298 
L 138.1916 147.982829 
L 138.86453 169.506688 
L 139.53746 142.502614 
L 140.21039 150.779783 
L 140.88332 165.900186 
L 141.55625 165.949871 
L 142.22918 140.390156 
L 142.90211 176.208604 
L 143.57504 147.106399 
L 144.24797 156.130311 
L 144.9209 147.40785 
L 145.59383 169.284104 
L 146.26676 163.879182 
L 146.93969 165.82093 
L 147.61262 166.745353 
L 148.28555 168.660027 
L 148.95848 151.658402 
L 149.63141 158.565211 
L 150.30434 163.117131 
L 150.97727 151.597099 
L 151.6502 152.778039 
L 152.32313 134.207142 
L 152.99606 174.005948 
L 153.66899 143.700955 
L 154.34192 196.356682 
L 155.01485 151.809047 
L 155.68778 167.639221 
L 156.36071 159.871095 
L 157.03364 163.467083 
L 157.70657 175.081694 
L 158.3795 163.098534 
L 159.05243 153.446711 
L 159.72536 165.53128 
L 160.39829 166.397581 
L 161.07122 156.380356 
L 161.74415 144.345804 
L 162.41708 174.122361 
L 163.76294 133.276868 
L 164.43587 166.705467 
L 165.1088 126.185743 
L 165.78173 165.11678 
L 166.45466 156.865196 
L 167.12759 141.07734 
L 167.80052 171.451371 
L 168.47345 143.435319 
L 169.14638 142.34391 
L 169.81931 141.913823 
L 170.49224 139.970549 
L 171.16517 147.053119 
L 171.8381 148.440769 
L 173.18396 123.258586 
L 173.85689 146.037719 
L 174.52982 149.23811 
L 175.20275 158.956152 
L 175.87568 138.724232 
L 176.54861 151.775663 
L 177.22154 154.115079 
L 177.89447 132.359982 
L 178.5674 154.260338 
L 179.24033 151.397399 
L 179.91326 159.904563 
L 180.58619 176.269053 
L 181.25912 159.339322 
L 182.60498 120.614888 
L 183.27791 155.529622 
L 183.95084 152.466903 
L 184.62377 150.403946 
L 185.2967 163.05817 
L 185.96963 165.002668 
L 186.64256 175.475211 
L 187.31549 135.424925 
L 187.98842 165.630623 
L 188.66135 139.960773 
L 189.33428 151.42514 
L 190.00721 134.281512 
L 190.68014 156.279854 
L 191.35307 172.253815 
L 192.026 147.408618 
L 192.69893 155.014583 
L 193.37186 140.370203 
L 194.04479 147.973047 
L 194.71772 163.269633 
L 195.39065 133.900423 
L 196.06358 172.614626 
L 196.73651 154.786261 
L 197.40944 156.027615 
L 198.08237 143.049463 
L 198.7553 141.613628 
L 199.42823 149.211035 
L 200.10116 151.957335 
L 200.77409 156.878609 
L 201.44702 151.094208 
L 202.11995 121.388918 
L 202.79288 160.270653 
L 203.46581 151.310319 
L 204.13874 150.213476 
L 204.81167 122.519914 
L 205.4846 162.075813 
L 206.15753 145.09161 
L 206.83046 146.343175 
L 207.50339 148.09864 
L 208.17632 165.748259 
L 208.84925 175.203391 
L 209.52218 150.869848 
L 210.19511 174.71669 
L 210.86804 153.065368 
L 211.54097 154.66955 
L 212.2139 157.615283 
L 212.88683 155.044121 
L 213.55976 151.305611 
L 214.23269 139.541308 
L 214.90562 168.0963 
L 215.57855 143.961174 
L 216.92441 142.376195 
L 217.59734 136.153944 
L 218.27027 182.46356 
L 218.9432 131.753828 
L 219.61613 158.836114 
L 220.28906 163.005965 
L 220.96199 140.081473 
L 221.63492 187.589056 
L 222.30785 169.69474 
L 222.98078 146.453457 
L 223.65371 144.296162 
L 224.32664 167.070553 
L 224.99957 178.97815 
L 224.99957 178.97815 
" clip-path="url(#p6ef889c9d1)" style="fill: none; stroke: #1f77b4; stroke-opacity: 0.7; stroke-width: 1.5; stroke-linecap: square"/>
   </g>
   <g id="patch_9">
    <path d="M 57.44 200.270351 
L 57.44 114.169649 
" style="fill: none; stroke: #000000; stroke-width: 0.8; stroke-linejoin: miter; stroke-linecap: square"/>
   </g>
   <g id="patch_10">
    <path d="M 57.44 200.270351 
L 225.6725 200.270351 
" style="fill: none; stroke: #000000; stroke-width: 0.8; stroke-linejoin: miter; stroke-linecap: square"/>
   </g>
  </g>
  <g id="axes_4">
   <g id="patch_11">
    <path d="M 273.8925 200.270351 
L 442.125 200.270351 
L 442.125 114.169649 
L 273.8925 114.169649 
z
" style="fill: #ffffff"/>
   </g>
   <g id="matplotlib.axis_7">
    <g id="xtick_19">
     <g id="line2d_31">
      <g>
       <use xlink:href="#m0427ac0ac2" x="273.8925" y="200.270351" style="stroke: #000000; stroke-width: 0.8"/>
      </g>
     </g>
    </g>
    <g id="xtick_20">
     <g id="line2d_32">
      <g>
       <use xlink:href="#m0427ac0ac2" x="307.539" y="200.270351" style="stroke: #000000; stroke-width: 0.8"/>
      </g>
     </g>
    </g>
    <g id="xtick_21">
     <g id="line2d_33">
      <g>
       <use xlink:href="#m0427ac0ac2" x="341.1855" y="200.270351" style="stroke: #000000; stroke-width: 0.8"/>
      </g>
     </g>
    </g>
    <g id="xtick_22">
     <g id="line2d_34">
      <g>
       <use xlink:href="#m0427ac0ac2" x="374.832" y="200.270351" style="stroke: #000000; stroke-width: 0.8"/>
      </g>
     </g>
    </g>
    <g id="xtick_23">
     <g id="line2d_35">
      <g>
       <use xlink:href="#m0427ac0ac2" x="408.4785" y="200.270351" style="stroke: #000000; stroke-width: 0.8"/>
      </g>
     </g>
    </g>
    <g id="xtick_24">
     <g id="line2d_36">
      <g>
       <use xlink:href="#m0427ac0ac2" x="442.125" y="200.270351" style="stroke: #000000; stroke-width: 0.8"/>
      </g>
     </g>
    </g>
   </g>
   <g id="matplotlib.axis_8">
    <g id="ytick_10">
     <g id="line2d_37">
      <g>
       <use xlink:href="#m9ca5f2664d" x="273.8925" y="191.135302" style="stroke: #000000; stroke-width: 0.8"/>
      </g>
     </g>
     <g id="text_11">
      <!-- −0.05 -->
      <g transform="translate(236.247187 194.93452)scale(0.1 -0.1)">
       <use xlink:href="#DejaVuSans-2212"/>
       <use xlink:href="#DejaVuSans-30" x="83.789062"/>
       <use xlink:href="#DejaVuSans-2e" x="147.412109"/>
       <use xlink:href="#DejaVuSans-30" x="179.199219"/>
       <use xlink:href="#DejaVuSans-35" x="242.822266"/>
      </g>
     </g>
    </g>
    <g id="ytick_11">
     <g id="line2d_38">
      <g>
       <use xlink:href="#m9ca5f2664d" x="273.8925" y="158.802457" style="stroke: #000000; stroke-width: 0.8"/>
      </g>
     </g>
     <g id="text_12">
      <!-- 0.00 -->
      <g transform="translate(244.626875 162.601676)scale(0.1 -0.1)">
       <use xlink:href="#DejaVuSans-30"/>
       <use xlink:href="#DejaVuSans-2e" x="63.623047"/>
       <use xlink:href="#DejaVuSans-30" x="95.410156"/>
       <use xlink:href="#DejaVuSans-30" x="159.033203"/>
      </g>
     </g>
    </g>
    <g id="ytick_12">
     <g id="line2d_39">
      <g>
       <use xlink:href="#m9ca5f2664d" x="273.8925" y="126.469613" style="stroke: #000000; stroke-width: 0.8"/>
      </g>
     </g>
     <g id="text_13">
      <!-- 0.05 -->
      <g transform="translate(244.626875 130.268832)scale(0.1 -0.1)">
       <use xlink:href="#DejaVuSans-30"/>
       <use xlink:href="#DejaVuSans-2e" x="63.623047"/>
       <use xlink:href="#DejaVuSans-30" x="95.410156"/>
       <use xlink:href="#DejaVuSans-35" x="159.033203"/>
      </g>
     </g>
    </g>
   </g>
   <g id="line2d_40">
    <path d="M 314.2683 148.079021 
L 314.94123 151.579673 
L 315.61416 138.788906 
L 316.28709 133.197625 
L 316.96002 167.910957 
L 317.63295 148.840013 
L 318.30588 149.476954 
L 318.97881 159.407301 
L 319.65174 172.152863 
L 320.32467 154.360956 
L 320.9976 166.996298 
L 322.34346 152.423148 
L 323.01639 160.886764 
L 323.68932 170.755623 
L 324.36225 164.435443 
L 325.03518 172.535892 
L 325.70811 118.083318 
L 326.38104 184.597772 
L 327.05397 175.964885 
L 327.7269 176.494284 
L 328.39983 156.036507 
L 329.07276 162.301254 
L 329.74569 180.679209 
L 330.41862 163.21927 
L 331.09155 141.162881 
L 331.76448 164.942895 
L 332.43741 164.509576 
L 333.11034 148.178728 
L 333.78327 140.952492 
L 335.12913 167.682774 
L 335.80206 167.587065 
L 336.47499 155.194135 
L 337.14792 154.884601 
L 337.82085 152.03674 
L 338.49378 160.992703 
L 339.16671 138.701969 
L 339.83964 155.004378 
L 340.51257 158.208618 
L 341.1855 163.993652 
L 341.85843 155.634334 
L 342.53136 182.719826 
L 343.87722 156.195426 
L 344.55015 169.781072 
L 345.22308 161.701492 
L 345.89601 159.129594 
L 346.56894 173.958318 
L 347.24187 146.002126 
L 347.9148 144.938113 
L 348.58773 146.568586 
L 349.93359 174.845137 
L 350.60652 170.48282 
L 351.27945 159.842822 
L 351.95238 183.438127 
L 352.62531 167.21531 
L 353.29824 166.923028 
L 353.97117 184.182479 
L 354.6441 156.514047 
L 355.31703 166.403008 
L 355.98996 169.076543 
L 356.66289 154.890379 
L 357.33582 157.398848 
L 358.00875 168.822697 
L 358.68168 164.122074 
L 359.35461 160.335574 
L 360.02754 174.078639 
L 360.70047 157.797039 
L 361.3734 136.791258 
L 362.04633 170.285866 
L 362.71926 166.895071 
L 363.39219 156.989603 
L 364.06512 172.396503 
L 365.41098 150.919204 
L 366.08391 150.648548 
L 366.75684 136.128152 
L 367.42977 162.634964 
L 368.77563 150.5813 
L 369.44856 158.339922 
L 370.12149 187.077535 
L 370.79442 149.57042 
L 371.46735 159.496062 
L 372.14028 163.792531 
L 372.81321 165.22063 
L 373.48614 167.762341 
L 374.15907 182.245579 
L 374.832 148.227045 
L 375.50493 146.638563 
L 376.17786 154.231021 
L 376.85079 144.046917 
L 377.52372 142.221805 
L 378.19665 154.064487 
L 378.86958 148.186626 
L 379.54251 157.115553 
L 380.21544 153.240543 
L 380.88837 142.93789 
L 381.5613 140.790334 
L 382.23423 149.476591 
L 382.90716 151.240331 
L 383.58009 173.210702 
L 384.25302 148.934567 
L 384.92595 120.210871 
L 385.59888 131.522503 
L 386.27181 128.045352 
L 386.94474 133.708139 
L 387.61767 154.880849 
L 388.2906 143.21146 
L 388.96353 153.251081 
L 389.63646 140.253119 
L 390.30939 160.525292 
L 390.98232 154.422435 
L 391.65525 145.971851 
L 392.32818 153.312665 
L 393.00111 151.475082 
L 394.34697 128.649094 
L 395.0199 153.215035 
L 395.69283 173.384215 
L 396.36576 165.210551 
L 397.03869 160.523553 
L 397.71162 174.746944 
L 398.38455 165.829164 
L 399.05748 154.324729 
L 400.40334 186.095442 
L 401.07627 149.299352 
L 401.7492 180.9366 
L 402.42213 158.145356 
L 403.09506 183.315822 
L 403.76799 161.089938 
L 404.44092 159.626666 
L 405.11385 153.779108 
L 405.78678 163.633044 
L 406.45971 159.311547 
L 407.13264 172.487048 
L 407.80557 151.950318 
L 408.4785 189.673498 
L 409.15143 164.12552 
L 409.82436 153.907321 
L 410.49729 150.896329 
L 411.17022 158.842973 
L 411.84315 149.76027 
L 412.51608 151.911998 
L 413.18901 172.562686 
L 413.86194 179.28645 
L 414.53487 167.819476 
L 415.2078 165.530545 
L 415.88073 183.477787 
L 417.22659 139.334057 
L 417.89952 153.582286 
L 418.57245 151.963635 
L 419.24538 181.400368 
L 419.91831 164.015687 
L 420.59124 184.862768 
L 421.26417 165.247437 
L 422.61003 149.018567 
L 423.28296 166.412322 
L 423.95589 159.493555 
L 424.62882 154.714223 
L 425.30175 159.099429 
L 425.97468 196.356682 
L 426.64761 161.535828 
L 427.32054 142.076619 
L 427.99347 165.586324 
L 428.6664 174.692188 
L 429.33933 139.374471 
L 430.01226 177.888581 
L 430.68519 184.977708 
L 432.03105 150.221246 
L 432.70398 185.348128 
L 433.37691 152.238692 
L 434.04984 155.042054 
L 434.72277 139.857115 
L 435.3957 145.479761 
L 436.06863 169.235241 
L 436.74156 152.686035 
L 437.41449 152.509411 
L 438.08742 155.229641 
L 438.76035 172.679356 
L 439.43328 158.865979 
L 440.10621 138.292813 
L 440.77914 128.269335 
L 441.45207 128.22465 
L 441.45207 128.22465 
" clip-path="url(#pfe11f5dc2f)" style="fill: none; stroke: #000000; stroke-width: 1.5; stroke-linecap: square"/>
   </g>
   <g id="patch_12">
    <path d="M 273.8925 200.270351 
L 273.8925 114.169649 
" style="fill: none; stroke: #000000; stroke-width: 0.8; stroke-linejoin: miter; stroke-linecap: square"/>
   </g>
   <g id="patch_13">
    <path d="M 273.8925 200.270351 
L 442.125 200.270351 
" style="fill: none; stroke: #000000; stroke-width: 0.8; stroke-linejoin: miter; stroke-linecap: square"/>
   </g>
  </g>
  <g id="axes_5">
   <g id="patch_14">
    <path d="M 57.44 303.64 
L 225.6725 303.64 
L 225.6725 217.539299 
L 57.44 217.539299 
z
" style="fill: #ffffff"/>
   </g>
   <g id="matplotlib.axis_9">
    <g id="xtick_25">
     <g id="line2d_41">
      <g>
       <use xlink:href="#m0427ac0ac2" x="57.44" y="303.64" style="stroke: #000000; stroke-width: 0.8"/>
      </g>
     </g>
     <g id="text_14">
      <!-- 0.0 -->
      <g transform="translate(49.488438 318.238437)scale(0.1 -0.1)">
       <use xlink:href="#DejaVuSans-30"/>
       <use xlink:href="#DejaVuSans-2e" x="63.623047"/>
       <use xlink:href="#DejaVuSans-30" x="95.410156"/>
      </g>
     </g>
    </g>
    <g id="xtick_26">
     <g id="line2d_42">
      <g>
       <use xlink:href="#m0427ac0ac2" x="91.0865" y="303.64" style="stroke: #000000; stroke-width: 0.8"/>
      </g>
     </g>
     <g id="text_15">
      <!-- 0.5 -->
      <g transform="translate(83.134938 318.238437)scale(0.1 -0.1)">
       <use xlink:href="#DejaVuSans-30"/>
       <use xlink:href="#DejaVuSans-2e" x="63.623047"/>
       <use xlink:href="#DejaVuSans-35" x="95.410156"/>
      </g>
     </g>
    </g>
    <g id="xtick_27">
     <g id="line2d_43">
      <g>
       <use xlink:href="#m0427ac0ac2" x="124.733" y="303.64" style="stroke: #000000; stroke-width: 0.8"/>
      </g>
     </g>
     <g id="text_16">
      <!-- 1.0 -->
      <g transform="translate(116.781437 318.238437)scale(0.1 -0.1)">
       <defs>
        <path id="DejaVuSans-31" d="M 794 531 
L 1825 531 
L 1825 4091 
L 703 3866 
L 703 4441 
L 1819 4666 
L 2450 4666 
L 2450 531 
L 3481 531 
L 3481 0 
L 794 0 
L 794 531 
z
" transform="scale(0.015625)"/>
       </defs>
       <use xlink:href="#DejaVuSans-31"/>
       <use xlink:href="#DejaVuSans-2e" x="63.623047"/>
       <use xlink:href="#DejaVuSans-30" x="95.410156"/>
      </g>
     </g>
    </g>
    <g id="xtick_28">
     <g id="line2d_44">
      <g>
       <use xlink:href="#m0427ac0ac2" x="158.3795" y="303.64" style="stroke: #000000; stroke-width: 0.8"/>
      </g>
     </g>
     <g id="text_17">
      <!-- 1.5 -->
      <g transform="translate(150.427937 318.238437)scale(0.1 -0.1)">
       <use xlink:href="#DejaVuSans-31"/>
       <use xlink:href="#DejaVuSans-2e" x="63.623047"/>
       <use xlink:href="#DejaVuSans-35" x="95.410156"/>
      </g>
     </g>
    </g>
    <g id="xtick_29">
     <g id="line2d_45">
      <g>
       <use xlink:href="#m0427ac0ac2" x="192.026" y="303.64" style="stroke: #000000; stroke-width: 0.8"/>
      </g>
     </g>
     <g id="text_18">
      <!-- 2.0 -->
      <g transform="translate(184.074437 318.238437)scale(0.1 -0.1)">
       <use xlink:href="#DejaVuSans-32"/>
       <use xlink:href="#DejaVuSans-2e" x="63.623047"/>
       <use xlink:href="#DejaVuSans-30" x="95.410156"/>
      </g>
     </g>
    </g>
    <g id="xtick_30">
     <g id="line2d_46">
      <g>
       <use xlink:href="#m0427ac0ac2" x="225.6725" y="303.64" style="stroke: #000000; stroke-width: 0.8"/>
      </g>
     </g>
     <g id="text_19">
      <!-- 2.5 -->
      <g transform="translate(217.720937 318.238437)scale(0.1 -0.1)">
       <use xlink:href="#DejaVuSans-32"/>
       <use xlink:href="#DejaVuSans-2e" x="63.623047"/>
       <use xlink:href="#DejaVuSans-35" x="95.410156"/>
      </g>
     </g>
    </g>
    <g id="text_20">
     <!-- time(s) -->
     <g transform="translate(123.753906 331.916562)scale(0.1 -0.1)">
      <defs>
       <path id="DejaVuSans-74" d="M 1172 4494 
L 1172 3500 
L 2356 3500 
L 2356 3053 
L 1172 3053 
L 1172 1153 
Q 1172 725 1289 603 
Q 1406 481 1766 481 
L 2356 481 
L 2356 0 
L 1766 0 
Q 1100 0 847 248 
Q 594 497 594 1153 
L 594 3053 
L 172 3053 
L 172 3500 
L 594 3500 
L 594 4494 
L 1172 4494 
z
" transform="scale(0.015625)"/>
       <path id="DejaVuSans-69" d="M 603 3500 
L 1178 3500 
L 1178 0 
L 603 0 
L 603 3500 
z
M 603 4863 
L 1178 4863 
L 1178 4134 
L 603 4134 
L 603 4863 
z
" transform="scale(0.015625)"/>
       <path id="DejaVuSans-6d" d="M 3328 2828 
Q 3544 3216 3844 3400 
Q 4144 3584 4550 3584 
Q 5097 3584 5394 3201 
Q 5691 2819 5691 2113 
L 5691 0 
L 5113 0 
L 5113 2094 
Q 5113 2597 4934 2840 
Q 4756 3084 4391 3084 
Q 3944 3084 3684 2787 
Q 3425 2491 3425 1978 
L 3425 0 
L 2847 0 
L 2847 2094 
Q 2847 2600 2669 2842 
Q 2491 3084 2119 3084 
Q 1678 3084 1418 2786 
Q 1159 2488 1159 1978 
L 1159 0 
L 581 0 
L 581 3500 
L 1159 3500 
L 1159 2956 
Q 1356 3278 1631 3431 
Q 1906 3584 2284 3584 
Q 2666 3584 2933 3390 
Q 3200 3197 3328 2828 
z
" transform="scale(0.015625)"/>
       <path id="DejaVuSans-65" d="M 3597 1894 
L 3597 1613 
L 953 1613 
Q 991 1019 1311 708 
Q 1631 397 2203 397 
Q 2534 397 2845 478 
Q 3156 559 3463 722 
L 3463 178 
Q 3153 47 2828 -22 
Q 2503 -91 2169 -91 
Q 1331 -91 842 396 
Q 353 884 353 1716 
Q 353 2575 817 3079 
Q 1281 3584 2069 3584 
Q 2775 3584 3186 3129 
Q 3597 2675 3597 1894 
z
M 3022 2063 
Q 3016 2534 2758 2815 
Q 2500 3097 2075 3097 
Q 1594 3097 1305 2825 
Q 1016 2553 972 2059 
L 3022 2063 
z
" transform="scale(0.015625)"/>
       <path id="DejaVuSans-73" d="M 2834 3397 
L 2834 2853 
Q 2591 2978 2328 3040 
Q 2066 3103 1784 3103 
Q 1356 3103 1142 2972 
Q 928 2841 928 2578 
Q 928 2378 1081 2264 
Q 1234 2150 1697 2047 
L 1894 2003 
Q 2506 1872 2764 1633 
Q 3022 1394 3022 966 
Q 3022 478 2636 193 
Q 2250 -91 1575 -91 
Q 1294 -91 989 -36 
Q 684 19 347 128 
L 347 722 
Q 666 556 975 473 
Q 1284 391 1588 391 
Q 1994 391 2212 530 
Q 2431 669 2431 922 
Q 2431 1156 2273 1281 
Q 2116 1406 1581 1522 
L 1381 1569 
Q 847 1681 609 1914 
Q 372 2147 372 2553 
Q 372 3047 722 3315 
Q 1072 3584 1716 3584 
Q 2034 3584 2315 3537 
Q 2597 3491 2834 3397 
z
" transform="scale(0.015625)"/>
      </defs>
      <use xlink:href="#DejaVuSans-74"/>
      <use xlink:href="#DejaVuSans-69" x="39.208984"/>
      <use xlink:href="#DejaVuSans-6d" x="66.992188"/>
      <use xlink:href="#DejaVuSans-65" x="164.404297"/>
      <use xlink:href="#DejaVuSans-28" x="225.927734"/>
      <use xlink:href="#DejaVuSans-73" x="264.941406"/>
      <use xlink:href="#DejaVuSans-29" x="317.041016"/>
     </g>
    </g>
   </g>
   <g id="matplotlib.axis_10">
    <g id="ytick_13">
     <g id="line2d_47">
      <g>
       <use xlink:href="#m9ca5f2664d" x="57.44" y="296.284645" style="stroke: #000000; stroke-width: 0.8"/>
      </g>
     </g>
     <g id="text_21">
      <!-- −0.2 -->
      <g transform="translate(26.157188 300.083863)scale(0.1 -0.1)">
       <use xlink:href="#DejaVuSans-2212"/>
       <use xlink:href="#DejaVuSans-30" x="83.789062"/>
       <use xlink:href="#DejaVuSans-2e" x="147.412109"/>
       <use xlink:href="#DejaVuSans-32" x="179.199219"/>
      </g>
     </g>
    </g>
    <g id="ytick_14">
     <g id="line2d_48">
      <g>
       <use xlink:href="#m9ca5f2664d" x="57.44" y="260.316069" style="stroke: #000000; stroke-width: 0.8"/>
      </g>
     </g>
     <g id="text_22">
      <!-- 0.0 -->
      <g transform="translate(34.536875 264.115288)scale(0.1 -0.1)">
       <use xlink:href="#DejaVuSans-30"/>
       <use xlink:href="#DejaVuSans-2e" x="63.623047"/>
       <use xlink:href="#DejaVuSans-30" x="95.410156"/>
      </g>
     </g>
    </g>
    <g id="ytick_15">
     <g id="line2d_49">
      <g>
       <use xlink:href="#m9ca5f2664d" x="57.44" y="224.347494" style="stroke: #000000; stroke-width: 0.8"/>
      </g>
     </g>
     <g id="text_23">
      <!-- 0.2 -->
      <g transform="translate(34.536875 228.146712)scale(0.1 -0.1)">
       <use xlink:href="#DejaVuSans-30"/>
       <use xlink:href="#DejaVuSans-2e" x="63.623047"/>
       <use xlink:href="#DejaVuSans-32" x="95.410156"/>
      </g>
     </g>
    </g>
   </g>
   <g id="line2d_50">
    <path d="M 60.80465 276.653704 
L 61.47758 278.179078 
L 62.15051 283.319985 
L 62.82344 259.226059 
L 63.49637 262.71146 
L 64.1693 267.273753 
L 64.84223 254.662814 
L 65.51516 255.031493 
L 66.18809 257.271087 
L 66.86102 262.968758 
L 68.20688 247.127545 
L 68.87981 272.246309 
L 69.55274 265.116746 
L 70.22567 262.87443 
L 70.8986 256.15634 
L 71.57153 256.865025 
L 72.24446 244.211187 
L 72.91739 264.852297 
L 73.59032 254.198334 
L 74.26325 257.954578 
L 74.93618 255.490432 
L 75.60911 249.345244 
L 76.95497 263.782646 
L 77.6279 281.985115 
L 78.30083 285.874467 
L 78.97376 254.502709 
L 79.64669 250.555836 
L 80.31962 247.531413 
L 80.99255 254.792816 
L 81.66548 259.64436 
L 82.33841 248.914266 
L 83.01134 259.57941 
L 83.68427 255.456761 
L 84.3572 258.605557 
L 85.03013 260.773666 
L 85.70306 241.489188 
L 86.37599 252.805333 
L 87.04892 257.90428 
L 87.72185 264.245024 
L 88.39478 271.827744 
L 89.06771 254.784797 
L 89.74064 262.312826 
L 90.41357 278.066086 
L 91.0865 264.115867 
L 91.75943 231.888622 
L 92.43236 259.305381 
L 93.10529 265.588901 
L 93.77822 252.167641 
L 94.45115 243.322616 
L 95.79701 267.610274 
L 96.46994 246.6272 
L 97.14287 249.582259 
L 97.8158 271.238587 
L 98.48873 275.730549 
L 99.16166 255.758204 
L 99.83459 270.04009 
L 100.50752 249.701332 
L 101.18045 232.829696 
L 101.85338 251.482408 
L 102.52631 252.813122 
L 103.19924 277.448773 
L 103.87217 261.434133 
L 104.5451 287.927276 
L 105.21803 256.789767 
L 105.89096 267.842999 
L 106.56389 249.355529 
L 107.23682 234.178078 
L 107.90975 287.694512 
L 108.58268 283.422482 
L 109.25561 238.818977 
L 109.92854 256.085864 
L 110.60147 243.97181 
L 111.2744 247.706003 
L 111.94733 281.412766 
L 112.62026 223.688095 
L 113.29319 271.794125 
L 113.96612 266.080567 
L 114.63905 267.011642 
L 115.31198 272.048355 
L 115.98491 258.179633 
L 116.65784 253.495248 
L 117.33077 262.597628 
L 118.0037 261.364812 
L 118.67663 267.412486 
L 119.34956 243.764129 
L 120.69542 270.363161 
L 122.04128 258.005431 
L 122.71421 258.702002 
L 123.38714 263.030245 
L 124.06007 268.768559 
L 124.733 264.490848 
L 125.40593 263.686642 
L 126.07886 276.35411 
L 126.75179 269.642885 
L 127.42472 267.357887 
L 128.09765 250.614198 
L 128.77058 264.00621 
L 129.44351 248.81574 
L 130.11644 262.174344 
L 130.78937 271.072958 
L 131.4623 264.402879 
L 132.13523 278.030096 
L 133.48109 269.529877 
L 134.15402 254.22682 
L 134.82695 246.20851 
L 135.49988 251.34696 
L 136.17281 260.279149 
L 136.84574 234.917668 
L 137.51867 253.81834 
L 138.1916 253.184637 
L 138.86453 252.854021 
L 139.53746 290.279461 
L 140.21039 261.831161 
L 140.88332 253.047669 
L 141.55625 241.711403 
L 142.22918 273.686343 
L 142.90211 247.564468 
L 143.57504 281.734869 
L 144.24797 275.106922 
L 144.9209 250.533355 
L 145.59383 283.078631 
L 146.26676 245.784305 
L 146.93969 258.785151 
L 147.61262 269.393518 
L 148.95848 250.106886 
L 149.63141 251.793199 
L 150.30434 258.070467 
L 150.97727 299.726332 
L 152.32313 262.236029 
L 152.99606 260.058879 
L 153.66899 254.221261 
L 154.34192 242.818971 
L 155.01485 265.050662 
L 155.68778 255.056726 
L 156.36071 263.462091 
L 157.03364 273.286218 
L 157.70657 252.948328 
L 158.3795 275.291107 
L 159.05243 263.980862 
L 159.72536 255.677071 
L 160.39829 266.24974 
L 161.07122 272.529097 
L 161.74415 254.678036 
L 162.41708 257.449647 
L 163.09001 257.67416 
L 163.76294 264.556252 
L 164.43587 278.096101 
L 165.1088 274.965236 
L 165.78173 269.922776 
L 166.45466 245.829484 
L 167.12759 246.010165 
L 167.80052 268.56062 
L 168.47345 266.982429 
L 169.14638 268.571873 
L 169.81931 288.246769 
L 170.49224 273.636862 
L 171.16517 240.929554 
L 171.8381 246.145514 
L 172.51103 258.021357 
L 173.18396 259.259151 
L 173.85689 267.315882 
L 174.52982 244.580237 
L 175.20275 249.612056 
L 175.87568 275.904887 
L 176.54861 227.922547 
L 177.22154 256.904669 
L 177.89447 267.156369 
L 178.5674 269.786706 
L 179.24033 232.104011 
L 179.91326 267.101634 
L 180.58619 274.64114 
L 181.25912 286.62106 
L 181.93205 268.286649 
L 182.60498 257.090878 
L 183.27791 221.452967 
L 183.95084 273.572774 
L 184.62377 249.832554 
L 185.2967 258.147313 
L 186.64256 246.046931 
L 187.31549 267.052395 
L 187.98842 261.871279 
L 188.66135 264.782589 
L 189.33428 250.870872 
L 190.00721 269.174072 
L 190.68014 253.039093 
L 191.35307 268.008497 
L 192.026 249.174869 
L 192.69893 250.337101 
L 193.37186 255.625543 
L 194.04479 259.327233 
L 194.71772 257.474894 
L 195.39065 234.833667 
L 196.73651 261.761397 
L 197.40944 259.436374 
L 198.08237 253.779982 
L 198.7553 284.149572 
L 199.42823 245.645762 
L 200.10116 263.957762 
L 200.77409 275.447742 
L 202.11995 233.526832 
L 202.79288 242.167322 
L 204.13874 271.517695 
L 204.81167 255.092534 
L 205.4846 252.477371 
L 206.15753 250.341726 
L 206.83046 263.286019 
L 207.50339 259.570772 
L 208.17632 254.431197 
L 208.84925 254.056703 
L 209.52218 272.571615 
L 210.19511 255.383903 
L 210.86804 267.242642 
L 211.54097 251.810119 
L 212.2139 265.741798 
L 212.88683 272.537253 
L 213.55976 269.974883 
L 214.23269 247.422084 
L 214.90562 265.025677 
L 215.57855 262.480497 
L 216.25148 260.576194 
L 216.92441 260.106437 
L 217.59734 278.210818 
L 218.27027 263.62997 
L 218.9432 257.149528 
L 219.61613 291.77891 
L 220.28906 258.492578 
L 220.96199 249.494409 
L 221.63492 262.245406 
L 222.98078 256.665757 
L 223.65371 285.310155 
L 224.32664 260.957542 
L 224.99957 251.213559 
L 224.99957 251.213559 
" clip-path="url(#p389c6a856e)" style="fill: none; stroke: #1f77b4; stroke-opacity: 0.7; stroke-width: 1.5; stroke-linecap: square"/>
   </g>
   <g id="patch_15">
    <path d="M 57.44 303.64 
L 57.44 217.539299 
" style="fill: none; stroke: #000000; stroke-width: 0.8; stroke-linejoin: miter; stroke-linecap: square"/>
   </g>
   <g id="patch_16">
    <path d="M 57.44 303.64 
L 225.6725 303.64 
" style="fill: none; stroke: #000000; stroke-width: 0.8; stroke-linejoin: miter; stroke-linecap: square"/>
   </g>
  </g>
  <g id="axes_6">
   <g id="patch_17">
    <path d="M 273.8925 303.64 
L 442.125 303.64 
L 442.125 217.539299 
L 273.8925 217.539299 
z
" style="fill: #ffffff"/>
   </g>
   <g id="matplotlib.axis_11">
    <g id="xtick_31">
     <g id="line2d_51">
      <g>
       <use xlink:href="#m0427ac0ac2" x="273.8925" y="303.64" style="stroke: #000000; stroke-width: 0.8"/>
      </g>
     </g>
     <g id="text_24">
      <!-- 0.0 -->
      <g transform="translate(265.940937 318.238437)scale(0.1 -0.1)">
       <use xlink:href="#DejaVuSans-30"/>
       <use xlink:href="#DejaVuSans-2e" x="63.623047"/>
       <use xlink:href="#DejaVuSans-30" x="95.410156"/>
      </g>
     </g>
    </g>
    <g id="xtick_32">
     <g id="line2d_52">
      <g>
       <use xlink:href="#m0427ac0ac2" x="307.539" y="303.64" style="stroke: #000000; stroke-width: 0.8"/>
      </g>
     </g>
     <g id="text_25">
      <!-- 0.5 -->
      <g transform="translate(299.587437 318.238437)scale(0.1 -0.1)">
       <use xlink:href="#DejaVuSans-30"/>
       <use xlink:href="#DejaVuSans-2e" x="63.623047"/>
       <use xlink:href="#DejaVuSans-35" x="95.410156"/>
      </g>
     </g>
    </g>
    <g id="xtick_33">
     <g id="line2d_53">
      <g>
       <use xlink:href="#m0427ac0ac2" x="341.1855" y="303.64" style="stroke: #000000; stroke-width: 0.8"/>
      </g>
     </g>
     <g id="text_26">
      <!-- 1.0 -->
      <g transform="translate(333.233937 318.238437)scale(0.1 -0.1)">
       <use xlink:href="#DejaVuSans-31"/>
       <use xlink:href="#DejaVuSans-2e" x="63.623047"/>
       <use xlink:href="#DejaVuSans-30" x="95.410156"/>
      </g>
     </g>
    </g>
    <g id="xtick_34">
     <g id="line2d_54">
      <g>
       <use xlink:href="#m0427ac0ac2" x="374.832" y="303.64" style="stroke: #000000; stroke-width: 0.8"/>
      </g>
     </g>
     <g id="text_27">
      <!-- 1.5 -->
      <g transform="translate(366.880437 318.238437)scale(0.1 -0.1)">
       <use xlink:href="#DejaVuSans-31"/>
       <use xlink:href="#DejaVuSans-2e" x="63.623047"/>
       <use xlink:href="#DejaVuSans-35" x="95.410156"/>
      </g>
     </g>
    </g>
    <g id="xtick_35">
     <g id="line2d_55">
      <g>
       <use xlink:href="#m0427ac0ac2" x="408.4785" y="303.64" style="stroke: #000000; stroke-width: 0.8"/>
      </g>
     </g>
     <g id="text_28">
      <!-- 2.0 -->
      <g transform="translate(400.526937 318.238437)scale(0.1 -0.1)">
       <use xlink:href="#DejaVuSans-32"/>
       <use xlink:href="#DejaVuSans-2e" x="63.623047"/>
       <use xlink:href="#DejaVuSans-30" x="95.410156"/>
      </g>
     </g>
    </g>
    <g id="xtick_36">
     <g id="line2d_56">
      <g>
       <use xlink:href="#m0427ac0ac2" x="442.125" y="303.64" style="stroke: #000000; stroke-width: 0.8"/>
      </g>
     </g>
     <g id="text_29">
      <!-- 2.5 -->
      <g transform="translate(434.173437 318.238437)scale(0.1 -0.1)">
       <use xlink:href="#DejaVuSans-32"/>
       <use xlink:href="#DejaVuSans-2e" x="63.623047"/>
       <use xlink:href="#DejaVuSans-35" x="95.410156"/>
      </g>
     </g>
    </g>
    <g id="text_30">
     <!-- time (s) -->
     <g transform="translate(338.617344 331.916562)scale(0.1 -0.1)">
      <use xlink:href="#DejaVuSans-74"/>
      <use xlink:href="#DejaVuSans-69" x="39.208984"/>
      <use xlink:href="#DejaVuSans-6d" x="66.992188"/>
      <use xlink:href="#DejaVuSans-65" x="164.404297"/>
      <use xlink:href="#DejaVuSans-20" x="225.927734"/>
      <use xlink:href="#DejaVuSans-28" x="257.714844"/>
      <use xlink:href="#DejaVuSans-73" x="296.728516"/>
      <use xlink:href="#DejaVuSans-29" x="348.828125"/>
     </g>
    </g>
   </g>
   <g id="matplotlib.axis_12">
    <g id="ytick_16">
     <g id="line2d_57">
      <g>
       <use xlink:href="#m9ca5f2664d" x="273.8925" y="265.75431" style="stroke: #000000; stroke-width: 0.8"/>
      </g>
     </g>
     <g id="text_31">
      <!-- 0.00 -->
      <g transform="translate(244.626875 269.553529)scale(0.1 -0.1)">
       <use xlink:href="#DejaVuSans-30"/>
       <use xlink:href="#DejaVuSans-2e" x="63.623047"/>
       <use xlink:href="#DejaVuSans-30" x="95.410156"/>
       <use xlink:href="#DejaVuSans-30" x="159.033203"/>
      </g>
     </g>
    </g>
    <g id="ytick_17">
     <g id="line2d_58">
      <g>
       <use xlink:href="#m9ca5f2664d" x="273.8925" y="225.395223" style="stroke: #000000; stroke-width: 0.8"/>
      </g>
     </g>
     <g id="text_32">
      <!-- 0.05 -->
      <g transform="translate(244.626875 229.194442)scale(0.1 -0.1)">
       <use xlink:href="#DejaVuSans-30"/>
       <use xlink:href="#DejaVuSans-2e" x="63.623047"/>
       <use xlink:href="#DejaVuSans-30" x="95.410156"/>
       <use xlink:href="#DejaVuSans-35" x="159.033203"/>
      </g>
     </g>
    </g>
   </g>
   <g id="line2d_59">
    <path d="M 314.2683 276.604514 
L 314.94123 240.966498 
L 315.61416 270.53614 
L 316.28709 259.399238 
L 316.96002 256.666984 
L 317.63295 269.829624 
L 318.30588 253.660566 
L 318.97881 276.419445 
L 319.65174 265.603852 
L 320.32467 276.700585 
L 320.9976 279.177269 
L 321.67053 277.54928 
L 322.34346 275.474475 
L 323.01639 257.638745 
L 323.68932 259.71123 
L 324.36225 269.142831 
L 325.03518 251.415239 
L 325.70811 286.678248 
L 326.38104 282.643356 
L 327.05397 272.92675 
L 327.7269 279.345907 
L 328.39983 256.319795 
L 329.07276 248.672251 
L 329.74569 243.043912 
L 330.41862 248.413609 
L 331.09155 235.45974 
L 331.76448 258.445258 
L 332.43741 273.899733 
L 333.11034 255.994753 
L 333.78327 268.032961 
L 334.4562 244.894121 
L 335.12913 274.489845 
L 335.80206 272.583681 
L 336.47499 287.056178 
L 337.14792 275.84852 
L 337.82085 262.207631 
L 338.49378 269.408294 
L 339.16671 264.728018 
L 339.83964 283.429164 
L 340.51257 254.31387 
L 341.1855 271.999177 
L 341.85843 266.798207 
L 342.53136 232.888899 
L 343.20429 292.064986 
L 343.87722 281.042972 
L 344.55015 267.759004 
L 345.22308 256.810955 
L 345.89601 274.362096 
L 346.56894 240.819613 
L 347.24187 267.191547 
L 347.9148 269.68251 
L 348.58773 293.717378 
L 349.26066 275.939513 
L 349.93359 273.157829 
L 350.60652 221.452967 
L 351.27945 235.013816 
L 352.62531 282.799506 
L 353.29824 290.674626 
L 353.97117 263.008574 
L 354.6441 271.902079 
L 355.31703 259.323797 
L 355.98996 282.662296 
L 356.66289 266.310677 
L 357.33582 265.386469 
L 358.00875 276.501965 
L 358.68168 281.741355 
L 359.35461 257.992762 
L 360.02754 272.249794 
L 360.70047 270.382723 
L 361.3734 272.799932 
L 362.04633 272.105335 
L 362.71926 269.176424 
L 363.39219 257.628244 
L 364.06512 237.987029 
L 365.41098 268.655812 
L 366.08391 279.866853 
L 366.75684 269.719011 
L 367.42977 282.722374 
L 368.1027 259.269224 
L 368.77563 272.70892 
L 369.44856 259.434996 
L 370.12149 270.476715 
L 370.79442 275.085262 
L 371.46735 273.643104 
L 372.14028 276.788299 
L 372.81321 271.25096 
L 373.48614 269.714528 
L 374.15907 237.979311 
L 374.832 258.919644 
L 375.50493 259.621031 
L 376.17786 277.201583 
L 376.85079 285.558338 
L 377.52372 278.353001 
L 378.19665 272.944326 
L 378.86958 251.576638 
L 379.54251 268.555425 
L 380.21544 267.308425 
L 380.88837 264.686603 
L 381.5613 250.862636 
L 382.23423 267.855469 
L 382.90716 265.486237 
L 383.58009 250.606938 
L 384.25302 265.842562 
L 384.92595 259.050372 
L 385.59888 269.047428 
L 386.27181 265.498605 
L 386.94474 236.112045 
L 387.61767 268.967938 
L 388.2906 270.124435 
L 389.63646 254.149242 
L 390.30939 258.121822 
L 390.98232 282.379421 
L 391.65525 245.314159 
L 392.32818 269.827876 
L 393.00111 257.908006 
L 393.67404 234.874035 
L 394.34697 244.62674 
L 395.0199 283.411249 
L 395.69283 251.966122 
L 396.36576 253.055192 
L 397.03869 268.925941 
L 397.71162 242.232675 
L 398.38455 249.971364 
L 399.05748 269.401241 
L 399.73041 265.13084 
L 400.40334 248.632065 
L 401.07627 270.660223 
L 401.7492 263.881773 
L 402.42213 298.997436 
L 403.09506 258.259156 
L 403.76799 268.440887 
L 404.44092 273.288834 
L 405.11385 266.018304 
L 405.78678 259.969608 
L 406.45971 256.549308 
L 407.80557 291.567245 
L 408.4785 268.316003 
L 409.15143 258.100694 
L 409.82436 293.126308 
L 410.49729 293.40819 
L 411.17022 243.247521 
L 411.84315 262.287293 
L 412.51608 273.997459 
L 413.18901 252.464893 
L 415.2078 273.594924 
L 415.88073 276.763012 
L 416.55366 294.855044 
L 417.22659 286.599305 
L 417.89952 269.451837 
L 418.57245 269.704323 
L 419.24538 234.749643 
L 419.91831 258.879401 
L 420.59124 256.52044 
L 421.26417 268.011861 
L 421.9371 282.380393 
L 422.61003 246.306001 
L 423.28296 269.017731 
L 423.95589 256.375039 
L 424.62882 247.341473 
L 425.30175 299.726332 
L 425.97468 264.560758 
L 426.64761 251.595935 
L 427.32054 285.917119 
L 427.99347 256.155478 
L 428.6664 280.209051 
L 429.33933 277.973373 
L 430.01226 285.828697 
L 430.68519 281.587916 
L 431.35812 255.920005 
L 432.03105 280.937516 
L 432.70398 253.573495 
L 433.37691 253.296322 
L 434.04984 278.467166 
L 434.72277 288.833602 
L 435.3957 279.936576 
L 436.06863 258.742768 
L 436.74156 255.291333 
L 437.41449 257.133706 
L 438.08742 242.222049 
L 438.76035 253.242685 
L 439.43328 249.604171 
L 440.10621 274.75012 
L 440.77914 281.761023 
L 441.45207 236.353807 
L 441.45207 236.353807 
" clip-path="url(#p4420fc2d29)" style="fill: none; stroke: #000000; stroke-width: 1.5; stroke-linecap: square"/>
   </g>
   <g id="patch_18">
    <path d="M 273.8925 303.64 
L 273.8925 217.539299 
" style="fill: none; stroke: #000000; stroke-width: 0.8; stroke-linejoin: miter; stroke-linecap: square"/>
   </g>
   <g id="patch_19">
    <path d="M 273.8925 303.64 
L 442.125 303.64 
" style="fill: none; stroke: #000000; stroke-width: 0.8; stroke-linejoin: miter; stroke-linecap: square"/>
   </g>
  </g>
  <g id="legend_1">
   <g id="patch_20">
    <path d="M 309.935938 22.678125 
L 453.8 22.678125 
Q 455.8 22.678125 455.8 20.678125 
L 455.8 7 
Q 455.8 5 453.8 5 
L 309.935938 5 
Q 307.935938 5 307.935938 7 
L 307.935938 20.678125 
Q 307.935938 22.678125 309.935938 22.678125 
z
" style="fill: #ffffff; opacity: 0.8; stroke: #cccccc; stroke-linejoin: miter"/>
   </g>
   <g id="line2d_60">
    <path d="M 311.935938 13.098438 
L 321.935938 13.098438 
L 331.935938 13.098438 
" style="fill: none; stroke: #1f77b4; stroke-opacity: 0.7; stroke-width: 1.5; stroke-linecap: square"/>
   </g>
   <g id="text_33">
    <!-- raw -->
    <g transform="translate(339.935938 16.598438)scale(0.1 -0.1)">
     <defs>
      <path id="DejaVuSans-72" d="M 2631 2963 
Q 2534 3019 2420 3045 
Q 2306 3072 2169 3072 
Q 1681 3072 1420 2755 
Q 1159 2438 1159 1844 
L 1159 0 
L 581 0 
L 581 3500 
L 1159 3500 
L 1159 2956 
Q 1341 3275 1631 3429 
Q 1922 3584 2338 3584 
Q 2397 3584 2469 3576 
Q 2541 3569 2628 3553 
L 2631 2963 
z
" transform="scale(0.015625)"/>
      <path id="DejaVuSans-61" d="M 2194 1759 
Q 1497 1759 1228 1600 
Q 959 1441 959 1056 
Q 959 750 1161 570 
Q 1363 391 1709 391 
Q 2188 391 2477 730 
Q 2766 1069 2766 1631 
L 2766 1759 
L 2194 1759 
z
M 3341 1997 
L 3341 0 
L 2766 0 
L 2766 531 
Q 2569 213 2275 61 
Q 1981 -91 1556 -91 
Q 1019 -91 701 211 
Q 384 513 384 1019 
Q 384 1609 779 1909 
Q 1175 2209 1959 2209 
L 2766 2209 
L 2766 2266 
Q 2766 2663 2505 2880 
Q 2244 3097 1772 3097 
Q 1472 3097 1187 3025 
Q 903 2953 641 2809 
L 641 3341 
Q 956 3463 1253 3523 
Q 1550 3584 1831 3584 
Q 2591 3584 2966 3190 
Q 3341 2797 3341 1997 
z
" transform="scale(0.015625)"/>
      <path id="DejaVuSans-77" d="M 269 3500 
L 844 3500 
L 1563 769 
L 2278 3500 
L 2956 3500 
L 3675 769 
L 4391 3500 
L 4966 3500 
L 4050 0 
L 3372 0 
L 2619 2869 
L 1863 0 
L 1184 0 
L 269 3500 
z
" transform="scale(0.015625)"/>
     </defs>
     <use xlink:href="#DejaVuSans-72"/>
     <use xlink:href="#DejaVuSans-61" x="41.113281"/>
     <use xlink:href="#DejaVuSans-77" x="102.392578"/>
    </g>
   </g>
   <g id="line2d_61">
    <path d="M 378.353125 13.098438 
L 388.353125 13.098438 
L 398.353125 13.098438 
" style="fill: none; stroke: #000000; stroke-width: 1.5; stroke-linecap: square"/>
   </g>
   <g id="text_34">
    <!-- denoised -->
    <g transform="translate(406.353125 16.598438)scale(0.1 -0.1)">
     <defs>
      <path id="DejaVuSans-64" d="M 2906 2969 
L 2906 4863 
L 3481 4863 
L 3481 0 
L 2906 0 
L 2906 525 
Q 2725 213 2448 61 
Q 2172 -91 1784 -91 
Q 1150 -91 751 415 
Q 353 922 353 1747 
Q 353 2572 751 3078 
Q 1150 3584 1784 3584 
Q 2172 3584 2448 3432 
Q 2725 3281 2906 2969 
z
M 947 1747 
Q 947 1113 1208 752 
Q 1469 391 1925 391 
Q 2381 391 2643 752 
Q 2906 1113 2906 1747 
Q 2906 2381 2643 2742 
Q 2381 3103 1925 3103 
Q 1469 3103 1208 2742 
Q 947 2381 947 1747 
z
" transform="scale(0.015625)"/>
      <path id="DejaVuSans-6e" d="M 3513 2113 
L 3513 0 
L 2938 0 
L 2938 2094 
Q 2938 2591 2744 2837 
Q 2550 3084 2163 3084 
Q 1697 3084 1428 2787 
Q 1159 2491 1159 1978 
L 1159 0 
L 581 0 
L 581 3500 
L 1159 3500 
L 1159 2956 
Q 1366 3272 1645 3428 
Q 1925 3584 2291 3584 
Q 2894 3584 3203 3211 
Q 3513 2838 3513 2113 
z
" transform="scale(0.015625)"/>
      <path id="DejaVuSans-6f" d="M 1959 3097 
Q 1497 3097 1228 2736 
Q 959 2375 959 1747 
Q 959 1119 1226 758 
Q 1494 397 1959 397 
Q 2419 397 2687 759 
Q 2956 1122 2956 1747 
Q 2956 2369 2687 2733 
Q 2419 3097 1959 3097 
z
M 1959 3584 
Q 2709 3584 3137 3096 
Q 3566 2609 3566 1747 
Q 3566 888 3137 398 
Q 2709 -91 1959 -91 
Q 1206 -91 779 398 
Q 353 888 353 1747 
Q 353 2609 779 3096 
Q 1206 3584 1959 3584 
z
" transform="scale(0.015625)"/>
     </defs>
     <use xlink:href="#DejaVuSans-64"/>
     <use xlink:href="#DejaVuSans-65" x="63.476562"/>
     <use xlink:href="#DejaVuSans-6e" x="125"/>
     <use xlink:href="#DejaVuSans-6f" x="188.378906"/>
     <use xlink:href="#DejaVuSans-69" x="249.560547"/>
     <use xlink:href="#DejaVuSans-73" x="277.34375"/>
     <use xlink:href="#DejaVuSans-65" x="329.443359"/>
     <use xlink:href="#DejaVuSans-64" x="390.966797"/>
    </g>
   </g>
  </g>
 </g>
 <defs>
  <clipPath id="p485f041703">
   <rect x="57.44" y="10.8" width="168.2325" height="86.100701"/>
  </clipPath>
  <clipPath id="p46fa566677">
   <rect x="273.8925" y="10.8" width="168.2325" height="86.100701"/>
  </clipPath>
  <clipPath id="p6ef889c9d1">
   <rect x="57.44" y="114.169649" width="168.2325" height="86.100701"/>
  </clipPath>
  <clipPath id="pfe11f5dc2f">
   <rect x="273.8925" y="114.169649" width="168.2325" height="86.100701"/>
  </clipPath>
  <clipPath id="p389c6a856e">
   <rect x="57.44" y="217.539299" width="168.2325" height="86.100701"/>
  </clipPath>
  <clipPath id="p4420fc2d29">
   <rect x="273.8925" y="217.539299" width="168.2325" height="86.100701"/>
  </clipPath>
 </defs>
</svg>
