<?xml version="1.0" encoding="utf-8" standalone="no"?>
<!DOCTYPE svg PUBLIC "-//W3C//DTD SVG 1.1//EN"
  "http://www.w3.org/Graphics/SVG/1.1/DTD/svg11.dtd">
<svg xmlns:xlink="http://www.w3.org/1999/xlink" width="460.8pt" height="345.6pt" viewBox="0 0 460.8 345.6" xmlns="http://www.w3.org/2000/svg" version="1.1">
 <metadata>
  <rdf:RDF xmlns:dc="http://purl.org/dc/elements/1.1/" xmlns:cc="http://creativecommons.org/ns#" xmlns:rdf="http://www.w3.org/1999/02/22-rdf-syntax-ns#">
   <cc:Work>
    <dc:type rdf:resource="http://purl.org/dc/dcmitype/StillImage"/>
    <dc:date>2022-06-14T10:36:07.445326</dc:date>
    <dc:format>image/svg+xml</dc:format>
    <dc:creator>
     <cc:Agent>
      <dc:title>Matplotlib v3.5.2, https://matplotlib.org/</dc:title>
     </cc:Agent>
    </dc:creator>
   </cc:Work>
  </rdf:RDF>
 </metadata>
 <defs>
  <style type="text/css">*{stroke-linejoin: round; stroke-linecap: butt}</style>
 </defs>
 <g id="figure_1">
  <g id="patch_1">
   <path d="M 0 345.6 
L 460.8 345.6 
L 460.8 0 
L 0 0 
z
" style="fill: #ffffff"/>
  </g>
  <g id="axes_1">
   <g id="patch_2">
    <path d="M 57.6 119.740235 
L 219.927273 119.740235 
L 219.927273 41.472 
L 57.6 41.472 
z
" style="fill: #ffffff"/>
   </g>
   <g id="matplotlib.axis_1">
    <g id="xtick_1">
     <g id="line2d_1">
      <defs>
       <path id="mf4a588ad0c" d="M 0 0 
L 0 3.5 
" style="stroke: #000000; stroke-width: 0.8"/>
      </defs>
      <g>
       <use xlink:href="#mf4a588ad0c" x="61.954532" y="119.740235" style="stroke: #000000; stroke-width: 0.8"/>
      </g>
     </g>
    </g>
    <g id="xtick_2">
     <g id="line2d_2">
      <g>
       <use xlink:href="#mf4a588ad0c" x="122.434142" y="119.740235" style="stroke: #000000; stroke-width: 0.8"/>
      </g>
     </g>
    </g>
    <g id="xtick_3">
     <g id="line2d_3">
      <g>
       <use xlink:href="#mf4a588ad0c" x="182.913752" y="119.740235" style="stroke: #000000; stroke-width: 0.8"/>
      </g>
     </g>
    </g>
   </g>
   <g id="matplotlib.axis_2">
    <g id="ytick_1">
     <g id="line2d_4">
      <defs>
       <path id="mffcbda90e3" d="M 0 0 
L -3.5 0 
" style="stroke: #000000; stroke-width: 0.8"/>
      </defs>
      <g>
       <use xlink:href="#mffcbda90e3" x="57.6" y="108.566075" style="stroke: #000000; stroke-width: 0.8"/>
      </g>
     </g>
     <g id="text_1">
      <!-- −0.25 -->
      <g transform="translate(19.954687 112.365294)scale(0.1 -0.1)">
       <defs>
        <path id="DejaVuSans-2212" d="M 678 2272 
L 4684 2272 
L 4684 1741 
L 678 1741 
L 678 2272 
z
" transform="scale(0.015625)"/>
        <path id="DejaVuSans-30" d="M 2034 4250 
Q 1547 4250 1301 3770 
Q 1056 3291 1056 2328 
Q 1056 1369 1301 889 
Q 1547 409 2034 409 
Q 2525 409 2770 889 
Q 3016 1369 3016 2328 
Q 3016 3291 2770 3770 
Q 2525 4250 2034 4250 
z
M 2034 4750 
Q 2819 4750 3233 4129 
Q 3647 3509 3647 2328 
Q 3647 1150 3233 529 
Q 2819 -91 2034 -91 
Q 1250 -91 836 529 
Q 422 1150 422 2328 
Q 422 3509 836 4129 
Q 1250 4750 2034 4750 
z
" transform="scale(0.015625)"/>
        <path id="DejaVuSans-2e" d="M 684 794 
L 1344 794 
L 1344 0 
L 684 0 
L 684 794 
z
" transform="scale(0.015625)"/>
        <path id="DejaVuSans-32" d="M 1228 531 
L 3431 531 
L 3431 0 
L 469 0 
L 469 531 
Q 828 903 1448 1529 
Q 2069 2156 2228 2338 
Q 2531 2678 2651 2914 
Q 2772 3150 2772 3378 
Q 2772 3750 2511 3984 
Q 2250 4219 1831 4219 
Q 1534 4219 1204 4116 
Q 875 4013 500 3803 
L 500 4441 
Q 881 4594 1212 4672 
Q 1544 4750 1819 4750 
Q 2544 4750 2975 4387 
Q 3406 4025 3406 3419 
Q 3406 3131 3298 2873 
Q 3191 2616 2906 2266 
Q 2828 2175 2409 1742 
Q 1991 1309 1228 531 
z
" transform="scale(0.015625)"/>
        <path id="DejaVuSans-35" d="M 691 4666 
L 3169 4666 
L 3169 4134 
L 1269 4134 
L 1269 2991 
Q 1406 3038 1543 3061 
Q 1681 3084 1819 3084 
Q 2600 3084 3056 2656 
Q 3513 2228 3513 1497 
Q 3513 744 3044 326 
Q 2575 -91 1722 -91 
Q 1428 -91 1123 -41 
Q 819 9 494 109 
L 494 744 
Q 775 591 1075 516 
Q 1375 441 1709 441 
Q 2250 441 2565 725 
Q 2881 1009 2881 1497 
Q 2881 1984 2565 2268 
Q 2250 2553 1709 2553 
Q 1456 2553 1204 2497 
Q 953 2441 691 2322 
L 691 4666 
z
" transform="scale(0.015625)"/>
       </defs>
       <use xlink:href="#DejaVuSans-2212"/>
       <use xlink:href="#DejaVuSans-30" x="83.789062"/>
       <use xlink:href="#DejaVuSans-2e" x="147.412109"/>
       <use xlink:href="#DejaVuSans-32" x="179.199219"/>
       <use xlink:href="#DejaVuSans-35" x="242.822266"/>
      </g>
     </g>
    </g>
    <g id="ytick_2">
     <g id="line2d_5">
      <g>
       <use xlink:href="#mffcbda90e3" x="57.6" y="84.006128" style="stroke: #000000; stroke-width: 0.8"/>
      </g>
     </g>
     <g id="text_2">
      <!-- 0.00 -->
      <g transform="translate(28.334375 87.805347)scale(0.1 -0.1)">
       <use xlink:href="#DejaVuSans-30"/>
       <use xlink:href="#DejaVuSans-2e" x="63.623047"/>
       <use xlink:href="#DejaVuSans-30" x="95.410156"/>
       <use xlink:href="#DejaVuSans-30" x="159.033203"/>
      </g>
     </g>
    </g>
    <g id="ytick_3">
     <g id="line2d_6">
      <g>
       <use xlink:href="#mffcbda90e3" x="57.6" y="59.446181" style="stroke: #000000; stroke-width: 0.8"/>
      </g>
     </g>
     <g id="text_3">
      <!-- 0.25 -->
      <g transform="translate(28.334375 63.2454)scale(0.1 -0.1)">
       <use xlink:href="#DejaVuSans-30"/>
       <use xlink:href="#DejaVuSans-2e" x="63.623047"/>
       <use xlink:href="#DejaVuSans-32" x="95.410156"/>
       <use xlink:href="#DejaVuSans-35" x="159.033203"/>
      </g>
     </g>
    </g>
   </g>
   <g id="line2d_7">
    <path d="M 64.978512 97.321373 
L 65.583308 76.645669 
L 66.188105 89.82567 
L 66.792901 78.47972 
L 67.397697 78.999092 
L 68.002493 80.485898 
L 68.607289 82.356347 
L 69.212085 76.047817 
L 69.816881 108.265678 
L 70.421677 79.371887 
L 71.026473 67.208711 
L 71.631269 113.616379 
L 72.236066 114.675525 
L 72.840862 63.769584 
L 73.445658 87.781434 
L 74.050454 70.920767 
L 74.65525 82.467203 
L 75.260046 81.748196 
L 75.864842 89.197359 
L 76.469638 77.764541 
L 77.074434 100.382488 
L 77.67923 77.846748 
L 78.284027 70.485082 
L 78.888823 79.075937 
L 79.493619 91.748398 
L 80.098415 93.907069 
L 80.703211 71.345767 
L 81.308007 77.775664 
L 81.912803 66.102229 
L 82.517599 80.306353 
L 83.727191 99.747888 
L 84.331988 90.000718 
L 84.936784 87.449072 
L 85.54158 73.800048 
L 86.146376 78.049906 
L 86.751172 87.160095 
L 87.355968 64.155578 
L 87.960764 65.472004 
L 88.56556 83.90899 
L 89.170356 88.913483 
L 89.775152 66.473906 
L 90.379949 70.885245 
L 90.984745 73.735109 
L 91.589541 79.304846 
L 92.194337 100.827663 
L 92.799133 92.765874 
L 93.403929 98.516553 
L 94.613521 92.100711 
L 95.218317 78.377395 
L 95.823113 79.245071 
L 96.427909 85.168091 
L 97.032706 78.048158 
L 97.637502 87.659956 
L 98.242298 94.737554 
L 98.847094 97.529529 
L 99.45189 94.089848 
L 100.056686 71.379963 
L 100.661482 90.506057 
L 101.266278 96.394771 
L 101.871074 83.013357 
L 102.47587 84.223213 
L 103.080667 74.531033 
L 103.685463 82.73847 
L 104.895055 80.264407 
L 105.499851 90.016546 
L 106.104647 76.995834 
L 106.709443 89.853695 
L 107.314239 92.782725 
L 107.919035 87.145188 
L 108.523831 75.470982 
L 109.128628 104.270871 
L 109.733424 115.941622 
L 110.33822 84.211506 
L 110.943016 74.85724 
L 111.547812 84.570554 
L 112.152608 76.765621 
L 112.757404 80.633307 
L 113.3622 64.842135 
L 113.966996 79.405769 
L 114.571792 97.274057 
L 115.176589 69.406412 
L 116.386181 97.729995 
L 116.990977 66.737964 
L 117.595773 66.879315 
L 118.200569 54.757023 
L 118.805365 78.633303 
L 119.410161 86.548485 
L 120.014957 84.340762 
L 120.619753 74.929245 
L 121.22455 89.450853 
L 121.829346 94.044238 
L 122.434142 89.098637 
L 123.038938 95.63148 
L 123.643734 83.089713 
L 124.24853 85.140129 
L 124.853326 95.555376 
L 125.458122 85.339244 
L 126.062918 68.503362 
L 126.667714 78.90913 
L 127.27251 93.593111 
L 127.877307 103.019658 
L 128.482103 86.365996 
L 129.086899 88.002227 
L 129.691695 81.267409 
L 130.296491 55.847472 
L 130.901287 86.47099 
L 131.506083 54.62318 
L 132.110879 90.495211 
L 132.715675 97.173522 
L 133.320471 97.621598 
L 133.925268 79.773918 
L 134.530064 70.680684 
L 135.13486 82.01826 
L 135.739656 84.012012 
L 136.344452 83.083951 
L 136.949248 71.449879 
L 137.554044 104.767023 
L 138.15884 83.008129 
L 138.763636 77.398872 
L 139.973229 93.417363 
L 140.578025 85.075898 
L 141.182821 73.423612 
L 141.787617 81.229386 
L 142.392413 95.260063 
L 142.997209 79.902845 
L 143.602005 77.970989 
L 144.206801 82.84793 
L 144.811597 97.841988 
L 145.416393 92.205505 
L 146.02119 92.404866 
L 146.625986 91.23969 
L 147.230782 88.904608 
L 147.835578 93.18387 
L 148.440374 81.892462 
L 149.04517 94.924558 
L 149.649966 101.337893 
L 150.254762 96.851168 
L 150.859558 73.096369 
L 151.464354 91.56889 
L 152.673947 81.6078 
L 153.278743 81.00284 
L 153.883539 63.465199 
L 154.488335 94.966201 
L 155.093131 84.235846 
L 155.697927 68.054616 
L 156.302723 79.894701 
L 156.907519 81.224217 
L 157.512315 90.336115 
L 158.117112 84.072355 
L 158.721908 90.261563 
L 159.326704 80.491347 
L 159.9315 102.440104 
L 161.141092 80.945017 
L 161.745888 98.607383 
L 162.350684 86.104242 
L 162.95548 60.171703 
L 163.560276 110.52297 
L 164.165072 69.797255 
L 164.769869 81.808119 
L 165.374665 71.82704 
L 165.979461 68.65567 
L 166.584257 99.733425 
L 167.189053 70.87122 
L 167.793849 63.219615 
L 168.398645 81.059958 
L 169.003441 94.812225 
L 170.213033 67.628607 
L 170.81783 97.140001 
L 171.422626 95.707846 
L 172.027422 67.029674 
L 173.237014 86.344341 
L 173.84181 78.290817 
L 174.446606 91.837384 
L 175.051402 84.36544 
L 175.656198 84.871244 
L 176.260994 88.489683 
L 176.865791 86.852742 
L 177.470587 88.133879 
L 178.075383 72.677956 
L 178.680179 78.627695 
L 179.284975 74.65162 
L 179.889771 75.539782 
L 180.494567 97.639077 
L 181.099363 73.810598 
L 181.704159 74.501597 
L 182.308955 87.646553 
L 182.913752 83.66544 
L 184.123344 98.080631 
L 184.72814 95.070369 
L 185.332936 82.718364 
L 185.937732 76.787694 
L 186.542528 84.478792 
L 187.147324 87.109545 
L 187.75212 77.284967 
L 188.356916 88.477245 
L 188.961713 70.672766 
L 189.566509 78.750335 
L 190.171305 57.441986 
L 190.776101 77.389578 
L 191.380897 75.930132 
L 192.590489 82.351147 
L 193.195285 93.150743 
L 193.800081 108.620553 
L 194.404877 81.082231 
L 195.009673 80.788423 
L 195.61447 85.164907 
L 196.219266 83.119187 
L 196.824062 87.88447 
L 197.428858 86.811417 
L 198.033654 88.851912 
L 198.63845 88.946233 
L 199.243246 80.867028 
L 199.848042 76.874474 
L 200.452838 110.051549 
L 201.057634 93.798786 
L 201.662431 82.605778 
L 202.267227 90.67876 
L 202.872023 88.632311 
L 203.476819 82.693835 
L 204.081615 72.474148 
L 204.686411 78.212257 
L 205.291207 92.123963 
L 205.896003 93.191886 
L 206.500799 88.227249 
L 207.105595 78.981526 
L 207.710392 76.352657 
L 208.315188 105.639395 
L 208.919984 87.442681 
L 210.129576 72.456912 
L 210.734372 75.278697 
L 211.339168 92.501712 
L 211.943964 74.890766 
L 212.54876 77.908479 
L 212.54876 77.908479 
" clip-path="url(#p143f962909)" style="fill: none; stroke: #1f77b4; stroke-width: 1.5; stroke-linecap: square"/>
   </g>
   <g id="patch_3">
    <path d="M 57.6 119.740235 
L 57.6 41.472 
" style="fill: none; stroke: #000000; stroke-width: 0.8; stroke-linejoin: miter; stroke-linecap: square"/>
   </g>
   <g id="patch_4">
    <path d="M 57.6 119.740235 
L 219.927273 119.740235 
" style="fill: none; stroke: #000000; stroke-width: 0.8; stroke-linejoin: miter; stroke-linecap: square"/>
   </g>
  </g>
  <g id="axes_2">
   <g id="patch_5">
    <path d="M 252.392727 119.740235 
L 414.72 119.740235 
L 414.72 41.472 
L 252.392727 41.472 
z
" style="fill: #ffffff"/>
   </g>
   <g id="matplotlib.axis_3">
    <g id="xtick_4">
     <g id="line2d_8">
      <g>
       <use xlink:href="#mf4a588ad0c" x="256.747259" y="119.740235" style="stroke: #000000; stroke-width: 0.8"/>
      </g>
     </g>
    </g>
    <g id="xtick_5">
     <g id="line2d_9">
      <g>
       <use xlink:href="#mf4a588ad0c" x="317.226869" y="119.740235" style="stroke: #000000; stroke-width: 0.8"/>
      </g>
     </g>
    </g>
    <g id="xtick_6">
     <g id="line2d_10">
      <g>
       <use xlink:href="#mf4a588ad0c" x="377.706479" y="119.740235" style="stroke: #000000; stroke-width: 0.8"/>
      </g>
     </g>
    </g>
   </g>
   <g id="matplotlib.axis_4">
    <g id="ytick_4">
     <g id="line2d_11">
      <g>
       <use xlink:href="#mffcbda90e3" x="252.392727" y="108.566075" style="stroke: #000000; stroke-width: 0.8"/>
      </g>
     </g>
    </g>
    <g id="ytick_5">
     <g id="line2d_12">
      <g>
       <use xlink:href="#mffcbda90e3" x="252.392727" y="84.006128" style="stroke: #000000; stroke-width: 0.8"/>
      </g>
     </g>
    </g>
    <g id="ytick_6">
     <g id="line2d_13">
      <g>
       <use xlink:href="#mffcbda90e3" x="252.392727" y="59.446181" style="stroke: #000000; stroke-width: 0.8"/>
      </g>
     </g>
    </g>
   </g>
   <g id="line2d_14">
    <path d="M 259.77124 86.394028 
L 260.376036 78.968406 
L 260.980832 88.246795 
L 261.585628 89.229002 
L 262.190424 90.524977 
L 262.79522 77.611763 
L 263.400016 92.709455 
L 264.004812 99.199539 
L 264.609608 81.106768 
L 265.214405 82.41473 
L 265.819201 85.592154 
L 266.423997 75.389938 
L 267.028793 75.770814 
L 268.238385 91.684018 
L 268.843181 80.660074 
L 269.447977 80.633941 
L 270.052773 89.427128 
L 270.657569 79.861007 
L 271.262366 87.724101 
L 271.867162 89.468509 
L 272.471958 90.38466 
L 273.076754 79.995262 
L 273.68155 87.553534 
L 274.286346 91.275068 
L 274.891142 87.736554 
L 275.495938 79.11637 
L 276.100734 76.617843 
L 276.70553 71.319708 
L 277.310327 83.450234 
L 277.915123 65.602469 
L 278.519919 85.515317 
L 279.729511 77.210958 
L 280.334307 84.159809 
L 280.939103 81.358418 
L 281.543899 77.001795 
L 282.148695 83.745557 
L 282.753491 80.427706 
L 283.358287 75.035782 
L 283.963084 94.748303 
L 284.56788 79.710114 
L 285.172676 74.527212 
L 285.777472 95.382204 
L 286.382268 74.121133 
L 286.987064 70.391575 
L 288.196656 89.074348 
L 288.801452 83.893056 
L 289.406248 73.213883 
L 290.011045 86.601252 
L 290.615841 96.15039 
L 291.220637 93.251235 
L 291.825433 94.086395 
L 292.430229 95.128822 
L 293.035025 91.191712 
L 293.639821 89.9514 
L 294.244617 101.366391 
L 294.849413 86.121062 
L 295.454209 81.871166 
L 296.059006 76.479651 
L 296.663802 89.759849 
L 297.268598 98.993738 
L 297.873394 79.699799 
L 298.47819 81.774517 
L 299.082986 89.035176 
L 299.687782 87.996169 
L 300.292578 92.765402 
L 300.897374 74.193281 
L 301.50217 69.624355 
L 302.106967 83.519175 
L 302.711763 85.898267 
L 303.316559 89.209776 
L 304.526151 82.862106 
L 305.130947 87.829453 
L 305.735743 89.372125 
L 306.340539 94.025374 
L 306.945335 94.112754 
L 308.154928 84.427879 
L 308.759724 92.912876 
L 309.36452 80.130445 
L 309.969316 92.450082 
L 310.574112 90.141221 
L 311.178908 107.125156 
L 311.783704 86.03637 
L 312.3885 85.588826 
L 312.993296 82.338353 
L 313.598092 63.732962 
L 314.202888 66.49479 
L 315.412481 53.339346 
L 316.017277 68.646201 
L 316.622073 61.440145 
L 317.226869 65.331266 
L 317.831665 74.095407 
L 318.436461 80.989739 
L 319.041257 77.61167 
L 319.646053 60.849094 
L 320.250849 78.420061 
L 320.855646 70.884355 
L 321.460442 94.466295 
L 322.065238 66.177818 
L 322.670034 79.380379 
L 323.27483 76.604726 
L 323.879626 94.469263 
L 324.484422 89.405229 
L 325.089218 91.184518 
L 325.694014 86.943934 
L 326.29881 81.351495 
L 326.903607 82.705948 
L 327.508403 71.297586 
L 328.113199 93.807107 
L 328.717995 79.07224 
L 329.322791 96.906591 
L 329.927587 80.193553 
L 330.532383 84.327566 
L 331.137179 75.179757 
L 331.741975 85.011658 
L 332.346771 85.503556 
L 332.951568 92.630589 
L 333.556364 95.189318 
L 334.16116 82.391249 
L 334.765956 97.908764 
L 335.370752 80.849358 
L 335.975548 88.163495 
L 336.580344 72.755427 
L 337.18514 88.774773 
L 337.789936 85.909997 
L 338.394732 86.775277 
L 338.999529 97.802128 
L 339.604325 87.351317 
L 340.209121 82.082685 
L 340.813917 86.456784 
L 341.418713 89.477646 
L 342.023509 87.929431 
L 342.628305 97.68354 
L 343.233101 90.523996 
L 343.837897 88.442565 
L 344.442693 94.966182 
L 345.04749 90.800079 
L 345.652286 92.645539 
L 346.257082 91.27009 
L 346.861878 94.868743 
L 347.466674 95.35011 
L 348.07147 99.871854 
L 348.676266 97.126802 
L 349.281062 96.658521 
L 349.885858 85.292607 
L 350.490654 104.834216 
L 351.09545 96.050601 
L 351.700247 97.116191 
L 352.305043 92.470679 
L 352.909839 102.549806 
L 353.514635 104.84302 
L 354.119431 83.478809 
L 354.724227 97.482338 
L 355.329023 103.907259 
L 355.933819 94.35098 
L 356.538615 100.037683 
L 357.143411 93.788741 
L 357.748208 80.272174 
L 358.353004 82.205894 
L 358.9578 80.710073 
L 359.562596 77.859357 
L 360.167392 60.375609 
L 360.772188 54.711202 
L 361.376984 68.12753 
L 361.98178 65.977044 
L 362.586576 60.500422 
L 363.191372 64.664484 
L 363.796169 79.713994 
L 364.400965 67.578149 
L 365.005761 77.531023 
L 365.610557 59.468551 
L 366.215353 75.424213 
L 366.820149 78.613466 
L 367.424945 80.965779 
L 368.029741 82.792303 
L 368.634537 68.014055 
L 369.239333 77.502574 
L 369.84413 78.685012 
L 370.448926 64.196128 
L 371.053722 70.75806 
L 371.658518 75.237845 
L 372.263314 81.473624 
L 372.86811 79.403045 
L 373.472906 83.03028 
L 374.077702 69.3261 
L 374.682498 81.859155 
L 375.287294 83.492255 
L 375.892091 101.507654 
L 376.496887 94.307557 
L 377.101683 89.381685 
L 377.706479 90.879385 
L 378.311275 92.783971 
L 378.916071 72.066214 
L 379.520867 86.50646 
L 380.125663 80.710159 
L 380.730459 81.959562 
L 381.335255 77.080269 
L 381.940051 83.810911 
L 382.544848 80.574549 
L 383.149644 88.014397 
L 383.75444 80.922791 
L 384.359236 78.905592 
L 384.964032 79.265636 
L 385.568828 85.322388 
L 386.173624 87.3247 
L 386.77842 102.596264 
L 387.383216 89.124347 
L 387.988012 91.307476 
L 389.197605 79.567769 
L 389.802401 83.176039 
L 390.407197 81.795867 
L 391.011993 90.053835 
L 391.616789 80.771315 
L 392.221585 92.433941 
L 392.826381 81.265482 
L 393.431177 89.278563 
L 394.035973 93.962631 
L 394.64077 93.969076 
L 395.245566 93.862183 
L 395.850362 67.604409 
L 396.455158 89.884905 
L 397.059954 81.45007 
L 397.66475 86.802167 
L 398.269546 77.414012 
L 398.874342 80.360389 
L 399.479138 73.23448 
L 400.083934 89.231432 
L 400.688731 86.442247 
L 401.293527 91.319296 
L 401.898323 82.908053 
L 402.503119 83.096549 
L 403.107915 90.743643 
L 403.712711 95.89072 
L 404.317507 83.288677 
L 404.922303 75.551692 
L 405.527099 85.439115 
L 406.131895 80.274363 
L 406.736692 81.530528 
L 407.341488 85.058154 
L 407.341488 85.058154 
" clip-path="url(#p8658aedfd6)" style="fill: none; stroke: #1f77b4; stroke-width: 1.5; stroke-linecap: square"/>
   </g>
   <g id="patch_6">
    <path d="M 252.392727 119.740235 
L 252.392727 41.472 
" style="fill: none; stroke: #000000; stroke-width: 0.8; stroke-linejoin: miter; stroke-linecap: square"/>
   </g>
   <g id="patch_7">
    <path d="M 252.392727 119.740235 
L 414.72 119.740235 
" style="fill: none; stroke: #000000; stroke-width: 0.8; stroke-linejoin: miter; stroke-linecap: square"/>
   </g>
  </g>
  <g id="axes_3">
   <g id="patch_8">
    <path d="M 57.6 213.662118 
L 219.927273 213.662118 
L 219.927273 135.393882 
L 57.6 135.393882 
z
" style="fill: #ffffff"/>
   </g>
   <g id="matplotlib.axis_5">
    <g id="xtick_7">
     <g id="line2d_15">
      <g>
       <use xlink:href="#mf4a588ad0c" x="61.954532" y="213.662118" style="stroke: #000000; stroke-width: 0.8"/>
      </g>
     </g>
    </g>
    <g id="xtick_8">
     <g id="line2d_16">
      <g>
       <use xlink:href="#mf4a588ad0c" x="122.434142" y="213.662118" style="stroke: #000000; stroke-width: 0.8"/>
      </g>
     </g>
    </g>
    <g id="xtick_9">
     <g id="line2d_17">
      <g>
       <use xlink:href="#mf4a588ad0c" x="182.913752" y="213.662118" style="stroke: #000000; stroke-width: 0.8"/>
      </g>
     </g>
    </g>
   </g>
   <g id="matplotlib.axis_6">
    <g id="ytick_7">
     <g id="line2d_18">
      <g>
       <use xlink:href="#mffcbda90e3" x="57.6" y="202.487958" style="stroke: #000000; stroke-width: 0.8"/>
      </g>
     </g>
     <g id="text_4">
      <!-- −0.25 -->
      <g transform="translate(19.954687 206.287176)scale(0.1 -0.1)">
       <use xlink:href="#DejaVuSans-2212"/>
       <use xlink:href="#DejaVuSans-30" x="83.789062"/>
       <use xlink:href="#DejaVuSans-2e" x="147.412109"/>
       <use xlink:href="#DejaVuSans-32" x="179.199219"/>
       <use xlink:href="#DejaVuSans-35" x="242.822266"/>
      </g>
     </g>
    </g>
    <g id="ytick_8">
     <g id="line2d_19">
      <g>
       <use xlink:href="#mffcbda90e3" x="57.6" y="177.928011" style="stroke: #000000; stroke-width: 0.8"/>
      </g>
     </g>
     <g id="text_5">
      <!-- 0.00 -->
      <g transform="translate(28.334375 181.727229)scale(0.1 -0.1)">
       <use xlink:href="#DejaVuSans-30"/>
       <use xlink:href="#DejaVuSans-2e" x="63.623047"/>
       <use xlink:href="#DejaVuSans-30" x="95.410156"/>
       <use xlink:href="#DejaVuSans-30" x="159.033203"/>
      </g>
     </g>
    </g>
    <g id="ytick_9">
     <g id="line2d_20">
      <g>
       <use xlink:href="#mffcbda90e3" x="57.6" y="153.368063" style="stroke: #000000; stroke-width: 0.8"/>
      </g>
     </g>
     <g id="text_6">
      <!-- 0.25 -->
      <g transform="translate(28.334375 157.167282)scale(0.1 -0.1)">
       <use xlink:href="#DejaVuSans-30"/>
       <use xlink:href="#DejaVuSans-2e" x="63.623047"/>
       <use xlink:href="#DejaVuSans-32" x="95.410156"/>
       <use xlink:href="#DejaVuSans-35" x="159.033203"/>
      </g>
     </g>
    </g>
    <g id="text_7">
     <!-- $\Delta F/F$ (%) -->
     <g transform="translate(13.875 195.628)rotate(-90)scale(0.1 -0.1)">
      <defs>
       <path id="DejaVuSans-394" d="M 2188 4044 
L 906 525 
L 3472 525 
L 2188 4044 
z
M 50 0 
L 1831 4666 
L 2547 4666 
L 4325 0 
L 50 0 
z
" transform="scale(0.015625)"/>
       <path id="DejaVuSans-Oblique-46" d="M 1081 4666 
L 3756 4666 
L 3653 4134 
L 1606 4134 
L 1338 2759 
L 3188 2759 
L 3084 2228 
L 1234 2228 
L 800 0 
L 172 0 
L 1081 4666 
z
" transform="scale(0.015625)"/>
       <path id="DejaVuSans-2f" d="M 1625 4666 
L 2156 4666 
L 531 -594 
L 0 -594 
L 1625 4666 
z
" transform="scale(0.015625)"/>
       <path id="DejaVuSans-20" transform="scale(0.015625)"/>
       <path id="DejaVuSans-28" d="M 1984 4856 
Q 1566 4138 1362 3434 
Q 1159 2731 1159 2009 
Q 1159 1288 1364 580 
Q 1569 -128 1984 -844 
L 1484 -844 
Q 1016 -109 783 600 
Q 550 1309 550 2009 
Q 550 2706 781 3412 
Q 1013 4119 1484 4856 
L 1984 4856 
z
" transform="scale(0.015625)"/>
       <path id="DejaVuSans-25" d="M 4653 2053 
Q 4381 2053 4226 1822 
Q 4072 1591 4072 1178 
Q 4072 772 4226 539 
Q 4381 306 4653 306 
Q 4919 306 5073 539 
Q 5228 772 5228 1178 
Q 5228 1588 5073 1820 
Q 4919 2053 4653 2053 
z
M 4653 2450 
Q 5147 2450 5437 2106 
Q 5728 1763 5728 1178 
Q 5728 594 5436 251 
Q 5144 -91 4653 -91 
Q 4153 -91 3862 251 
Q 3572 594 3572 1178 
Q 3572 1766 3864 2108 
Q 4156 2450 4653 2450 
z
M 1428 4353 
Q 1159 4353 1004 4120 
Q 850 3888 850 3481 
Q 850 3069 1003 2837 
Q 1156 2606 1428 2606 
Q 1700 2606 1854 2837 
Q 2009 3069 2009 3481 
Q 2009 3884 1853 4118 
Q 1697 4353 1428 4353 
z
M 4250 4750 
L 4750 4750 
L 1831 -91 
L 1331 -91 
L 4250 4750 
z
M 1428 4750 
Q 1922 4750 2215 4408 
Q 2509 4066 2509 3481 
Q 2509 2891 2217 2550 
Q 1925 2209 1428 2209 
Q 931 2209 642 2551 
Q 353 2894 353 3481 
Q 353 4063 643 4406 
Q 934 4750 1428 4750 
z
" transform="scale(0.015625)"/>
       <path id="DejaVuSans-29" d="M 513 4856 
L 1013 4856 
Q 1481 4119 1714 3412 
Q 1947 2706 1947 2009 
Q 1947 1309 1714 600 
Q 1481 -109 1013 -844 
L 513 -844 
Q 928 -128 1133 580 
Q 1338 1288 1338 2009 
Q 1338 2731 1133 3434 
Q 928 4138 513 4856 
z
" transform="scale(0.015625)"/>
      </defs>
      <use xlink:href="#DejaVuSans-394" transform="translate(0 0.125)"/>
      <use xlink:href="#DejaVuSans-Oblique-46" transform="translate(68.408203 0.125)"/>
      <use xlink:href="#DejaVuSans-2f" transform="translate(125.927734 0.125)"/>
      <use xlink:href="#DejaVuSans-Oblique-46" transform="translate(159.619141 0.125)"/>
      <use xlink:href="#DejaVuSans-20" transform="translate(217.138672 0.125)"/>
      <use xlink:href="#DejaVuSans-28" transform="translate(248.925781 0.125)"/>
      <use xlink:href="#DejaVuSans-25" transform="translate(287.939453 0.125)"/>
      <use xlink:href="#DejaVuSans-29" transform="translate(382.958984 0.125)"/>
     </g>
    </g>
   </g>
   <g id="line2d_21">
    <path d="M 64.978512 171.525025 
L 65.583308 195.484556 
L 66.188105 187.880628 
L 66.792901 177.17242 
L 67.397697 174.503644 
L 68.002493 182.103115 
L 68.607289 180.941047 
L 69.212085 192.19041 
L 69.816881 181.04891 
L 70.421677 175.032808 
L 71.026473 182.199889 
L 71.631269 174.691192 
L 72.236066 184.308985 
L 72.840862 184.565831 
L 73.445658 166.118323 
L 74.050454 177.741319 
L 74.65525 173.917507 
L 75.260046 178.305741 
L 75.864842 180.448251 
L 76.469638 178.202125 
L 77.074434 183.482553 
L 77.67923 170.316419 
L 78.284027 183.106854 
L 78.888823 171.021896 
L 80.098415 186.405409 
L 81.308007 165.121305 
L 81.912803 159.726853 
L 82.517599 176.603634 
L 83.122395 169.891457 
L 83.727191 174.307073 
L 84.331988 182.735801 
L 84.936784 180.948185 
L 86.146376 172.526048 
L 86.751172 190.321953 
L 87.355968 174.328831 
L 87.960764 173.921584 
L 88.56556 181.471207 
L 89.170356 170.404542 
L 89.775152 172.695298 
L 90.379949 171.456694 
L 90.984745 173.203553 
L 91.589541 172.021273 
L 92.194337 172.110233 
L 92.799133 182.899741 
L 93.403929 184.159929 
L 94.008725 174.776526 
L 94.613521 178.065504 
L 95.218317 164.4535 
L 95.823113 177.829325 
L 96.427909 175.247269 
L 97.032706 178.480344 
L 97.637502 179.128063 
L 98.242298 182.933768 
L 98.847094 185.268661 
L 99.45189 169.417401 
L 100.056686 183.469086 
L 100.661482 169.476982 
L 101.266278 172.787139 
L 101.871074 180.455906 
L 102.47587 173.624939 
L 103.685463 183.068722 
L 104.290259 165.741352 
L 104.895055 174.203081 
L 105.499851 172.794416 
L 106.104647 181.831123 
L 106.709443 167.796711 
L 107.314239 182.037644 
L 107.919035 178.436569 
L 108.523831 173.709006 
L 109.128628 178.827225 
L 109.733424 193.962757 
L 110.33822 182.856066 
L 110.943016 177.652302 
L 111.547812 183.580482 
L 112.152608 183.325228 
L 112.757404 184.858602 
L 113.3622 184.066129 
L 113.966996 182.40514 
L 114.571792 176.27548 
L 115.176589 176.992299 
L 115.781385 170.068982 
L 116.386181 180.193023 
L 117.595773 170.835154 
L 118.200569 179.298196 
L 118.805365 168.635051 
L 119.410161 168.933585 
L 120.014957 171.107552 
L 120.619753 183.557616 
L 121.22455 171.995806 
L 121.829346 173.710479 
L 122.434142 180.386872 
L 123.038938 179.424211 
L 123.643734 173.137031 
L 124.24853 174.383445 
L 124.853326 164.305109 
L 125.458122 185.676472 
L 126.062918 187.065529 
L 126.667714 174.558504 
L 127.27251 176.528856 
L 127.877307 183.80462 
L 128.482103 184.642225 
L 129.086899 173.469951 
L 129.691695 171.289326 
L 130.296491 197.473196 
L 130.901287 186.617172 
L 132.110879 175.336983 
L 132.715675 184.085057 
L 133.320471 172.080427 
L 133.925268 187.06931 
L 134.530064 175.0481 
L 135.13486 186.077456 
L 135.739656 172.239903 
L 136.344452 176.481328 
L 136.949248 184.229395 
L 137.554044 184.254855 
L 138.15884 171.157427 
L 138.763636 189.511683 
L 139.368432 174.598995 
L 139.973229 179.22307 
L 140.578025 174.753466 
L 141.182821 185.963398 
L 141.787617 183.193783 
L 142.392413 184.188782 
L 142.997209 184.662479 
L 143.602005 185.643606 
L 144.206801 176.931554 
L 144.811597 180.470773 
L 145.416393 182.803289 
L 146.02119 176.900141 
L 146.625986 177.505283 
L 147.230782 167.989098 
L 147.835578 188.382987 
L 148.440374 172.853962 
L 149.04517 199.836055 
L 149.649966 177.008748 
L 150.254762 185.120519 
L 150.859558 181.13994 
L 151.464354 182.982613 
L 152.069151 188.934226 
L 152.673947 182.79376 
L 153.278743 177.847928 
L 153.883539 184.040359 
L 154.488335 184.484273 
L 155.093131 179.3512 
L 155.697927 173.184399 
L 156.302723 188.44264 
L 157.512315 167.512403 
L 158.117112 184.642041 
L 158.721908 163.878735 
L 159.326704 183.827959 
L 159.9315 179.599643 
L 160.536296 171.509557 
L 161.141092 187.073959 
L 161.745888 172.717843 
L 162.350684 172.158579 
L 162.95548 171.938191 
L 163.560276 170.94241 
L 164.165072 174.571693 
L 164.769869 175.282759 
L 165.979461 162.378788 
L 166.584257 174.051377 
L 167.189053 175.691337 
L 167.793849 180.671101 
L 168.398645 170.303766 
L 169.003441 176.991641 
L 169.608237 178.190416 
L 170.213033 167.042568 
L 170.81783 178.26485 
L 171.422626 176.79781 
L 172.027422 181.15709 
L 172.632218 189.542658 
L 173.237014 180.867447 
L 174.446606 161.024092 
L 175.051402 178.915263 
L 175.656198 177.34585 
L 176.260994 176.28874 
L 176.865791 182.773076 
L 177.470587 183.769485 
L 178.075383 189.135874 
L 178.680179 168.61312 
L 179.284975 184.091264 
L 179.889771 170.937401 
L 180.494567 176.812025 
L 181.099363 168.027207 
L 181.704159 179.2997 
L 182.308955 187.485151 
L 182.913752 174.75386 
L 183.518548 178.651344 
L 184.123344 171.147202 
L 184.72814 175.043087 
L 185.332936 182.881435 
L 185.937732 167.831928 
L 186.542528 187.67004 
L 187.147324 178.534346 
L 187.75212 179.170447 
L 188.356916 172.520121 
L 188.961713 171.784364 
L 189.566509 175.677463 
L 190.171305 177.084735 
L 190.776101 179.606517 
L 191.380897 176.642447 
L 191.985693 161.420724 
L 192.590489 181.344684 
L 193.195285 176.753188 
L 193.800081 176.191138 
L 194.404877 162.000274 
L 195.009673 182.269692 
L 195.61447 173.566568 
L 196.219266 174.2079 
L 196.824062 175.107444 
L 197.428858 184.151544 
L 198.033654 188.996587 
L 198.63845 176.52748 
L 199.243246 188.747189 
L 199.848042 177.652518 
L 200.452838 178.47454 
L 201.057634 179.984006 
L 201.662431 178.66648 
L 202.267227 176.750775 
L 202.872023 170.722456 
L 203.476819 185.354738 
L 204.081615 172.987304 
L 205.291207 172.175122 
L 205.896003 168.986688 
L 206.500799 192.716876 
L 207.105595 166.73196 
L 207.710392 180.60959 
L 208.315188 182.746325 
L 208.919984 170.99925 
L 209.52478 195.343307 
L 210.129576 186.173818 
L 210.734372 174.264412 
L 211.339168 173.158961 
L 211.943964 184.82912 
L 212.54876 190.930866 
L 212.54876 190.930866 
" clip-path="url(#p1592490fbd)" style="fill: none; stroke: #1f77b4; stroke-width: 1.5; stroke-linecap: square"/>
   </g>
   <g id="patch_9">
    <path d="M 57.6 213.662118 
L 57.6 135.393882 
" style="fill: none; stroke: #000000; stroke-width: 0.8; stroke-linejoin: miter; stroke-linecap: square"/>
   </g>
   <g id="patch_10">
    <path d="M 57.6 213.662118 
L 219.927273 213.662118 
" style="fill: none; stroke: #000000; stroke-width: 0.8; stroke-linejoin: miter; stroke-linecap: square"/>
   </g>
  </g>
  <g id="axes_4">
   <g id="patch_11">
    <path d="M 252.392727 213.662118 
L 414.72 213.662118 
L 414.72 135.393882 
L 252.392727 135.393882 
z
" style="fill: #ffffff"/>
   </g>
   <g id="matplotlib.axis_7">
    <g id="xtick_10">
     <g id="line2d_22">
      <g>
       <use xlink:href="#mf4a588ad0c" x="256.747259" y="213.662118" style="stroke: #000000; stroke-width: 0.8"/>
      </g>
     </g>
    </g>
    <g id="xtick_11">
     <g id="line2d_23">
      <g>
       <use xlink:href="#mf4a588ad0c" x="317.226869" y="213.662118" style="stroke: #000000; stroke-width: 0.8"/>
      </g>
     </g>
    </g>
    <g id="xtick_12">
     <g id="line2d_24">
      <g>
       <use xlink:href="#mf4a588ad0c" x="377.706479" y="213.662118" style="stroke: #000000; stroke-width: 0.8"/>
      </g>
     </g>
    </g>
   </g>
   <g id="matplotlib.axis_8">
    <g id="ytick_10">
     <g id="line2d_25">
      <g>
       <use xlink:href="#mffcbda90e3" x="252.392727" y="202.487958" style="stroke: #000000; stroke-width: 0.8"/>
      </g>
     </g>
    </g>
    <g id="ytick_11">
     <g id="line2d_26">
      <g>
       <use xlink:href="#mffcbda90e3" x="252.392727" y="177.928011" style="stroke: #000000; stroke-width: 0.8"/>
      </g>
     </g>
    </g>
    <g id="ytick_12">
     <g id="line2d_27">
      <g>
       <use xlink:href="#mffcbda90e3" x="252.392727" y="153.368063" style="stroke: #000000; stroke-width: 0.8"/>
      </g>
     </g>
    </g>
   </g>
   <g id="line2d_28">
    <path d="M 259.77124 182.383318 
L 260.376036 201.194751 
L 260.980832 172.359617 
L 261.585628 181.067868 
L 262.190424 179.853971 
L 262.79522 168.717906 
L 263.400016 162.536906 
L 264.004812 178.490633 
L 264.609608 174.426856 
L 265.214405 160.263725 
L 265.819201 178.861872 
L 267.028793 198.689005 
L 267.633589 177.247856 
L 268.238385 162.001387 
L 268.843181 177.92211 
L 269.447977 183.743342 
L 270.052773 185.84103 
L 270.657569 190.236899 
L 271.262366 168.593309 
L 271.867162 181.481905 
L 272.471958 166.914122 
L 273.076754 161.020408 
L 273.68155 185.40818 
L 274.286346 178.088871 
L 274.891142 187.590639 
L 275.495938 184.867404 
L 276.100734 178.420431 
L 276.70553 167.187042 
L 277.310327 180.744609 
L 277.915123 167.554063 
L 278.519919 181.456867 
L 279.124715 175.695926 
L 279.729511 190.652331 
L 280.334307 173.370132 
L 280.939103 171.846158 
L 281.543899 165.535612 
L 282.148695 178.171234 
L 282.753491 193.635982 
L 283.358287 169.423405 
L 283.963084 168.938912 
L 284.56788 167.387064 
L 285.172676 178.051102 
L 285.777472 160.727007 
L 286.382268 173.152663 
L 286.987064 172.644509 
L 287.59186 186.831705 
L 288.196656 183.303079 
L 288.801452 175.164761 
L 289.406248 161.885402 
L 290.011045 185.794303 
L 290.615841 184.194459 
L 291.220637 177.984846 
L 291.825433 190.012652 
L 292.430229 194.596888 
L 293.035025 167.473447 
L 293.639821 175.41283 
L 294.244617 185.472533 
L 294.849413 172.148677 
L 295.454209 178.124785 
L 296.059006 181.262072 
L 296.663802 176.247213 
L 297.268598 181.145424 
L 297.873394 190.643381 
L 298.47819 183.133629 
L 299.082986 181.994685 
L 299.687782 194.842267 
L 300.292578 193.870064 
L 300.897374 188.819114 
L 301.50217 169.062791 
L 302.106967 193.047418 
L 302.711763 168.675707 
L 303.316559 180.074953 
L 303.921355 184.738703 
L 304.526151 199.315292 
L 305.130947 188.382673 
L 305.735743 182.40377 
L 306.340539 185.983427 
L 306.945335 183.358824 
L 307.550131 177.540812 
L 308.154928 187.303048 
L 308.759724 177.931925 
L 309.36452 204.508676 
L 309.969316 189.104823 
L 310.574112 185.030496 
L 311.178908 175.105994 
L 311.783704 194.753324 
L 312.3885 187.297224 
L 312.993296 169.386028 
L 314.202888 145.41314 
L 314.807685 164.67816 
L 315.412481 138.951529 
L 316.017277 148.1099 
L 316.622073 161.86742 
L 317.226869 157.553973 
L 317.831665 175.37354 
L 318.436461 153.160444 
L 319.041257 163.529821 
L 319.646053 165.037881 
L 320.250849 163.706349 
L 320.855646 176.537779 
L 321.460442 153.764203 
L 322.065238 160.916352 
L 322.670034 160.092639 
L 323.27483 162.628091 
L 323.879626 182.160171 
L 324.484422 171.754674 
L 325.089218 169.313148 
L 325.694014 168.636721 
L 326.29881 173.444686 
L 326.903607 186.393674 
L 327.508403 188.355774 
L 328.113199 175.611652 
L 328.717995 182.697766 
L 329.322791 159.491928 
L 329.927587 183.391247 
L 330.532383 166.726189 
L 331.137179 192.384276 
L 331.741975 186.687673 
L 332.346771 170.712468 
L 332.951568 176.692685 
L 333.556364 181.072657 
L 334.16116 176.23663 
L 334.765956 185.03179 
L 335.370752 178.589168 
L 335.975548 184.183704 
L 336.580344 193.491203 
L 337.18514 183.487328 
L 337.789936 181.269911 
L 338.394732 199.059532 
L 338.999529 173.096522 
L 339.604325 179.715331 
L 340.209121 180.12882 
L 340.813917 191.339542 
L 341.418713 194.573804 
L 342.023509 179.382089 
L 342.628305 177.467092 
L 343.233101 197.86141 
L 343.837897 189.025975 
L 344.442693 174.870636 
L 345.04749 185.149875 
L 345.652286 181.607885 
L 346.257082 178.767678 
L 346.861878 201.955984 
L 347.466674 197.508412 
L 348.07147 189.157701 
L 348.676266 188.947321 
L 349.281062 176.863808 
L 349.885858 198.778668 
L 351.09545 196.893574 
L 351.700247 173.270693 
L 352.305043 191.438952 
L 352.909839 202.515937 
L 353.514635 196.406349 
L 354.119431 186.03921 
L 354.724227 206.836526 
L 355.933819 187.484414 
L 356.538615 191.61248 
L 357.143411 188.472026 
L 357.748208 196.128265 
L 358.353004 185.003788 
L 358.9578 162.182979 
L 359.562596 167.69271 
L 360.167392 158.140979 
L 360.772188 170.898005 
L 361.376984 162.217564 
L 361.98178 142.372027 
L 362.586576 162.900422 
L 363.191372 158.803312 
L 363.796169 157.709857 
L 365.005761 166.482049 
L 365.610557 166.6066 
L 366.215353 149.189954 
L 366.820149 174.803758 
L 367.424945 167.290635 
L 368.029741 156.227958 
L 368.634537 180.225717 
L 369.239333 176.586905 
L 369.84413 174.534676 
L 370.448926 166.984604 
L 371.053722 171.293463 
L 371.658518 167.97912 
L 372.263314 168.376604 
L 372.86811 180.455851 
L 373.472906 173.045458 
L 374.077702 175.014359 
L 374.682498 179.455239 
L 375.287294 153.071373 
L 375.892091 179.635835 
L 376.496887 177.677945 
L 377.101683 179.785948 
L 378.311275 190.17781 
L 378.916071 173.843323 
L 379.520867 180.348326 
L 380.125663 154.788659 
L 381.335255 198.577068 
L 381.940051 193.007521 
L 382.544848 173.61557 
L 383.149644 178.479874 
L 383.75444 168.990405 
L 384.359236 173.838986 
L 384.964032 185.941192 
L 385.568828 176.250942 
L 386.173624 175.054049 
L 387.383216 185.211218 
L 387.988012 191.074828 
L 388.592809 162.393956 
L 389.197605 168.064424 
L 389.802401 169.476205 
L 390.407197 182.21497 
L 391.011993 176.703308 
L 391.616789 187.831897 
L 392.221585 188.857086 
L 392.826381 171.631791 
L 393.431177 197.613208 
L 394.035973 183.205336 
L 394.64077 176.405 
L 395.245566 188.193011 
L 395.850362 184.387092 
L 396.455158 173.842733 
L 397.059954 176.042027 
L 397.66475 180.004127 
L 398.269546 177.581949 
L 398.874342 176.391208 
L 399.479138 178.380097 
L 400.688731 169.75792 
L 401.293527 178.27471 
L 401.898323 174.916691 
L 402.503119 181.468391 
L 403.107915 186.594742 
L 403.712711 200.568111 
L 404.317507 180.527829 
L 404.922303 178.012923 
L 405.527099 178.854565 
L 406.131895 177.385211 
L 406.736692 175.553052 
L 407.341488 159.72059 
L 407.341488 159.72059 
" clip-path="url(#p8a8b1e9374)" style="fill: none; stroke: #1f77b4; stroke-width: 1.5; stroke-linecap: square"/>
   </g>
   <g id="patch_12">
    <path d="M 252.392727 213.662118 
L 252.392727 135.393882 
" style="fill: none; stroke: #000000; stroke-width: 0.8; stroke-linejoin: miter; stroke-linecap: square"/>
   </g>
   <g id="patch_13">
    <path d="M 252.392727 213.662118 
L 414.72 213.662118 
" style="fill: none; stroke: #000000; stroke-width: 0.8; stroke-linejoin: miter; stroke-linecap: square"/>
   </g>
  </g>
  <g id="axes_5">
   <g id="patch_14">
    <path d="M 57.6 307.584 
L 219.927273 307.584 
L 219.927273 229.315765 
L 57.6 229.315765 
z
" style="fill: #ffffff"/>
   </g>
   <g id="matplotlib.axis_9">
    <g id="xtick_13">
     <g id="line2d_29">
      <g>
       <use xlink:href="#mf4a588ad0c" x="61.954532" y="307.584" style="stroke: #000000; stroke-width: 0.8"/>
      </g>
     </g>
     <g id="text_8">
      <!-- 0 -->
      <g transform="translate(58.773282 322.182437)scale(0.1 -0.1)">
       <use xlink:href="#DejaVuSans-30"/>
      </g>
     </g>
    </g>
    <g id="xtick_14">
     <g id="line2d_30">
      <g>
       <use xlink:href="#mf4a588ad0c" x="122.434142" y="307.584" style="stroke: #000000; stroke-width: 0.8"/>
      </g>
     </g>
     <g id="text_9">
      <!-- 1 -->
      <g transform="translate(119.252892 322.182437)scale(0.1 -0.1)">
       <defs>
        <path id="DejaVuSans-31" d="M 794 531 
L 1825 531 
L 1825 4091 
L 703 3866 
L 703 4441 
L 1819 4666 
L 2450 4666 
L 2450 531 
L 3481 531 
L 3481 0 
L 794 0 
L 794 531 
z
" transform="scale(0.015625)"/>
       </defs>
       <use xlink:href="#DejaVuSans-31"/>
      </g>
     </g>
    </g>
    <g id="xtick_15">
     <g id="line2d_31">
      <g>
       <use xlink:href="#mf4a588ad0c" x="182.913752" y="307.584" style="stroke: #000000; stroke-width: 0.8"/>
      </g>
     </g>
     <g id="text_10">
      <!-- 2 -->
      <g transform="translate(179.732502 322.182437)scale(0.1 -0.1)">
       <use xlink:href="#DejaVuSans-32"/>
      </g>
     </g>
    </g>
    <g id="text_11">
     <!-- time (s) -->
     <g transform="translate(119.37223 335.860562)scale(0.1 -0.1)">
      <defs>
       <path id="DejaVuSans-74" d="M 1172 4494 
L 1172 3500 
L 2356 3500 
L 2356 3053 
L 1172 3053 
L 1172 1153 
Q 1172 725 1289 603 
Q 1406 481 1766 481 
L 2356 481 
L 2356 0 
L 1766 0 
Q 1100 0 847 248 
Q 594 497 594 1153 
L 594 3053 
L 172 3053 
L 172 3500 
L 594 3500 
L 594 4494 
L 1172 4494 
z
" transform="scale(0.015625)"/>
       <path id="DejaVuSans-69" d="M 603 3500 
L 1178 3500 
L 1178 0 
L 603 0 
L 603 3500 
z
M 603 4863 
L 1178 4863 
L 1178 4134 
L 603 4134 
L 603 4863 
z
" transform="scale(0.015625)"/>
       <path id="DejaVuSans-6d" d="M 3328 2828 
Q 3544 3216 3844 3400 
Q 4144 3584 4550 3584 
Q 5097 3584 5394 3201 
Q 5691 2819 5691 2113 
L 5691 0 
L 5113 0 
L 5113 2094 
Q 5113 2597 4934 2840 
Q 4756 3084 4391 3084 
Q 3944 3084 3684 2787 
Q 3425 2491 3425 1978 
L 3425 0 
L 2847 0 
L 2847 2094 
Q 2847 2600 2669 2842 
Q 2491 3084 2119 3084 
Q 1678 3084 1418 2786 
Q 1159 2488 1159 1978 
L 1159 0 
L 581 0 
L 581 3500 
L 1159 3500 
L 1159 2956 
Q 1356 3278 1631 3431 
Q 1906 3584 2284 3584 
Q 2666 3584 2933 3390 
Q 3200 3197 3328 2828 
z
" transform="scale(0.015625)"/>
       <path id="DejaVuSans-65" d="M 3597 1894 
L 3597 1613 
L 953 1613 
Q 991 1019 1311 708 
Q 1631 397 2203 397 
Q 2534 397 2845 478 
Q 3156 559 3463 722 
L 3463 178 
Q 3153 47 2828 -22 
Q 2503 -91 2169 -91 
Q 1331 -91 842 396 
Q 353 884 353 1716 
Q 353 2575 817 3079 
Q 1281 3584 2069 3584 
Q 2775 3584 3186 3129 
Q 3597 2675 3597 1894 
z
M 3022 2063 
Q 3016 2534 2758 2815 
Q 2500 3097 2075 3097 
Q 1594 3097 1305 2825 
Q 1016 2553 972 2059 
L 3022 2063 
z
" transform="scale(0.015625)"/>
       <path id="DejaVuSans-73" d="M 2834 3397 
L 2834 2853 
Q 2591 2978 2328 3040 
Q 2066 3103 1784 3103 
Q 1356 3103 1142 2972 
Q 928 2841 928 2578 
Q 928 2378 1081 2264 
Q 1234 2150 1697 2047 
L 1894 2003 
Q 2506 1872 2764 1633 
Q 3022 1394 3022 966 
Q 3022 478 2636 193 
Q 2250 -91 1575 -91 
Q 1294 -91 989 -36 
Q 684 19 347 128 
L 347 722 
Q 666 556 975 473 
Q 1284 391 1588 391 
Q 1994 391 2212 530 
Q 2431 669 2431 922 
Q 2431 1156 2273 1281 
Q 2116 1406 1581 1522 
L 1381 1569 
Q 847 1681 609 1914 
Q 372 2147 372 2553 
Q 372 3047 722 3315 
Q 1072 3584 1716 3584 
Q 2034 3584 2315 3537 
Q 2597 3491 2834 3397 
z
" transform="scale(0.015625)"/>
      </defs>
      <use xlink:href="#DejaVuSans-74"/>
      <use xlink:href="#DejaVuSans-69" x="39.208984"/>
      <use xlink:href="#DejaVuSans-6d" x="66.992188"/>
      <use xlink:href="#DejaVuSans-65" x="164.404297"/>
      <use xlink:href="#DejaVuSans-20" x="225.927734"/>
      <use xlink:href="#DejaVuSans-28" x="257.714844"/>
      <use xlink:href="#DejaVuSans-73" x="296.728516"/>
      <use xlink:href="#DejaVuSans-29" x="348.828125"/>
     </g>
    </g>
   </g>
   <g id="matplotlib.axis_10">
    <g id="ytick_13">
     <g id="line2d_32">
      <g>
       <use xlink:href="#mffcbda90e3" x="57.6" y="296.40984" style="stroke: #000000; stroke-width: 0.8"/>
      </g>
     </g>
     <g id="text_12">
      <!-- −0.25 -->
      <g transform="translate(19.954687 300.209059)scale(0.1 -0.1)">
       <use xlink:href="#DejaVuSans-2212"/>
       <use xlink:href="#DejaVuSans-30" x="83.789062"/>
       <use xlink:href="#DejaVuSans-2e" x="147.412109"/>
       <use xlink:href="#DejaVuSans-32" x="179.199219"/>
       <use xlink:href="#DejaVuSans-35" x="242.822266"/>
      </g>
     </g>
    </g>
    <g id="ytick_14">
     <g id="line2d_33">
      <g>
       <use xlink:href="#mffcbda90e3" x="57.6" y="271.849893" style="stroke: #000000; stroke-width: 0.8"/>
      </g>
     </g>
     <g id="text_13">
      <!-- 0.00 -->
      <g transform="translate(28.334375 275.649112)scale(0.1 -0.1)">
       <use xlink:href="#DejaVuSans-30"/>
       <use xlink:href="#DejaVuSans-2e" x="63.623047"/>
       <use xlink:href="#DejaVuSans-30" x="95.410156"/>
       <use xlink:href="#DejaVuSans-30" x="159.033203"/>
      </g>
     </g>
    </g>
    <g id="ytick_15">
     <g id="line2d_34">
      <g>
       <use xlink:href="#mffcbda90e3" x="57.6" y="247.289946" style="stroke: #000000; stroke-width: 0.8"/>
      </g>
     </g>
     <g id="text_14">
      <!-- 0.25 -->
      <g transform="translate(28.334375 251.089164)scale(0.1 -0.1)">
       <use xlink:href="#DejaVuSans-30"/>
       <use xlink:href="#DejaVuSans-2e" x="63.623047"/>
       <use xlink:href="#DejaVuSans-32" x="95.410156"/>
       <use xlink:href="#DejaVuSans-35" x="159.033203"/>
      </g>
     </g>
    </g>
   </g>
   <g id="line2d_35">
    <path d="M 64.978512 265.446907 
L 65.583308 289.406439 
L 66.188105 281.80251 
L 66.792901 271.094302 
L 67.397697 268.425527 
L 68.002493 276.024997 
L 68.607289 274.862929 
L 69.212085 286.112292 
L 69.816881 274.970792 
L 70.421677 268.95469 
L 71.026473 276.121771 
L 71.631269 268.613074 
L 72.236066 278.230868 
L 72.840862 278.487714 
L 73.445658 260.040205 
L 74.050454 271.663201 
L 74.65525 267.83939 
L 75.260046 272.227623 
L 75.864842 274.370134 
L 76.469638 272.124007 
L 77.074434 277.404435 
L 77.67923 264.238302 
L 78.284027 277.028737 
L 78.888823 264.943779 
L 80.098415 280.327291 
L 81.308007 259.043188 
L 81.912803 253.648735 
L 82.517599 270.525517 
L 83.122395 263.813339 
L 83.727191 268.228956 
L 84.331988 276.657684 
L 84.936784 274.870067 
L 86.146376 266.447931 
L 86.751172 284.243835 
L 87.355968 268.250714 
L 87.960764 267.843466 
L 88.56556 275.393089 
L 89.170356 264.326424 
L 89.775152 266.61718 
L 90.379949 265.378576 
L 90.984745 267.125435 
L 91.589541 265.943155 
L 92.194337 266.032116 
L 92.799133 276.821623 
L 93.403929 278.081811 
L 94.008725 268.698408 
L 94.613521 271.987386 
L 95.218317 258.375383 
L 95.823113 271.751207 
L 96.427909 269.169151 
L 97.032706 272.402226 
L 97.637502 273.049946 
L 98.242298 276.855651 
L 98.847094 279.190543 
L 99.45189 263.339284 
L 100.056686 277.390969 
L 100.661482 263.398864 
L 101.266278 266.709022 
L 101.871074 274.377789 
L 102.47587 267.546821 
L 103.685463 276.990604 
L 104.290259 259.663234 
L 104.895055 268.124964 
L 105.499851 266.716298 
L 106.104647 275.753005 
L 106.709443 261.718593 
L 107.314239 275.959526 
L 107.919035 272.358451 
L 108.523831 267.630888 
L 109.128628 272.749107 
L 109.733424 287.884639 
L 110.33822 276.777949 
L 110.943016 271.574184 
L 111.547812 277.502365 
L 112.152608 277.24711 
L 112.757404 278.780485 
L 113.3622 277.988011 
L 113.966996 276.327023 
L 114.571792 270.197362 
L 115.176589 270.914182 
L 115.781385 263.990864 
L 116.386181 274.114905 
L 117.595773 264.757037 
L 118.200569 273.220078 
L 118.805365 262.556934 
L 119.410161 262.855468 
L 120.014957 265.029434 
L 120.619753 277.479498 
L 121.22455 265.917688 
L 121.829346 267.632362 
L 122.434142 274.308754 
L 123.038938 273.346093 
L 123.643734 267.058913 
L 124.24853 268.305327 
L 124.853326 258.226991 
L 125.458122 279.598354 
L 126.062918 280.987412 
L 126.667714 268.480386 
L 127.27251 270.450738 
L 127.877307 277.726503 
L 128.482103 278.564108 
L 129.086899 267.391833 
L 129.691695 265.211208 
L 130.296491 291.395078 
L 130.901287 280.539054 
L 132.110879 269.258866 
L 132.715675 278.006939 
L 133.320471 266.002309 
L 133.925268 280.991192 
L 134.530064 268.969982 
L 135.13486 279.999338 
L 135.739656 266.161785 
L 136.344452 270.40321 
L 136.949248 278.151278 
L 137.554044 278.176737 
L 138.15884 265.079309 
L 138.763636 283.433565 
L 139.368432 268.520878 
L 139.973229 273.144953 
L 140.578025 268.675349 
L 141.182821 279.885281 
L 141.787617 277.115665 
L 142.392413 278.110665 
L 142.997209 278.584362 
L 143.602005 279.565488 
L 144.206801 270.853436 
L 144.811597 274.392655 
L 145.416393 276.725172 
L 146.02119 270.822023 
L 146.625986 271.427166 
L 147.230782 261.91098 
L 147.835578 282.30487 
L 148.440374 266.775844 
L 149.04517 293.757937 
L 149.649966 270.930631 
L 150.254762 279.042402 
L 150.859558 275.061823 
L 151.464354 276.904496 
L 152.069151 282.856109 
L 152.673947 276.715642 
L 153.278743 271.76981 
L 153.883539 277.962241 
L 154.488335 278.406155 
L 155.093131 273.273082 
L 155.697927 267.106281 
L 156.302723 282.364523 
L 157.512315 261.434285 
L 158.117112 278.563923 
L 158.721908 257.800618 
L 159.326704 277.749841 
L 159.9315 273.521526 
L 160.536296 265.431439 
L 161.141092 280.995842 
L 161.745888 266.639726 
L 162.350684 266.080461 
L 162.95548 265.860074 
L 163.560276 264.864292 
L 164.165072 268.493576 
L 164.769869 269.204642 
L 165.979461 256.30067 
L 166.584257 267.97326 
L 167.189053 269.613219 
L 167.793849 274.592983 
L 168.398645 264.225648 
L 169.003441 270.913524 
L 169.608237 272.112298 
L 170.213033 260.96445 
L 170.81783 272.186733 
L 171.422626 270.719692 
L 172.027422 275.078972 
L 172.632218 283.464541 
L 173.237014 274.789329 
L 174.446606 254.945974 
L 175.051402 272.837145 
L 175.656198 271.267732 
L 176.260994 270.210622 
L 176.865791 276.694958 
L 177.470587 277.691367 
L 178.075383 283.057757 
L 178.680179 262.535002 
L 179.284975 278.013147 
L 179.889771 264.859283 
L 180.494567 270.733907 
L 181.099363 261.949089 
L 181.704159 273.221582 
L 182.308955 281.407034 
L 182.913752 268.675742 
L 183.518548 272.573226 
L 184.123344 265.069085 
L 184.72814 268.96497 
L 185.332936 276.803318 
L 185.937732 261.75381 
L 186.542528 281.591922 
L 187.147324 272.456228 
L 187.75212 273.092329 
L 188.356916 266.442004 
L 188.961713 265.706246 
L 189.566509 269.599345 
L 190.171305 271.006617 
L 190.776101 273.528399 
L 191.380897 270.56433 
L 191.985693 255.342606 
L 192.590489 275.266566 
L 193.195285 270.67507 
L 193.800081 270.113021 
L 194.404877 255.922156 
L 195.009673 276.191574 
L 195.61447 267.48845 
L 196.219266 268.129783 
L 196.824062 269.029327 
L 197.428858 278.073426 
L 198.033654 282.918469 
L 198.63845 270.449362 
L 199.243246 282.669071 
L 199.848042 271.5744 
L 200.452838 272.396423 
L 201.057634 273.905889 
L 201.662431 272.588362 
L 202.267227 270.672658 
L 202.872023 264.644339 
L 203.476819 279.27662 
L 204.081615 266.909187 
L 205.291207 266.097005 
L 205.896003 262.90857 
L 206.500799 286.638759 
L 207.105595 260.653842 
L 207.710392 274.531473 
L 208.315188 276.668207 
L 208.919984 264.921133 
L 209.52478 289.265189 
L 210.129576 280.095701 
L 210.734372 268.186294 
L 211.339168 267.080843 
L 211.943964 278.751002 
L 212.54876 284.852749 
L 212.54876 284.852749 
" clip-path="url(#p6e555c32a7)" style="fill: none; stroke: #1f77b4; stroke-width: 1.5; stroke-linecap: square"/>
   </g>
   <g id="patch_15">
    <path d="M 57.6 307.584 
L 57.6 229.315765 
" style="fill: none; stroke: #000000; stroke-width: 0.8; stroke-linejoin: miter; stroke-linecap: square"/>
   </g>
   <g id="patch_16">
    <path d="M 57.6 307.584 
L 219.927273 307.584 
" style="fill: none; stroke: #000000; stroke-width: 0.8; stroke-linejoin: miter; stroke-linecap: square"/>
   </g>
  </g>
  <g id="axes_6">
   <g id="patch_17">
    <path d="M 252.392727 307.584 
L 414.72 307.584 
L 414.72 229.315765 
L 252.392727 229.315765 
z
" style="fill: #ffffff"/>
   </g>
   <g id="matplotlib.axis_11">
    <g id="xtick_16">
     <g id="line2d_36">
      <g>
       <use xlink:href="#mf4a588ad0c" x="256.747259" y="307.584" style="stroke: #000000; stroke-width: 0.8"/>
      </g>
     </g>
     <g id="text_15">
      <!-- 0 -->
      <g transform="translate(253.566009 322.182437)scale(0.1 -0.1)">
       <use xlink:href="#DejaVuSans-30"/>
      </g>
     </g>
    </g>
    <g id="xtick_17">
     <g id="line2d_37">
      <g>
       <use xlink:href="#mf4a588ad0c" x="317.226869" y="307.584" style="stroke: #000000; stroke-width: 0.8"/>
      </g>
     </g>
     <g id="text_16">
      <!-- 1 -->
      <g transform="translate(314.045619 322.182437)scale(0.1 -0.1)">
       <use xlink:href="#DejaVuSans-31"/>
      </g>
     </g>
    </g>
    <g id="xtick_18">
     <g id="line2d_38">
      <g>
       <use xlink:href="#mf4a588ad0c" x="377.706479" y="307.584" style="stroke: #000000; stroke-width: 0.8"/>
      </g>
     </g>
     <g id="text_17">
      <!-- 2 -->
      <g transform="translate(374.525229 322.182437)scale(0.1 -0.1)">
       <use xlink:href="#DejaVuSans-32"/>
      </g>
     </g>
    </g>
    <g id="text_18">
     <!-- time (s) -->
     <g transform="translate(314.164957 335.860562)scale(0.1 -0.1)">
      <use xlink:href="#DejaVuSans-74"/>
      <use xlink:href="#DejaVuSans-69" x="39.208984"/>
      <use xlink:href="#DejaVuSans-6d" x="66.992188"/>
      <use xlink:href="#DejaVuSans-65" x="164.404297"/>
      <use xlink:href="#DejaVuSans-20" x="225.927734"/>
      <use xlink:href="#DejaVuSans-28" x="257.714844"/>
      <use xlink:href="#DejaVuSans-73" x="296.728516"/>
      <use xlink:href="#DejaVuSans-29" x="348.828125"/>
     </g>
    </g>
   </g>
   <g id="matplotlib.axis_12">
    <g id="ytick_16">
     <g id="line2d_39">
      <g>
       <use xlink:href="#mffcbda90e3" x="252.392727" y="296.40984" style="stroke: #000000; stroke-width: 0.8"/>
      </g>
     </g>
    </g>
    <g id="ytick_17">
     <g id="line2d_40">
      <g>
       <use xlink:href="#mffcbda90e3" x="252.392727" y="271.849893" style="stroke: #000000; stroke-width: 0.8"/>
      </g>
     </g>
    </g>
    <g id="ytick_18">
     <g id="line2d_41">
      <g>
       <use xlink:href="#mffcbda90e3" x="252.392727" y="247.289946" style="stroke: #000000; stroke-width: 0.8"/>
      </g>
     </g>
    </g>
   </g>
   <g id="line2d_42">
    <path d="M 259.77124 266.409901 
L 260.376036 260.349337 
L 260.980832 269.410138 
L 262.190424 279.887561 
L 262.79522 280.738735 
L 263.400016 284.130601 
L 264.004812 286.811973 
L 264.609608 266.731421 
L 265.214405 277.179854 
L 265.819201 262.32194 
L 266.423997 272.904194 
L 267.028793 272.881017 
L 267.633589 267.058472 
L 268.238385 273.954081 
L 268.843181 260.06664 
L 269.447977 265.965086 
L 270.052773 284.440288 
L 270.657569 292.309972 
L 271.262366 292.825297 
L 271.867162 267.468711 
L 272.471958 267.55215 
L 273.076754 271.448249 
L 273.68155 272.654653 
L 274.286346 267.496112 
L 274.891142 278.872159 
L 275.495938 259.994198 
L 276.100734 278.854081 
L 276.70553 266.187731 
L 277.310327 274.861989 
L 277.915123 281.411873 
L 278.519919 270.853715 
L 279.124715 256.474891 
L 279.729511 269.797604 
L 280.334307 270.111534 
L 280.939103 261.940033 
L 281.543899 275.533106 
L 282.148695 261.699119 
L 282.753491 275.990663 
L 283.963084 261.73058 
L 284.56788 253.110013 
L 285.172676 301.451386 
L 285.777472 272.184506 
L 286.382268 267.085126 
L 286.987064 259.013026 
L 287.59186 262.386426 
L 288.196656 250.630529 
L 289.406248 269.936446 
L 290.011045 264.811294 
L 290.615841 256.996047 
L 291.220637 275.609869 
L 291.825433 270.612994 
L 292.430229 270.841874 
L 293.035025 290.290663 
L 294.244617 268.533582 
L 294.849413 287.120947 
L 295.454209 278.139582 
L 296.059006 265.619863 
L 296.663802 260.446128 
L 297.268598 280.429121 
L 297.873394 277.083985 
L 298.47819 280.660724 
L 299.082986 275.89296 
L 299.687782 280.026016 
L 300.292578 274.259632 
L 300.897374 273.436092 
L 301.50217 275.01099 
L 302.106967 269.79622 
L 302.711763 285.214683 
L 303.316559 264.865628 
L 303.921355 269.390433 
L 304.526151 261.32995 
L 305.130947 289.593073 
L 305.735743 274.596793 
L 306.340539 284.757028 
L 306.945335 269.609946 
L 307.550131 270.996681 
L 308.154928 254.709253 
L 308.759724 298.351669 
L 309.36452 285.58856 
L 309.969316 279.464345 
L 310.574112 295.528085 
L 311.178908 279.499356 
L 311.783704 271.664387 
L 312.3885 281.635317 
L 312.993296 262.623551 
L 313.598092 247.564844 
L 314.202888 261.620412 
L 314.807685 233.264495 
L 316.017277 254.283232 
L 316.622073 258.989605 
L 317.226869 258.884926 
L 317.831665 266.125731 
L 318.436461 244.383712 
L 319.646053 262.091427 
L 320.250849 259.417272 
L 320.855646 275.538305 
L 321.460442 273.70215 
L 322.065238 267.478895 
L 322.670034 250.366185 
L 323.879626 297.970081 
L 324.484422 269.957628 
L 325.089218 256.923669 
L 325.694014 271.166097 
L 326.29881 265.330895 
L 326.903607 263.448437 
L 327.508403 281.491851 
L 328.113199 265.039358 
L 328.717995 282.365521 
L 329.927587 266.114172 
L 330.532383 271.833386 
L 331.137179 291.1174 
L 331.741975 275.764067 
L 332.346771 263.373863 
L 332.951568 276.422257 
L 333.556364 277.874162 
L 334.16116 285.823035 
L 334.765956 296.45227 
L 335.370752 296.898527 
L 335.975548 276.560149 
L 336.580344 274.168455 
L 337.18514 277.425525 
L 337.789936 277.143256 
L 338.394732 281.378882 
L 338.999529 279.954811 
L 339.604325 298.31497 
L 340.209121 279.775899 
L 340.813917 286.533883 
L 341.418713 287.208048 
L 342.023509 251.54836 
L 342.628305 265.498786 
L 343.233101 286.794095 
L 343.837897 277.833784 
L 344.442693 285.265064 
L 345.04749 274.7386 
L 345.652286 287.95417 
L 346.257082 284.201453 
L 346.861878 275.919696 
L 347.466674 276.113566 
L 348.07147 289.165061 
L 348.676266 270.829978 
L 349.281062 278.781238 
L 349.885858 281.920676 
L 350.490654 275.018135 
L 351.09545 291.009367 
L 351.700247 304.026353 
L 352.305043 264.312036 
L 352.909839 275.197076 
L 353.514635 279.715301 
L 354.119431 288.185628 
L 354.724227 273.750549 
L 355.329023 293.376208 
L 355.933819 277.939883 
L 357.143411 288.042531 
L 357.748208 268.630512 
L 358.353004 254.018627 
L 358.9578 250.002426 
L 359.562596 257.854092 
L 360.167392 254.532707 
L 360.772188 243.713494 
L 361.376984 254.656971 
L 361.98178 240.574542 
L 362.586576 254.474405 
L 363.191372 259.038764 
L 363.796169 254.833026 
L 364.400965 265.18079 
L 365.005761 269.444178 
L 365.610557 268.612662 
L 366.215353 258.021505 
L 366.820149 269.475621 
L 367.424945 264.526371 
L 368.029741 265.225158 
L 368.634537 262.949298 
L 369.239333 261.939435 
L 369.84413 260.075224 
L 370.448926 261.597309 
L 371.053722 267.495163 
L 371.658518 266.460352 
L 372.263314 257.07931 
L 372.86811 276.952513 
L 373.472906 270.951409 
L 374.077702 276.252407 
L 374.682498 264.584449 
L 375.287294 262.239591 
L 375.892091 263.704967 
L 376.496887 280.713046 
L 377.101683 280.328044 
L 377.706479 272.58617 
L 378.311275 267.382274 
L 378.916071 283.657944 
L 379.520867 279.713372 
L 380.125663 257.951583 
L 380.730459 274.490589 
L 381.335255 285.93432 
L 381.940051 271.927609 
L 382.544848 262.861815 
L 383.149644 263.825714 
L 383.75444 256.301755 
L 384.359236 257.676617 
L 384.964032 278.834639 
L 385.568828 267.050307 
L 386.173624 286.216168 
L 386.77842 271.167449 
L 387.383216 274.629635 
L 387.988012 263.242879 
L 388.592809 284.926589 
L 389.197605 277.201738 
L 389.802401 282.192172 
L 390.407197 268.517014 
L 391.011993 263.881876 
L 391.616789 285.814792 
L 392.826381 259.972251 
L 393.431177 266.901239 
L 394.035973 267.462455 
L 394.64077 269.854489 
L 395.245566 292.59486 
L 395.850362 273.063189 
L 396.455158 282.219785 
L 397.059954 284.584473 
L 397.66475 286.094158 
L 398.269546 272.04788 
L 398.874342 282.731868 
L 399.479138 282.665942 
L 400.083934 280.47276 
L 400.688731 266.398794 
L 401.293527 284.970929 
L 401.898323 262.260364 
L 402.503119 272.478582 
L 403.107915 252.863846 
L 403.712711 281.302873 
L 404.317507 259.836475 
L 404.922303 273.277775 
L 405.527099 266.498219 
L 406.131895 267.344775 
L 406.736692 273.838453 
L 407.341488 270.995585 
L 407.341488 270.995585 
" clip-path="url(#pab149f51e0)" style="fill: none; stroke: #1f77b4; stroke-width: 1.5; stroke-linecap: square"/>
   </g>
   <g id="patch_18">
    <path d="M 252.392727 307.584 
L 252.392727 229.315765 
" style="fill: none; stroke: #000000; stroke-width: 0.8; stroke-linejoin: miter; stroke-linecap: square"/>
   </g>
   <g id="patch_19">
    <path d="M 252.392727 307.584 
L 414.72 307.584 
" style="fill: none; stroke: #000000; stroke-width: 0.8; stroke-linejoin: miter; stroke-linecap: square"/>
   </g>
  </g>
  <g id="legend_1">
   <g id="patch_20">
    <path d="M 341.9875 66.7125 
L 453.8 66.7125 
Q 455.8 66.7125 455.8 64.7125 
L 455.8 7 
Q 455.8 5 453.8 5 
L 341.9875 5 
Q 339.9875 5 339.9875 7 
L 339.9875 64.7125 
Q 339.9875 66.7125 341.9875 66.7125 
z
" style="fill: #ffffff; opacity: 0.8; stroke: #cccccc; stroke-linejoin: miter"/>
   </g>
   <g id="text_19">
    <!-- file number -->
    <g transform="translate(369.175781 16.598438)scale(0.1 -0.1)">
     <defs>
      <path id="DejaVuSans-66" d="M 2375 4863 
L 2375 4384 
L 1825 4384 
Q 1516 4384 1395 4259 
Q 1275 4134 1275 3809 
L 1275 3500 
L 2222 3500 
L 2222 3053 
L 1275 3053 
L 1275 0 
L 697 0 
L 697 3053 
L 147 3053 
L 147 3500 
L 697 3500 
L 697 3744 
Q 697 4328 969 4595 
Q 1241 4863 1831 4863 
L 2375 4863 
z
" transform="scale(0.015625)"/>
      <path id="DejaVuSans-6c" d="M 603 4863 
L 1178 4863 
L 1178 0 
L 603 0 
L 603 4863 
z
" transform="scale(0.015625)"/>
      <path id="DejaVuSans-6e" d="M 3513 2113 
L 3513 0 
L 2938 0 
L 2938 2094 
Q 2938 2591 2744 2837 
Q 2550 3084 2163 3084 
Q 1697 3084 1428 2787 
Q 1159 2491 1159 1978 
L 1159 0 
L 581 0 
L 581 3500 
L 1159 3500 
L 1159 2956 
Q 1366 3272 1645 3428 
Q 1925 3584 2291 3584 
Q 2894 3584 3203 3211 
Q 3513 2838 3513 2113 
z
" transform="scale(0.015625)"/>
      <path id="DejaVuSans-75" d="M 544 1381 
L 544 3500 
L 1119 3500 
L 1119 1403 
Q 1119 906 1312 657 
Q 1506 409 1894 409 
Q 2359 409 2629 706 
Q 2900 1003 2900 1516 
L 2900 3500 
L 3475 3500 
L 3475 0 
L 2900 0 
L 2900 538 
Q 2691 219 2414 64 
Q 2138 -91 1772 -91 
Q 1169 -91 856 284 
Q 544 659 544 1381 
z
M 1991 3584 
L 1991 3584 
z
" transform="scale(0.015625)"/>
      <path id="DejaVuSans-62" d="M 3116 1747 
Q 3116 2381 2855 2742 
Q 2594 3103 2138 3103 
Q 1681 3103 1420 2742 
Q 1159 2381 1159 1747 
Q 1159 1113 1420 752 
Q 1681 391 2138 391 
Q 2594 391 2855 752 
Q 3116 1113 3116 1747 
z
M 1159 2969 
Q 1341 3281 1617 3432 
Q 1894 3584 2278 3584 
Q 2916 3584 3314 3078 
Q 3713 2572 3713 1747 
Q 3713 922 3314 415 
Q 2916 -91 2278 -91 
Q 1894 -91 1617 61 
Q 1341 213 1159 525 
L 1159 0 
L 581 0 
L 581 4863 
L 1159 4863 
L 1159 2969 
z
" transform="scale(0.015625)"/>
      <path id="DejaVuSans-72" d="M 2631 2963 
Q 2534 3019 2420 3045 
Q 2306 3072 2169 3072 
Q 1681 3072 1420 2755 
Q 1159 2438 1159 1844 
L 1159 0 
L 581 0 
L 581 3500 
L 1159 3500 
L 1159 2956 
Q 1341 3275 1631 3429 
Q 1922 3584 2338 3584 
Q 2397 3584 2469 3576 
Q 2541 3569 2628 3553 
L 2631 2963 
z
" transform="scale(0.015625)"/>
     </defs>
     <use xlink:href="#DejaVuSans-66"/>
     <use xlink:href="#DejaVuSans-69" x="35.205078"/>
     <use xlink:href="#DejaVuSans-6c" x="62.988281"/>
     <use xlink:href="#DejaVuSans-65" x="90.771484"/>
     <use xlink:href="#DejaVuSans-20" x="152.294922"/>
     <use xlink:href="#DejaVuSans-6e" x="184.082031"/>
     <use xlink:href="#DejaVuSans-75" x="247.460938"/>
     <use xlink:href="#DejaVuSans-6d" x="310.839844"/>
     <use xlink:href="#DejaVuSans-62" x="408.251953"/>
     <use xlink:href="#DejaVuSans-65" x="471.728516"/>
     <use xlink:href="#DejaVuSans-72" x="533.251953"/>
    </g>
   </g>
   <g id="line2d_43">
    <path d="M 343.9875 27.776563 
L 353.9875 27.776563 
L 363.9875 27.776563 
" style="fill: none; stroke: #1f77b4; stroke-width: 1.5; stroke-linecap: square"/>
   </g>
   <g id="text_20">
    <!-- 7 -->
    <g transform="translate(371.9875 31.276563)scale(0.1 -0.1)">
     <defs>
      <path id="DejaVuSans-37" d="M 525 4666 
L 3525 4666 
L 3525 4397 
L 1831 0 
L 1172 0 
L 2766 4134 
L 525 4134 
L 525 4666 
z
" transform="scale(0.015625)"/>
     </defs>
     <use xlink:href="#DejaVuSans-37"/>
    </g>
   </g>
   <g id="line2d_44">
    <path d="M 343.9875 42.454688 
L 353.9875 42.454688 
L 363.9875 42.454688 
" style="fill: none; stroke: #1f77b4; stroke-width: 1.5; stroke-linecap: square"/>
   </g>
   <g id="text_21">
    <!-- 50 -->
    <g transform="translate(371.9875 45.954688)scale(0.1 -0.1)">
     <use xlink:href="#DejaVuSans-35"/>
     <use xlink:href="#DejaVuSans-30" x="63.623047"/>
    </g>
   </g>
   <g id="line2d_45">
    <path d="M 343.9875 57.132813 
L 353.9875 57.132813 
L 363.9875 57.132813 
" style="fill: none; stroke: #1f77b4; stroke-width: 1.5; stroke-linecap: square"/>
   </g>
   <g id="text_22">
    <!-- 27 -->
    <g transform="translate(371.9875 60.632813)scale(0.1 -0.1)">
     <use xlink:href="#DejaVuSans-32"/>
     <use xlink:href="#DejaVuSans-37" x="63.623047"/>
    </g>
   </g>
   <g id="line2d_46">
    <path d="M 404.7125 27.776563 
L 414.7125 27.776563 
L 424.7125 27.776563 
" style="fill: none; stroke: #1f77b4; stroke-width: 1.5; stroke-linecap: square"/>
   </g>
   <g id="text_23">
    <!-- 64 -->
    <g transform="translate(432.7125 31.276563)scale(0.1 -0.1)">
     <defs>
      <path id="DejaVuSans-36" d="M 2113 2584 
Q 1688 2584 1439 2293 
Q 1191 2003 1191 1497 
Q 1191 994 1439 701 
Q 1688 409 2113 409 
Q 2538 409 2786 701 
Q 3034 994 3034 1497 
Q 3034 2003 2786 2293 
Q 2538 2584 2113 2584 
z
M 3366 4563 
L 3366 3988 
Q 3128 4100 2886 4159 
Q 2644 4219 2406 4219 
Q 1781 4219 1451 3797 
Q 1122 3375 1075 2522 
Q 1259 2794 1537 2939 
Q 1816 3084 2150 3084 
Q 2853 3084 3261 2657 
Q 3669 2231 3669 1497 
Q 3669 778 3244 343 
Q 2819 -91 2113 -91 
Q 1303 -91 875 529 
Q 447 1150 447 2328 
Q 447 3434 972 4092 
Q 1497 4750 2381 4750 
Q 2619 4750 2861 4703 
Q 3103 4656 3366 4563 
z
" transform="scale(0.015625)"/>
      <path id="DejaVuSans-34" d="M 2419 4116 
L 825 1625 
L 2419 1625 
L 2419 4116 
z
M 2253 4666 
L 3047 4666 
L 3047 1625 
L 3713 1625 
L 3713 1100 
L 3047 1100 
L 3047 0 
L 2419 0 
L 2419 1100 
L 313 1100 
L 313 1709 
L 2253 4666 
z
" transform="scale(0.015625)"/>
     </defs>
     <use xlink:href="#DejaVuSans-36"/>
     <use xlink:href="#DejaVuSans-34" x="63.623047"/>
    </g>
   </g>
   <g id="line2d_47">
    <path d="M 404.7125 42.454688 
L 414.7125 42.454688 
L 424.7125 42.454688 
" style="fill: none; stroke: #1f77b4; stroke-width: 1.5; stroke-linecap: square"/>
   </g>
   <g id="text_24">
    <!-- 28 -->
    <g transform="translate(432.7125 45.954688)scale(0.1 -0.1)">
     <defs>
      <path id="DejaVuSans-38" d="M 2034 2216 
Q 1584 2216 1326 1975 
Q 1069 1734 1069 1313 
Q 1069 891 1326 650 
Q 1584 409 2034 409 
Q 2484 409 2743 651 
Q 3003 894 3003 1313 
Q 3003 1734 2745 1975 
Q 2488 2216 2034 2216 
z
M 1403 2484 
Q 997 2584 770 2862 
Q 544 3141 544 3541 
Q 544 4100 942 4425 
Q 1341 4750 2034 4750 
Q 2731 4750 3128 4425 
Q 3525 4100 3525 3541 
Q 3525 3141 3298 2862 
Q 3072 2584 2669 2484 
Q 3125 2378 3379 2068 
Q 3634 1759 3634 1313 
Q 3634 634 3220 271 
Q 2806 -91 2034 -91 
Q 1263 -91 848 271 
Q 434 634 434 1313 
Q 434 1759 690 2068 
Q 947 2378 1403 2484 
z
M 1172 3481 
Q 1172 3119 1398 2916 
Q 1625 2713 2034 2713 
Q 2441 2713 2670 2916 
Q 2900 3119 2900 3481 
Q 2900 3844 2670 4047 
Q 2441 4250 2034 4250 
Q 1625 4250 1398 4047 
Q 1172 3844 1172 3481 
z
" transform="scale(0.015625)"/>
     </defs>
     <use xlink:href="#DejaVuSans-32"/>
     <use xlink:href="#DejaVuSans-38" x="63.623047"/>
    </g>
   </g>
   <g id="line2d_48">
    <path d="M 404.7125 57.132813 
L 414.7125 57.132813 
L 424.7125 57.132813 
" style="fill: none; stroke: #1f77b4; stroke-width: 1.5; stroke-linecap: square"/>
   </g>
   <g id="text_25">
    <!-- 114 -->
    <g transform="translate(432.7125 60.632813)scale(0.1 -0.1)">
     <use xlink:href="#DejaVuSans-31"/>
     <use xlink:href="#DejaVuSans-31" x="63.623047"/>
     <use xlink:href="#DejaVuSans-34" x="127.246094"/>
    </g>
   </g>
  </g>
 </g>
 <defs>
  <clipPath id="p143f962909">
   <rect x="57.6" y="41.472" width="162.327273" height="78.268235"/>
  </clipPath>
  <clipPath id="p8658aedfd6">
   <rect x="252.392727" y="41.472" width="162.327273" height="78.268235"/>
  </clipPath>
  <clipPath id="p1592490fbd">
   <rect x="57.6" y="135.393882" width="162.327273" height="78.268235"/>
  </clipPath>
  <clipPath id="p8a8b1e9374">
   <rect x="252.392727" y="135.393882" width="162.327273" height="78.268235"/>
  </clipPath>
  <clipPath id="p6e555c32a7">
   <rect x="57.6" y="229.315765" width="162.327273" height="78.268235"/>
  </clipPath>
  <clipPath id="pab149f51e0">
   <rect x="252.392727" y="229.315765" width="162.327273" height="78.268235"/>
  </clipPath>
 </defs>
</svg>
