<?xml version="1.0" encoding="utf-8" standalone="no"?>
<!DOCTYPE svg PUBLIC "-//W3C//DTD SVG 1.1//EN"
  "http://www.w3.org/Graphics/SVG/1.1/DTD/svg11.dtd">
<svg xmlns:xlink="http://www.w3.org/1999/xlink" width="460.8pt" height="345.6pt" viewBox="0 0 460.8 345.6" xmlns="http://www.w3.org/2000/svg" version="1.1">
 <metadata>
  <rdf:RDF xmlns:dc="http://purl.org/dc/elements/1.1/" xmlns:cc="http://creativecommons.org/ns#" xmlns:rdf="http://www.w3.org/1999/02/22-rdf-syntax-ns#">
   <cc:Work>
    <dc:type rdf:resource="http://purl.org/dc/dcmitype/StillImage"/>
    <dc:date>2022-06-14T10:40:20.386930</dc:date>
    <dc:format>image/svg+xml</dc:format>
    <dc:creator>
     <cc:Agent>
      <dc:title>Matplotlib v3.5.2, https://matplotlib.org/</dc:title>
     </cc:Agent>
    </dc:creator>
   </cc:Work>
  </rdf:RDF>
 </metadata>
 <defs>
  <style type="text/css">*{stroke-linejoin: round; stroke-linecap: butt}</style>
 </defs>
 <g id="figure_1">
  <g id="patch_1">
   <path d="M 0 345.6 
L 460.8 345.6 
L 460.8 0 
L 0 0 
z
" style="fill: #ffffff"/>
  </g>
  <g id="axes_1">
   <g id="patch_2">
    <path d="M 54.74 150.07 
L 450 150.07 
L 450 10.8 
L 54.74 10.8 
z
" style="fill: #ffffff"/>
   </g>
   <g id="matplotlib.axis_1">
    <g id="xtick_1">
     <g id="line2d_1">
      <path d="M 72.706364 150.07 
L 72.706364 10.8 
" clip-path="url(#p8c7b0af8d2)" style="fill: none; stroke: #b0b0b0; stroke-width: 0.8; stroke-linecap: square"/>
     </g>
     <g id="line2d_2">
      <defs>
       <path id="m8f3bbb9eff" d="M 0 0 
L 0 3.5 
" style="stroke: #000000; stroke-width: 0.8"/>
      </defs>
      <g>
       <use xlink:href="#m8f3bbb9eff" x="72.706364" y="150.07" style="stroke: #000000; stroke-width: 0.8"/>
      </g>
     </g>
    </g>
    <g id="xtick_2">
     <g id="line2d_3">
      <path d="M 144.860434 150.07 
L 144.860434 10.8 
" clip-path="url(#p8c7b0af8d2)" style="fill: none; stroke: #b0b0b0; stroke-width: 0.8; stroke-linecap: square"/>
     </g>
     <g id="line2d_4">
      <g>
       <use xlink:href="#m8f3bbb9eff" x="144.860434" y="150.07" style="stroke: #000000; stroke-width: 0.8"/>
      </g>
     </g>
    </g>
    <g id="xtick_3">
     <g id="line2d_5">
      <path d="M 217.014505 150.07 
L 217.014505 10.8 
" clip-path="url(#p8c7b0af8d2)" style="fill: none; stroke: #b0b0b0; stroke-width: 0.8; stroke-linecap: square"/>
     </g>
     <g id="line2d_6">
      <g>
       <use xlink:href="#m8f3bbb9eff" x="217.014505" y="150.07" style="stroke: #000000; stroke-width: 0.8"/>
      </g>
     </g>
    </g>
    <g id="xtick_4">
     <g id="line2d_7">
      <path d="M 289.168576 150.07 
L 289.168576 10.8 
" clip-path="url(#p8c7b0af8d2)" style="fill: none; stroke: #b0b0b0; stroke-width: 0.8; stroke-linecap: square"/>
     </g>
     <g id="line2d_8">
      <g>
       <use xlink:href="#m8f3bbb9eff" x="289.168576" y="150.07" style="stroke: #000000; stroke-width: 0.8"/>
      </g>
     </g>
    </g>
    <g id="xtick_5">
     <g id="line2d_9">
      <path d="M 361.322647 150.07 
L 361.322647 10.8 
" clip-path="url(#p8c7b0af8d2)" style="fill: none; stroke: #b0b0b0; stroke-width: 0.8; stroke-linecap: square"/>
     </g>
     <g id="line2d_10">
      <g>
       <use xlink:href="#m8f3bbb9eff" x="361.322647" y="150.07" style="stroke: #000000; stroke-width: 0.8"/>
      </g>
     </g>
    </g>
    <g id="xtick_6">
     <g id="line2d_11">
      <path d="M 433.476718 150.07 
L 433.476718 10.8 
" clip-path="url(#p8c7b0af8d2)" style="fill: none; stroke: #b0b0b0; stroke-width: 0.8; stroke-linecap: square"/>
     </g>
     <g id="line2d_12">
      <g>
       <use xlink:href="#m8f3bbb9eff" x="433.476718" y="150.07" style="stroke: #000000; stroke-width: 0.8"/>
      </g>
     </g>
    </g>
   </g>
   <g id="matplotlib.axis_2">
    <g id="ytick_1">
     <g id="line2d_13">
      <path d="M 54.74 134.189065 
L 450 134.189065 
" clip-path="url(#p8c7b0af8d2)" style="fill: none; stroke: #b0b0b0; stroke-width: 0.8; stroke-linecap: square"/>
     </g>
     <g id="line2d_14">
      <defs>
       <path id="me4e29b3ede" d="M 0 0 
L -3.5 0 
" style="stroke: #000000; stroke-width: 0.8"/>
      </defs>
      <g>
       <use xlink:href="#me4e29b3ede" x="54.74" y="134.189065" style="stroke: #000000; stroke-width: 0.8"/>
      </g>
     </g>
     <g id="text_1">
      <!-- 30.5 -->
      <g transform="translate(25.474375 137.988284)scale(0.1 -0.1)">
       <defs>
        <path id="DejaVuSans-33" d="M 2597 2516 
Q 3050 2419 3304 2112 
Q 3559 1806 3559 1356 
Q 3559 666 3084 287 
Q 2609 -91 1734 -91 
Q 1441 -91 1130 -33 
Q 819 25 488 141 
L 488 750 
Q 750 597 1062 519 
Q 1375 441 1716 441 
Q 2309 441 2620 675 
Q 2931 909 2931 1356 
Q 2931 1769 2642 2001 
Q 2353 2234 1838 2234 
L 1294 2234 
L 1294 2753 
L 1863 2753 
Q 2328 2753 2575 2939 
Q 2822 3125 2822 3475 
Q 2822 3834 2567 4026 
Q 2313 4219 1838 4219 
Q 1578 4219 1281 4162 
Q 984 4106 628 3988 
L 628 4550 
Q 988 4650 1302 4700 
Q 1616 4750 1894 4750 
Q 2613 4750 3031 4423 
Q 3450 4097 3450 3541 
Q 3450 3153 3228 2886 
Q 3006 2619 2597 2516 
z
" transform="scale(0.015625)"/>
        <path id="DejaVuSans-30" d="M 2034 4250 
Q 1547 4250 1301 3770 
Q 1056 3291 1056 2328 
Q 1056 1369 1301 889 
Q 1547 409 2034 409 
Q 2525 409 2770 889 
Q 3016 1369 3016 2328 
Q 3016 3291 2770 3770 
Q 2525 4250 2034 4250 
z
M 2034 4750 
Q 2819 4750 3233 4129 
Q 3647 3509 3647 2328 
Q 3647 1150 3233 529 
Q 2819 -91 2034 -91 
Q 1250 -91 836 529 
Q 422 1150 422 2328 
Q 422 3509 836 4129 
Q 1250 4750 2034 4750 
z
" transform="scale(0.015625)"/>
        <path id="DejaVuSans-2e" d="M 684 794 
L 1344 794 
L 1344 0 
L 684 0 
L 684 794 
z
" transform="scale(0.015625)"/>
        <path id="DejaVuSans-35" d="M 691 4666 
L 3169 4666 
L 3169 4134 
L 1269 4134 
L 1269 2991 
Q 1406 3038 1543 3061 
Q 1681 3084 1819 3084 
Q 2600 3084 3056 2656 
Q 3513 2228 3513 1497 
Q 3513 744 3044 326 
Q 2575 -91 1722 -91 
Q 1428 -91 1123 -41 
Q 819 9 494 109 
L 494 744 
Q 775 591 1075 516 
Q 1375 441 1709 441 
Q 2250 441 2565 725 
Q 2881 1009 2881 1497 
Q 2881 1984 2565 2268 
Q 2250 2553 1709 2553 
Q 1456 2553 1204 2497 
Q 953 2441 691 2322 
L 691 4666 
z
" transform="scale(0.015625)"/>
       </defs>
       <use xlink:href="#DejaVuSans-33"/>
       <use xlink:href="#DejaVuSans-30" x="63.623047"/>
       <use xlink:href="#DejaVuSans-2e" x="127.246094"/>
       <use xlink:href="#DejaVuSans-35" x="159.033203"/>
      </g>
     </g>
    </g>
    <g id="ytick_2">
     <g id="line2d_15">
      <path d="M 54.74 105.438323 
L 450 105.438323 
" clip-path="url(#p8c7b0af8d2)" style="fill: none; stroke: #b0b0b0; stroke-width: 0.8; stroke-linecap: square"/>
     </g>
     <g id="line2d_16">
      <g>
       <use xlink:href="#me4e29b3ede" x="54.74" y="105.438323" style="stroke: #000000; stroke-width: 0.8"/>
      </g>
     </g>
     <g id="text_2">
      <!-- 31.0 -->
      <g transform="translate(25.474375 109.237541)scale(0.1 -0.1)">
       <defs>
        <path id="DejaVuSans-31" d="M 794 531 
L 1825 531 
L 1825 4091 
L 703 3866 
L 703 4441 
L 1819 4666 
L 2450 4666 
L 2450 531 
L 3481 531 
L 3481 0 
L 794 0 
L 794 531 
z
" transform="scale(0.015625)"/>
       </defs>
       <use xlink:href="#DejaVuSans-33"/>
       <use xlink:href="#DejaVuSans-31" x="63.623047"/>
       <use xlink:href="#DejaVuSans-2e" x="127.246094"/>
       <use xlink:href="#DejaVuSans-30" x="159.033203"/>
      </g>
     </g>
    </g>
    <g id="ytick_3">
     <g id="line2d_17">
      <path d="M 54.74 76.68758 
L 450 76.68758 
" clip-path="url(#p8c7b0af8d2)" style="fill: none; stroke: #b0b0b0; stroke-width: 0.8; stroke-linecap: square"/>
     </g>
     <g id="line2d_18">
      <g>
       <use xlink:href="#me4e29b3ede" x="54.74" y="76.68758" style="stroke: #000000; stroke-width: 0.8"/>
      </g>
     </g>
     <g id="text_3">
      <!-- 31.5 -->
      <g transform="translate(25.474375 80.486799)scale(0.1 -0.1)">
       <use xlink:href="#DejaVuSans-33"/>
       <use xlink:href="#DejaVuSans-31" x="63.623047"/>
       <use xlink:href="#DejaVuSans-2e" x="127.246094"/>
       <use xlink:href="#DejaVuSans-35" x="159.033203"/>
      </g>
     </g>
    </g>
    <g id="ytick_4">
     <g id="line2d_19">
      <path d="M 54.74 47.936838 
L 450 47.936838 
" clip-path="url(#p8c7b0af8d2)" style="fill: none; stroke: #b0b0b0; stroke-width: 0.8; stroke-linecap: square"/>
     </g>
     <g id="line2d_20">
      <g>
       <use xlink:href="#me4e29b3ede" x="54.74" y="47.936838" style="stroke: #000000; stroke-width: 0.8"/>
      </g>
     </g>
     <g id="text_4">
      <!-- 32.0 -->
      <g transform="translate(25.474375 51.736057)scale(0.1 -0.1)">
       <defs>
        <path id="DejaVuSans-32" d="M 1228 531 
L 3431 531 
L 3431 0 
L 469 0 
L 469 531 
Q 828 903 1448 1529 
Q 2069 2156 2228 2338 
Q 2531 2678 2651 2914 
Q 2772 3150 2772 3378 
Q 2772 3750 2511 3984 
Q 2250 4219 1831 4219 
Q 1534 4219 1204 4116 
Q 875 4013 500 3803 
L 500 4441 
Q 881 4594 1212 4672 
Q 1544 4750 1819 4750 
Q 2544 4750 2975 4387 
Q 3406 4025 3406 3419 
Q 3406 3131 3298 2873 
Q 3191 2616 2906 2266 
Q 2828 2175 2409 1742 
Q 1991 1309 1228 531 
z
" transform="scale(0.015625)"/>
       </defs>
       <use xlink:href="#DejaVuSans-33"/>
       <use xlink:href="#DejaVuSans-32" x="63.623047"/>
       <use xlink:href="#DejaVuSans-2e" x="127.246094"/>
       <use xlink:href="#DejaVuSans-30" x="159.033203"/>
      </g>
     </g>
    </g>
    <g id="ytick_5">
     <g id="line2d_21">
      <path d="M 54.74 19.186096 
L 450 19.186096 
" clip-path="url(#p8c7b0af8d2)" style="fill: none; stroke: #b0b0b0; stroke-width: 0.8; stroke-linecap: square"/>
     </g>
     <g id="line2d_22">
      <g>
       <use xlink:href="#me4e29b3ede" x="54.74" y="19.186096" style="stroke: #000000; stroke-width: 0.8"/>
      </g>
     </g>
     <g id="text_5">
      <!-- 32.5 -->
      <g transform="translate(25.474375 22.985314)scale(0.1 -0.1)">
       <use xlink:href="#DejaVuSans-33"/>
       <use xlink:href="#DejaVuSans-32" x="63.623047"/>
       <use xlink:href="#DejaVuSans-2e" x="127.246094"/>
       <use xlink:href="#DejaVuSans-35" x="159.033203"/>
      </g>
     </g>
    </g>
    <g id="text_6">
     <!-- $\Delta F/F$ -->
     <g transform="translate(19.394688 91.335)rotate(-90)scale(0.1 -0.1)">
      <defs>
       <path id="DejaVuSans-394" d="M 2188 4044 
L 906 525 
L 3472 525 
L 2188 4044 
z
M 50 0 
L 1831 4666 
L 2547 4666 
L 4325 0 
L 50 0 
z
" transform="scale(0.015625)"/>
       <path id="DejaVuSans-Oblique-46" d="M 1081 4666 
L 3756 4666 
L 3653 4134 
L 1606 4134 
L 1338 2759 
L 3188 2759 
L 3084 2228 
L 1234 2228 
L 800 0 
L 172 0 
L 1081 4666 
z
" transform="scale(0.015625)"/>
       <path id="DejaVuSans-2f" d="M 1625 4666 
L 2156 4666 
L 531 -594 
L 0 -594 
L 1625 4666 
z
" transform="scale(0.015625)"/>
      </defs>
      <use xlink:href="#DejaVuSans-394" transform="translate(0 0.09375)"/>
      <use xlink:href="#DejaVuSans-Oblique-46" transform="translate(68.408203 0.09375)"/>
      <use xlink:href="#DejaVuSans-2f" transform="translate(125.927734 0.09375)"/>
      <use xlink:href="#DejaVuSans-Oblique-46" transform="translate(159.619141 0.09375)"/>
     </g>
    </g>
   </g>
   <g id="line2d_23">
    <path d="M 72.706364 32.789681 
L 74.149445 21.075608 
L 75.592526 17.130455 
L 77.035608 25.688404 
L 78.478689 22.532281 
L 79.921771 26.598824 
L 81.364852 31.272314 
L 82.807934 28.419664 
L 84.251015 24.656594 
L 85.694096 28.601748 
L 87.137178 37.46317 
L 88.580259 27.084381 
L 90.023341 25.142152 
L 91.466422 34.064269 
L 92.909503 35.096078 
L 94.352585 39.041232 
L 95.795666 40.558599 
L 97.238748 38.434285 
L 98.681829 34.853299 
L 100.124911 35.278162 
L 101.567992 40.558599 
L 103.011073 40.31582 
L 104.454155 31.393703 
L 105.897236 41.469019 
L 107.340318 35.885109 
L 108.783399 41.104851 
L 110.22648 36.67414 
L 111.669562 48.691685 
L 113.112643 42.379439 
L 114.555725 42.440134 
L 115.998806 40.073041 
L 117.441888 45.960425 
L 118.884969 45.535562 
L 120.32805 49.6628 
L 121.771132 46.81015 
L 123.214213 62.105208 
L 124.657295 44.200279 
L 126.100376 46.688761 
L 127.543457 54.700458 
L 128.986539 44.928615 
L 130.42962 52.636839 
L 131.872702 52.090587 
L 133.315783 53.061702 
L 134.758865 52.697534 
L 136.201946 56.946161 
L 137.645027 44.928615 
L 139.088109 53.607954 
L 140.53119 59.738116 
L 141.974272 48.388212 
L 143.417353 59.070475 
L 144.860434 63.743965 
L 146.303516 59.252559 
L 147.746597 53.486565 
L 149.189679 59.070475 
L 150.63276 61.801735 
L 152.075842 58.949085 
L 153.518923 52.818923 
L 154.962004 57.18894 
L 156.405086 55.125321 
L 157.848167 57.795886 
L 159.291249 51.665724 
L 160.73433 61.194788 
L 162.177411 55.853657 
L 163.620493 66.293141 
L 165.063574 68.538844 
L 166.506656 69.388569 
L 167.949737 61.558956 
L 169.392819 58.706307 
L 170.8359 72.11983 
L 172.278981 68.599538 
L 173.722063 64.047438 
L 175.165144 66.718004 
L 176.608226 64.775774 
L 178.051307 75.518731 
L 179.494388 76.004289 
L 180.93747 70.966631 
L 182.380551 69.024401 
L 183.823633 69.692043 
L 185.266714 73.515807 
L 186.709796 72.301914 
L 188.152877 76.550541 
L 189.595958 73.151639 
L 191.03904 69.26718 
L 192.482121 70.784547 
L 193.925203 71.694967 
L 195.368284 76.186373 
L 196.811365 72.241219 
L 198.254447 78.735549 
L 199.697528 74.972479 
L 201.14061 76.79332 
L 202.583691 69.813432 
L 204.026773 77.521656 
L 206.912935 84.440849 
L 208.356017 92.209767 
L 209.799098 95.608669 
L 211.24218 97.672288 
L 212.685261 105.016343 
L 214.128342 92.027683 
L 215.571424 99.91799 
L 217.014505 98.764792 
L 218.457587 92.573935 
L 219.900668 89.114338 
L 221.34375 94.212691 
L 222.786831 99.857296 
L 224.229912 93.54505 
L 225.672994 97.308119 
L 227.116075 83.833902 
L 228.559157 99.432433 
L 230.002238 92.877408 
L 231.445319 97.611593 
L 232.888401 88.082529 
L 234.331482 87.475582 
L 235.774564 85.897521 
L 238.660727 97.126035 
L 240.103808 95.669363 
L 241.546889 102.709946 
L 242.989971 92.63463 
L 244.433052 101.617441 
L 245.876134 90.753095 
L 247.319215 101.010495 
L 248.762296 98.400624 
L 250.205378 104.59148 
L 251.648459 98.157845 
L 253.091541 100.889105 
L 254.534622 95.426585 
L 255.977704 93.42366 
L 257.420785 99.978685 
L 258.863866 94.698248 
L 260.306948 100.221464 
L 261.750029 98.643402 
L 263.193111 107.262046 
L 264.636192 101.617441 
L 266.079273 99.735906 
L 267.522355 106.715794 
L 268.965436 95.669363 
L 270.408518 105.62329 
L 271.851599 108.051077 
L 273.294681 106.108847 
L 274.737762 103.863144 
L 276.180843 103.923839 
L 277.623925 101.981609 
L 279.067006 102.649251 
L 280.510088 109.022192 
L 281.953169 105.198427 
L 283.39625 108.779413 
L 284.839332 104.955648 
L 286.282413 107.201351 
L 287.725495 108.111772 
L 289.168576 103.013419 
L 290.611658 101.617441 
L 292.054739 106.958573 
L 293.49782 106.473015 
L 294.940902 112.421093 
L 296.383983 102.588556 
L 297.827065 106.290931 
L 299.270146 105.683985 
L 300.713227 110.29678 
L 302.156309 105.077038 
L 303.59939 104.470091 
L 305.042472 118.369172 
L 306.485553 113.392208 
L 307.928635 104.652175 
L 309.371716 113.695682 
L 310.814797 108.536634 
L 312.257879 117.215973 
L 313.70096 123.042661 
L 315.144042 121.403905 
L 316.587123 124.438639 
L 318.030204 122.435715 
L 319.473286 138.701887 
L 320.916367 140.826201 
L 322.359449 131.297137 
L 323.80253 134.57465 
L 325.245612 138.823277 
L 326.688693 138.21633 
L 328.131774 126.866426 
L 329.574856 134.331871 
L 331.017937 132.511031 
L 332.461019 139.794392 
L 333.9041 131.054358 
L 335.347181 128.565877 
L 336.790263 128.687266 
L 338.233344 129.536992 
L 339.676426 134.938818 
L 341.119507 129.719076 
L 342.562589 132.389641 
L 344.00567 136.698963 
L 345.448751 134.696039 
L 346.891833 130.386717 
L 348.334914 132.450336 
L 349.777996 132.571725 
L 351.221077 130.750885 
L 352.664158 136.516879 
L 354.10724 132.996588 
L 355.550321 133.239367 
L 356.993403 123.346135 
L 359.879566 128.808656 
L 361.322647 126.562953 
L 362.765728 128.747961 
L 364.20881 139.976476 
L 365.651891 134.57465 
L 367.094973 136.2741 
L 368.538054 131.722 
L 369.981135 136.881047 
L 371.424217 133.239367 
L 372.867298 131.904084 
L 374.31038 133.603535 
L 375.753461 136.092016 
L 377.196543 135.060207 
L 378.639624 134.392566 
L 380.082705 139.187445 
L 381.525787 133.724924 
L 382.968868 127.534067 
L 384.41195 136.516879 
L 385.855031 131.539916 
L 387.298112 133.54284 
L 388.741194 134.089092 
L 390.184275 136.516879 
L 391.627357 136.213406 
L 393.070438 129.597686 
L 394.51352 138.21633 
L 395.956601 131.964779 
L 397.399682 135.727848 
L 398.842764 134.149787 
L 400.285845 130.326022 
L 401.728927 128.444487 
L 403.172008 132.571725 
L 404.615089 143.011209 
L 406.058171 133.057283 
L 407.501252 139.187445 
L 408.944334 133.724924 
L 410.387415 140.279949 
L 411.830497 139.24814 
L 413.273578 143.739545 
L 414.716659 135.302986 
L 416.159741 137.002437 
L 417.602822 132.268252 
L 419.045904 137.184521 
L 420.488985 138.034246 
L 421.932066 133.057283 
L 423.375148 131.357832 
L 424.818229 134.938818 
L 426.261311 140.279949 
L 427.704392 137.184521 
L 429.147474 139.430224 
L 430.590555 138.034246 
L 432.033636 139.12675 
L 432.033636 139.12675 
" clip-path="url(#p8c7b0af8d2)" style="fill: none; stroke: #1f77b4; stroke-width: 1.5; stroke-linecap: square"/>
   </g>
   <g id="line2d_24">
    <path d="M 72.706364 22.944202 
L 82.807934 28.254598 
L 92.909503 33.326859 
L 104.454155 38.872772 
L 117.441888 44.843224 
L 131.872702 51.206955 
L 147.746597 57.952404 
L 166.506656 65.672166 
L 189.595958 74.916274 
L 217.014505 85.640866 
L 242.989971 95.568334 
L 264.636192 103.60247 
L 281.953169 109.793163 
L 296.383983 114.725897 
L 309.371716 118.935641 
L 320.916367 122.450982 
L 331.017937 125.317797 
L 341.119507 127.957169 
L 349.777996 130.013094 
L 358.436484 131.854614 
L 367.094973 133.457605 
L 374.31038 134.592823 
L 381.525787 135.529117 
L 388.741194 136.250243 
L 395.956601 136.739262 
L 403.172008 136.978546 
L 410.387415 136.949772 
L 416.159741 136.720997 
L 421.932066 136.298456 
L 427.704392 135.671811 
L 432.033636 135.061505 
L 432.033636 135.061505 
" clip-path="url(#p8c7b0af8d2)" style="fill: none; stroke: #ff7f0e; stroke-width: 1.5; stroke-linecap: square"/>
   </g>
   <g id="patch_3">
    <path d="M 54.74 150.07 
L 54.74 10.8 
" style="fill: none; stroke: #000000; stroke-width: 0.8; stroke-linejoin: miter; stroke-linecap: square"/>
   </g>
   <g id="patch_4">
    <path d="M 450 150.07 
L 450 10.8 
" style="fill: none; stroke: #000000; stroke-width: 0.8; stroke-linejoin: miter; stroke-linecap: square"/>
   </g>
   <g id="patch_5">
    <path d="M 54.74 150.07 
L 450 150.07 
" style="fill: none; stroke: #000000; stroke-width: 0.8; stroke-linejoin: miter; stroke-linecap: square"/>
   </g>
   <g id="patch_6">
    <path d="M 54.74 10.8 
L 450 10.8 
" style="fill: none; stroke: #000000; stroke-width: 0.8; stroke-linejoin: miter; stroke-linecap: square"/>
   </g>
   <g id="legend_1">
    <g id="patch_7">
     <path d="M 384.354688 48.15625 
L 443 48.15625 
Q 445 48.15625 445 46.15625 
L 445 17.8 
Q 445 15.8 443 15.8 
L 384.354688 15.8 
Q 382.354688 15.8 382.354688 17.8 
L 382.354688 46.15625 
Q 382.354688 48.15625 384.354688 48.15625 
z
" style="fill: #ffffff; opacity: 0.8; stroke: #cccccc; stroke-linejoin: miter"/>
    </g>
    <g id="line2d_25">
     <path d="M 386.354688 23.898438 
L 396.354688 23.898438 
L 406.354688 23.898438 
" style="fill: none; stroke: #1f77b4; stroke-width: 1.5; stroke-linecap: square"/>
    </g>
    <g id="text_7">
     <!-- raw -->
     <g transform="translate(414.354688 27.398438)scale(0.1 -0.1)">
      <defs>
       <path id="DejaVuSans-72" d="M 2631 2963 
Q 2534 3019 2420 3045 
Q 2306 3072 2169 3072 
Q 1681 3072 1420 2755 
Q 1159 2438 1159 1844 
L 1159 0 
L 581 0 
L 581 3500 
L 1159 3500 
L 1159 2956 
Q 1341 3275 1631 3429 
Q 1922 3584 2338 3584 
Q 2397 3584 2469 3576 
Q 2541 3569 2628 3553 
L 2631 2963 
z
" transform="scale(0.015625)"/>
       <path id="DejaVuSans-61" d="M 2194 1759 
Q 1497 1759 1228 1600 
Q 959 1441 959 1056 
Q 959 750 1161 570 
Q 1363 391 1709 391 
Q 2188 391 2477 730 
Q 2766 1069 2766 1631 
L 2766 1759 
L 2194 1759 
z
M 3341 1997 
L 3341 0 
L 2766 0 
L 2766 531 
Q 2569 213 2275 61 
Q 1981 -91 1556 -91 
Q 1019 -91 701 211 
Q 384 513 384 1019 
Q 384 1609 779 1909 
Q 1175 2209 1959 2209 
L 2766 2209 
L 2766 2266 
Q 2766 2663 2505 2880 
Q 2244 3097 1772 3097 
Q 1472 3097 1187 3025 
Q 903 2953 641 2809 
L 641 3341 
Q 956 3463 1253 3523 
Q 1550 3584 1831 3584 
Q 2591 3584 2966 3190 
Q 3341 2797 3341 1997 
z
" transform="scale(0.015625)"/>
       <path id="DejaVuSans-77" d="M 269 3500 
L 844 3500 
L 1563 769 
L 2278 3500 
L 2956 3500 
L 3675 769 
L 4391 3500 
L 4966 3500 
L 4050 0 
L 3372 0 
L 2619 2869 
L 1863 0 
L 1184 0 
L 269 3500 
z
" transform="scale(0.015625)"/>
      </defs>
      <use xlink:href="#DejaVuSans-72"/>
      <use xlink:href="#DejaVuSans-61" x="41.113281"/>
      <use xlink:href="#DejaVuSans-77" x="102.392578"/>
     </g>
    </g>
    <g id="line2d_26">
     <path d="M 386.354688 38.576563 
L 396.354688 38.576563 
L 406.354688 38.576563 
" style="fill: none; stroke: #ff7f0e; stroke-width: 1.5; stroke-linecap: square"/>
    </g>
    <g id="text_8">
     <!-- trend -->
     <g transform="translate(414.354688 42.076563)scale(0.1 -0.1)">
      <defs>
       <path id="DejaVuSans-74" d="M 1172 4494 
L 1172 3500 
L 2356 3500 
L 2356 3053 
L 1172 3053 
L 1172 1153 
Q 1172 725 1289 603 
Q 1406 481 1766 481 
L 2356 481 
L 2356 0 
L 1766 0 
Q 1100 0 847 248 
Q 594 497 594 1153 
L 594 3053 
L 172 3053 
L 172 3500 
L 594 3500 
L 594 4494 
L 1172 4494 
z
" transform="scale(0.015625)"/>
       <path id="DejaVuSans-65" d="M 3597 1894 
L 3597 1613 
L 953 1613 
Q 991 1019 1311 708 
Q 1631 397 2203 397 
Q 2534 397 2845 478 
Q 3156 559 3463 722 
L 3463 178 
Q 3153 47 2828 -22 
Q 2503 -91 2169 -91 
Q 1331 -91 842 396 
Q 353 884 353 1716 
Q 353 2575 817 3079 
Q 1281 3584 2069 3584 
Q 2775 3584 3186 3129 
Q 3597 2675 3597 1894 
z
M 3022 2063 
Q 3016 2534 2758 2815 
Q 2500 3097 2075 3097 
Q 1594 3097 1305 2825 
Q 1016 2553 972 2059 
L 3022 2063 
z
" transform="scale(0.015625)"/>
       <path id="DejaVuSans-6e" d="M 3513 2113 
L 3513 0 
L 2938 0 
L 2938 2094 
Q 2938 2591 2744 2837 
Q 2550 3084 2163 3084 
Q 1697 3084 1428 2787 
Q 1159 2491 1159 1978 
L 1159 0 
L 581 0 
L 581 3500 
L 1159 3500 
L 1159 2956 
Q 1366 3272 1645 3428 
Q 1925 3584 2291 3584 
Q 2894 3584 3203 3211 
Q 3513 2838 3513 2113 
z
" transform="scale(0.015625)"/>
       <path id="DejaVuSans-64" d="M 2906 2969 
L 2906 4863 
L 3481 4863 
L 3481 0 
L 2906 0 
L 2906 525 
Q 2725 213 2448 61 
Q 2172 -91 1784 -91 
Q 1150 -91 751 415 
Q 353 922 353 1747 
Q 353 2572 751 3078 
Q 1150 3584 1784 3584 
Q 2172 3584 2448 3432 
Q 2725 3281 2906 2969 
z
M 947 1747 
Q 947 1113 1208 752 
Q 1469 391 1925 391 
Q 2381 391 2643 752 
Q 2906 1113 2906 1747 
Q 2906 2381 2643 2742 
Q 2381 3103 1925 3103 
Q 1469 3103 1208 2742 
Q 947 2381 947 1747 
z
" transform="scale(0.015625)"/>
      </defs>
      <use xlink:href="#DejaVuSans-74"/>
      <use xlink:href="#DejaVuSans-72" x="39.208984"/>
      <use xlink:href="#DejaVuSans-65" x="78.072266"/>
      <use xlink:href="#DejaVuSans-6e" x="139.595703"/>
      <use xlink:href="#DejaVuSans-64" x="202.974609"/>
     </g>
    </g>
   </g>
  </g>
  <g id="axes_2">
   <g id="patch_8">
    <path d="M 54.74 303.64 
L 450 303.64 
L 450 164.37 
L 54.74 164.37 
z
" style="fill: #ffffff"/>
   </g>
   <g id="matplotlib.axis_3">
    <g id="xtick_7">
     <g id="line2d_27">
      <path d="M 72.706364 303.64 
L 72.706364 164.37 
" clip-path="url(#p3e2b4eb73d)" style="fill: none; stroke: #b0b0b0; stroke-width: 0.8; stroke-linecap: square"/>
     </g>
     <g id="line2d_28">
      <g>
       <use xlink:href="#m8f3bbb9eff" x="72.706364" y="303.64" style="stroke: #000000; stroke-width: 0.8"/>
      </g>
     </g>
     <g id="text_9">
      <!-- 0.0 -->
      <g transform="translate(64.754801 318.238437)scale(0.1 -0.1)">
       <use xlink:href="#DejaVuSans-30"/>
       <use xlink:href="#DejaVuSans-2e" x="63.623047"/>
       <use xlink:href="#DejaVuSans-30" x="95.410156"/>
      </g>
     </g>
    </g>
    <g id="xtick_8">
     <g id="line2d_29">
      <path d="M 144.860434 303.64 
L 144.860434 164.37 
" clip-path="url(#p3e2b4eb73d)" style="fill: none; stroke: #b0b0b0; stroke-width: 0.8; stroke-linecap: square"/>
     </g>
     <g id="line2d_30">
      <g>
       <use xlink:href="#m8f3bbb9eff" x="144.860434" y="303.64" style="stroke: #000000; stroke-width: 0.8"/>
      </g>
     </g>
     <g id="text_10">
      <!-- 0.5 -->
      <g transform="translate(136.908872 318.238437)scale(0.1 -0.1)">
       <use xlink:href="#DejaVuSans-30"/>
       <use xlink:href="#DejaVuSans-2e" x="63.623047"/>
       <use xlink:href="#DejaVuSans-35" x="95.410156"/>
      </g>
     </g>
    </g>
    <g id="xtick_9">
     <g id="line2d_31">
      <path d="M 217.014505 303.64 
L 217.014505 164.37 
" clip-path="url(#p3e2b4eb73d)" style="fill: none; stroke: #b0b0b0; stroke-width: 0.8; stroke-linecap: square"/>
     </g>
     <g id="line2d_32">
      <g>
       <use xlink:href="#m8f3bbb9eff" x="217.014505" y="303.64" style="stroke: #000000; stroke-width: 0.8"/>
      </g>
     </g>
     <g id="text_11">
      <!-- 1.0 -->
      <g transform="translate(209.062943 318.238437)scale(0.1 -0.1)">
       <use xlink:href="#DejaVuSans-31"/>
       <use xlink:href="#DejaVuSans-2e" x="63.623047"/>
       <use xlink:href="#DejaVuSans-30" x="95.410156"/>
      </g>
     </g>
    </g>
    <g id="xtick_10">
     <g id="line2d_33">
      <path d="M 289.168576 303.64 
L 289.168576 164.37 
" clip-path="url(#p3e2b4eb73d)" style="fill: none; stroke: #b0b0b0; stroke-width: 0.8; stroke-linecap: square"/>
     </g>
     <g id="line2d_34">
      <g>
       <use xlink:href="#m8f3bbb9eff" x="289.168576" y="303.64" style="stroke: #000000; stroke-width: 0.8"/>
      </g>
     </g>
     <g id="text_12">
      <!-- 1.5 -->
      <g transform="translate(281.217014 318.238437)scale(0.1 -0.1)">
       <use xlink:href="#DejaVuSans-31"/>
       <use xlink:href="#DejaVuSans-2e" x="63.623047"/>
       <use xlink:href="#DejaVuSans-35" x="95.410156"/>
      </g>
     </g>
    </g>
    <g id="xtick_11">
     <g id="line2d_35">
      <path d="M 361.322647 303.64 
L 361.322647 164.37 
" clip-path="url(#p3e2b4eb73d)" style="fill: none; stroke: #b0b0b0; stroke-width: 0.8; stroke-linecap: square"/>
     </g>
     <g id="line2d_36">
      <g>
       <use xlink:href="#m8f3bbb9eff" x="361.322647" y="303.64" style="stroke: #000000; stroke-width: 0.8"/>
      </g>
     </g>
     <g id="text_13">
      <!-- 2.0 -->
      <g transform="translate(353.371084 318.238437)scale(0.1 -0.1)">
       <use xlink:href="#DejaVuSans-32"/>
       <use xlink:href="#DejaVuSans-2e" x="63.623047"/>
       <use xlink:href="#DejaVuSans-30" x="95.410156"/>
      </g>
     </g>
    </g>
    <g id="xtick_12">
     <g id="line2d_37">
      <path d="M 433.476718 303.64 
L 433.476718 164.37 
" clip-path="url(#p3e2b4eb73d)" style="fill: none; stroke: #b0b0b0; stroke-width: 0.8; stroke-linecap: square"/>
     </g>
     <g id="line2d_38">
      <g>
       <use xlink:href="#m8f3bbb9eff" x="433.476718" y="303.64" style="stroke: #000000; stroke-width: 0.8"/>
      </g>
     </g>
     <g id="text_14">
      <!-- 2.5 -->
      <g transform="translate(425.525155 318.238437)scale(0.1 -0.1)">
       <use xlink:href="#DejaVuSans-32"/>
       <use xlink:href="#DejaVuSans-2e" x="63.623047"/>
       <use xlink:href="#DejaVuSans-35" x="95.410156"/>
      </g>
     </g>
    </g>
    <g id="text_15">
     <!-- time (s) -->
     <g transform="translate(232.978594 331.916562)scale(0.1 -0.1)">
      <defs>
       <path id="DejaVuSans-69" d="M 603 3500 
L 1178 3500 
L 1178 0 
L 603 0 
L 603 3500 
z
M 603 4863 
L 1178 4863 
L 1178 4134 
L 603 4134 
L 603 4863 
z
" transform="scale(0.015625)"/>
       <path id="DejaVuSans-6d" d="M 3328 2828 
Q 3544 3216 3844 3400 
Q 4144 3584 4550 3584 
Q 5097 3584 5394 3201 
Q 5691 2819 5691 2113 
L 5691 0 
L 5113 0 
L 5113 2094 
Q 5113 2597 4934 2840 
Q 4756 3084 4391 3084 
Q 3944 3084 3684 2787 
Q 3425 2491 3425 1978 
L 3425 0 
L 2847 0 
L 2847 2094 
Q 2847 2600 2669 2842 
Q 2491 3084 2119 3084 
Q 1678 3084 1418 2786 
Q 1159 2488 1159 1978 
L 1159 0 
L 581 0 
L 581 3500 
L 1159 3500 
L 1159 2956 
Q 1356 3278 1631 3431 
Q 1906 3584 2284 3584 
Q 2666 3584 2933 3390 
Q 3200 3197 3328 2828 
z
" transform="scale(0.015625)"/>
       <path id="DejaVuSans-20" transform="scale(0.015625)"/>
       <path id="DejaVuSans-28" d="M 1984 4856 
Q 1566 4138 1362 3434 
Q 1159 2731 1159 2009 
Q 1159 1288 1364 580 
Q 1569 -128 1984 -844 
L 1484 -844 
Q 1016 -109 783 600 
Q 550 1309 550 2009 
Q 550 2706 781 3412 
Q 1013 4119 1484 4856 
L 1984 4856 
z
" transform="scale(0.015625)"/>
       <path id="DejaVuSans-73" d="M 2834 3397 
L 2834 2853 
Q 2591 2978 2328 3040 
Q 2066 3103 1784 3103 
Q 1356 3103 1142 2972 
Q 928 2841 928 2578 
Q 928 2378 1081 2264 
Q 1234 2150 1697 2047 
L 1894 2003 
Q 2506 1872 2764 1633 
Q 3022 1394 3022 966 
Q 3022 478 2636 193 
Q 2250 -91 1575 -91 
Q 1294 -91 989 -36 
Q 684 19 347 128 
L 347 722 
Q 666 556 975 473 
Q 1284 391 1588 391 
Q 1994 391 2212 530 
Q 2431 669 2431 922 
Q 2431 1156 2273 1281 
Q 2116 1406 1581 1522 
L 1381 1569 
Q 847 1681 609 1914 
Q 372 2147 372 2553 
Q 372 3047 722 3315 
Q 1072 3584 1716 3584 
Q 2034 3584 2315 3537 
Q 2597 3491 2834 3397 
z
" transform="scale(0.015625)"/>
       <path id="DejaVuSans-29" d="M 513 4856 
L 1013 4856 
Q 1481 4119 1714 3412 
Q 1947 2706 1947 2009 
Q 1947 1309 1714 600 
Q 1481 -109 1013 -844 
L 513 -844 
Q 928 -128 1133 580 
Q 1338 1288 1338 2009 
Q 1338 2731 1133 3434 
Q 928 4138 513 4856 
z
" transform="scale(0.015625)"/>
      </defs>
      <use xlink:href="#DejaVuSans-74"/>
      <use xlink:href="#DejaVuSans-69" x="39.208984"/>
      <use xlink:href="#DejaVuSans-6d" x="66.992188"/>
      <use xlink:href="#DejaVuSans-65" x="164.404297"/>
      <use xlink:href="#DejaVuSans-20" x="225.927734"/>
      <use xlink:href="#DejaVuSans-28" x="257.714844"/>
      <use xlink:href="#DejaVuSans-73" x="296.728516"/>
      <use xlink:href="#DejaVuSans-29" x="348.828125"/>
     </g>
    </g>
   </g>
   <g id="matplotlib.axis_4">
    <g id="ytick_6">
     <g id="line2d_39">
      <path d="M 54.74 288.86014 
L 450 288.86014 
" clip-path="url(#p3e2b4eb73d)" style="fill: none; stroke: #b0b0b0; stroke-width: 0.8; stroke-linecap: square"/>
     </g>
     <g id="line2d_40">
      <g>
       <use xlink:href="#me4e29b3ede" x="54.74" y="288.86014" style="stroke: #000000; stroke-width: 0.8"/>
      </g>
     </g>
     <g id="text_16">
      <!-- −0.2 -->
      <g transform="translate(23.457188 292.659358)scale(0.1 -0.1)">
       <defs>
        <path id="DejaVuSans-2212" d="M 678 2272 
L 4684 2272 
L 4684 1741 
L 678 1741 
L 678 2272 
z
" transform="scale(0.015625)"/>
       </defs>
       <use xlink:href="#DejaVuSans-2212"/>
       <use xlink:href="#DejaVuSans-30" x="83.789062"/>
       <use xlink:href="#DejaVuSans-2e" x="147.412109"/>
       <use xlink:href="#DejaVuSans-32" x="179.199219"/>
      </g>
     </g>
    </g>
    <g id="ytick_7">
     <g id="line2d_41">
      <path d="M 54.74 247.117123 
L 450 247.117123 
" clip-path="url(#p3e2b4eb73d)" style="fill: none; stroke: #b0b0b0; stroke-width: 0.8; stroke-linecap: square"/>
     </g>
     <g id="line2d_42">
      <g>
       <use xlink:href="#me4e29b3ede" x="54.74" y="247.117123" style="stroke: #000000; stroke-width: 0.8"/>
      </g>
     </g>
     <g id="text_17">
      <!-- 0.0 -->
      <g transform="translate(31.836875 250.916342)scale(0.1 -0.1)">
       <use xlink:href="#DejaVuSans-30"/>
       <use xlink:href="#DejaVuSans-2e" x="63.623047"/>
       <use xlink:href="#DejaVuSans-30" x="95.410156"/>
      </g>
     </g>
    </g>
    <g id="ytick_8">
     <g id="line2d_43">
      <path d="M 54.74 205.374106 
L 450 205.374106 
" clip-path="url(#p3e2b4eb73d)" style="fill: none; stroke: #b0b0b0; stroke-width: 0.8; stroke-linecap: square"/>
     </g>
     <g id="line2d_44">
      <g>
       <use xlink:href="#me4e29b3ede" x="54.74" y="205.374106" style="stroke: #000000; stroke-width: 0.8"/>
      </g>
     </g>
     <g id="text_18">
      <!-- 0.2 -->
      <g transform="translate(31.836875 209.173325)scale(0.1 -0.1)">
       <use xlink:href="#DejaVuSans-30"/>
       <use xlink:href="#DejaVuSans-2e" x="63.623047"/>
       <use xlink:href="#DejaVuSans-32" x="95.410156"/>
      </g>
     </g>
    </g>
   </g>
   <g id="line2d_45">
    <path d="M 72.706364 211.380658 
L 74.149445 256.710792 
L 75.592526 273.822022 
L 77.035608 245.53089 
L 78.478689 259.739666 
L 79.921771 247.713392 
L 81.364852 233.46573 
L 82.807934 246.517976 
L 84.251015 262.857181 
L 85.694096 251.200309 
L 87.137178 221.68176 
L 88.580259 261.983467 
L 90.023341 271.646453 
L 91.466422 241.858829 
L 92.909503 240.695328 
L 94.352585 228.941891 
L 95.795666 225.985725 
L 97.238748 236.233255 
L 98.681829 251.753796 
L 100.124911 252.720159 
L 101.567992 236.048371 
L 103.011073 239.410975 
L 104.454155 274.264154 
L 105.897236 240.148885 
L 107.340318 262.859905 
L 108.783399 246.344294 
L 110.22648 264.845289 
L 111.669562 223.631797 
L 113.112643 248.939147 
L 114.555725 251.103265 
L 115.998806 262.068713 
L 117.441888 243.061981 
L 118.884969 246.956648 
L 120.32805 234.318278 
L 121.771132 247.005168 
L 123.214213 193.811078 
L 124.657295 261.114712 
L 126.100376 254.386539 
L 127.543457 227.601639 
L 128.986539 265.357559 
L 130.42962 239.657019 
L 131.872702 243.909775 
L 133.315783 242.646857 
L 134.758865 246.222834 
L 136.201946 233.047974 
L 137.645027 278.907577 
L 139.088109 249.635785 
L 140.53119 229.609806 
L 141.974272 273.024986 
L 143.417353 236.462625 
L 144.860434 221.704053 
L 146.303516 240.205336 
L 147.746597 263.326932 
L 149.189679 245.245468 
L 150.63276 237.512599 
L 152.075842 250.042238 
L 153.518923 274.462934 
L 154.962004 260.765491 
L 156.405086 270.415299 
L 157.848167 262.87629 
L 159.291249 287.276738 
L 160.73433 254.83366 
L 162.177411 276.360863 
L 163.620493 240.604196 
L 165.063574 234.584463 
L 166.506656 233.62757 
L 167.949737 264.170297 
L 169.392819 276.64402 
L 170.8359 230.072023 
L 172.278981 244.96153 
L 173.722063 263.5926 
L 175.165144 256.003781 
L 176.608226 265.154744 
L 178.051307 228.258508 
L 179.494388 228.590645 
L 180.93747 248.967407 
L 182.380551 258.105491 
L 183.823633 257.767416 
L 185.266714 245.970503 
L 186.709796 252.456062 
L 188.152877 239.111304 
L 189.595958 253.522278 
L 191.03904 269.692988 
L 192.482121 266.25385 
L 193.925203 265.015158 
L 195.368284 250.775872 
L 196.811365 267.156525 
L 198.254447 245.642135 
L 199.697528 261.356913 
L 201.14061 256.801148 
L 202.583691 284.187269 
L 204.026773 258.25706 
L 206.912935 237.232284 
L 208.356017 211.074657 
L 209.799098 200.776666 
L 211.24218 195.323034 
L 212.685261 170.700455 
L 214.128342 219.877845 
L 215.571424 193.267749 
L 217.014505 199.480767 
L 218.457587 223.976713 
L 219.900668 238.556455 
L 221.34375 222.070636 
L 222.786831 203.599549 
L 224.229912 228.526092 
L 225.672994 216.879323 
L 227.116075 267.796677 
L 228.559157 213.184997 
L 230.002238 238.982083 
L 231.445319 223.799539 
L 232.888401 260.385926 
L 234.331482 264.58447 
L 235.774564 272.304902 
L 237.217645 254.687124 
L 238.660727 235.524055 
L 240.103808 242.794413 
L 241.546889 219.218678 
L 242.989971 257.765688 
L 244.433052 227.133263 
L 245.876134 268.537138 
L 247.319215 233.270991 
L 248.762296 244.705802 
L 250.205378 224.192394 
L 251.648459 249.498499 
L 253.091541 241.53432 
L 254.534622 263.307111 
L 255.977704 272.518087 
L 257.420785 250.661456 
L 258.863866 271.759737 
L 260.306948 253.638833 
L 261.750029 261.288731 
L 263.193111 231.922212 
L 264.636192 254.322248 
L 266.079273 263.057947 
L 267.522355 239.623488 
L 268.965436 281.614052 
L 270.408518 247.373027 
L 271.851599 240.443833 
L 273.294681 249.370411 
L 274.737762 259.392112 
L 276.180843 261.035617 
L 277.623925 269.942431 
L 279.067006 269.369145 
L 280.510088 248.079983 
L 281.953169 263.794791 
L 283.39625 252.624768 
L 284.839332 268.324254 
L 286.282413 261.985212 
L 287.725495 260.484702 
L 289.168576 280.78603 
L 290.611658 287.64009 
L 292.054739 270.031382 
L 293.49782 273.562915 
L 294.940902 253.732741 
L 296.383983 291.17244 
L 297.827065 279.474205 
L 299.270146 283.407612 
L 300.713227 268.384444 
L 302.156309 289.040214 
L 303.59939 292.94195 
L 305.042472 244.179592 
L 306.485553 263.920905 
L 307.928635 297.309545 
L 309.371716 266.136781 
L 310.814797 286.503339 
L 312.257879 256.62779 
L 313.70096 237.093862 
L 315.144042 244.644484 
L 316.587123 235.218258 
L 318.030204 244.063767 
L 319.473286 186.583392 
L 320.916367 180.41997 
L 322.359449 216.540663 
L 323.80253 206.162035 
L 325.245612 192.243342 
L 326.688693 195.933591 
L 328.131774 238.602088 
L 329.574856 212.959719 
L 331.017937 221.0076 
L 332.461019 195.992822 
L 333.9041 229.121524 
L 335.347181 239.541236 
L 336.790263 240.469938 
L 338.233344 238.736745 
L 339.676426 220.462051 
L 341.119507 240.721871 
L 342.562589 232.322656 
L 344.00567 217.955503 
L 345.448751 226.480059 
L 346.891833 243.35578 
L 348.334914 237.078595 
L 349.777996 237.829972 
L 351.221077 245.60952 
L 352.664158 225.828877 
L 354.10724 239.732578 
L 355.550321 239.954532 
L 356.993403 276.944296 
L 359.879566 259.205447 
L 361.322647 268.364597 
L 362.765728 261.416564 
L 364.20881 221.6177 
L 365.651891 242.156807 
L 367.094973 236.893993 
L 368.538054 254.296032 
L 369.981135 236.422129 
L 371.424217 250.46502 
L 372.867298 256.108342 
L 374.31038 250.707975 
L 375.753461 242.414763 
L 377.196543 246.869933 
L 378.639624 249.973466 
L 380.082705 233.219225 
L 381.525787 253.665864 
L 382.968868 276.724937 
L 384.41195 244.675915 
L 385.855031 263.264958 
L 387.298112 256.486171 
L 388.741194 254.961525 
L 390.184275 246.573717 
L 391.627357 248.065461 
L 393.070438 272.434276 
L 394.51352 241.471192 
L 395.956601 264.447228 
L 397.399682 251.036603 
L 398.842764 256.976089 
L 400.285845 271.029575 
L 401.728927 277.99545 
L 403.172008 263.112709 
L 404.615089 225.279283 
L 406.058171 261.429054 
L 407.501252 239.157861 
L 408.944334 258.924465 
L 410.387415 235.029467 
L 411.830497 238.630986 
L 413.273578 222.142467 
L 414.716659 252.536218 
L 416.159741 246.095573 
L 417.602822 262.96336 
L 419.045904 244.758037 
L 420.488985 241.268066 
L 421.932066 258.881719 
L 423.375148 264.552577 
L 424.818229 251.009962 
L 426.261311 231.030992 
L 427.704392 241.626389 
L 429.147474 232.786194 
L 430.590555 237.115011 
L 432.033636 232.361365 
L 432.033636 232.361365 
" clip-path="url(#p3e2b4eb73d)" style="fill: none; stroke: #1f77b4; stroke-width: 1.5; stroke-linecap: square"/>
   </g>
   <g id="patch_9">
    <path d="M 54.74 303.64 
L 54.74 164.37 
" style="fill: none; stroke: #000000; stroke-width: 0.8; stroke-linejoin: miter; stroke-linecap: square"/>
   </g>
   <g id="patch_10">
    <path d="M 450 303.64 
L 450 164.37 
" style="fill: none; stroke: #000000; stroke-width: 0.8; stroke-linejoin: miter; stroke-linecap: square"/>
   </g>
   <g id="patch_11">
    <path d="M 54.74 303.64 
L 450 303.64 
" style="fill: none; stroke: #000000; stroke-width: 0.8; stroke-linejoin: miter; stroke-linecap: square"/>
   </g>
   <g id="patch_12">
    <path d="M 54.74 164.37 
L 450 164.37 
" style="fill: none; stroke: #000000; stroke-width: 0.8; stroke-linejoin: miter; stroke-linecap: square"/>
   </g>
  </g>
 </g>
 <defs>
  <clipPath id="p8c7b0af8d2">
   <rect x="54.74" y="10.8" width="395.26" height="139.27"/>
  </clipPath>
  <clipPath id="p3e2b4eb73d">
   <rect x="54.74" y="164.37" width="395.26" height="139.27"/>
  </clipPath>
 </defs>
</svg>
