<?xml version="1.0" encoding="utf-8" standalone="no"?>
<!DOCTYPE svg PUBLIC "-//W3C//DTD SVG 1.1//EN"
  "http://www.w3.org/Graphics/SVG/1.1/DTD/svg11.dtd">
<svg xmlns:xlink="http://www.w3.org/1999/xlink" width="460.8pt" height="345.6pt" viewBox="0 0 460.8 345.6" xmlns="http://www.w3.org/2000/svg" version="1.1">
 <metadata>
  <rdf:RDF xmlns:dc="http://purl.org/dc/elements/1.1/" xmlns:cc="http://creativecommons.org/ns#" xmlns:rdf="http://www.w3.org/1999/02/22-rdf-syntax-ns#">
   <cc:Work>
    <dc:type rdf:resource="http://purl.org/dc/dcmitype/StillImage"/>
    <dc:date>2022-06-14T10:17:26.209804</dc:date>
    <dc:format>image/svg+xml</dc:format>
    <dc:creator>
     <cc:Agent>
      <dc:title>Matplotlib v3.5.2, https://matplotlib.org/</dc:title>
     </cc:Agent>
    </dc:creator>
   </cc:Work>
  </rdf:RDF>
 </metadata>
 <defs>
  <style type="text/css">*{stroke-linejoin: round; stroke-linecap: butt}</style>
 </defs>
 <g id="figure_1">
  <g id="patch_1">
   <path d="M 0 345.6 
L 460.8 345.6 
L 460.8 0 
L 0 0 
z
" style="fill: #ffffff"/>
  </g>
  <g id="axes_1">
   <g id="patch_2">
    <path d="M 63.74 98.88 
L 442.125 98.88 
L 442.125 10.8 
L 63.74 10.8 
z
" style="fill: #ffffff"/>
   </g>
   <g id="matplotlib.axis_1">
    <g id="xtick_1">
     <g id="line2d_1">
      <defs>
       <path id="m95ccdb6880" d="M 0 0 
L 0 3.5 
" style="stroke: #000000; stroke-width: 0.8"/>
      </defs>
      <g>
       <use xlink:href="#m95ccdb6880" x="63.74" y="98.88" style="stroke: #000000; stroke-width: 0.8"/>
      </g>
     </g>
    </g>
    <g id="xtick_2">
     <g id="line2d_2">
      <g>
       <use xlink:href="#m95ccdb6880" x="139.417" y="98.88" style="stroke: #000000; stroke-width: 0.8"/>
      </g>
     </g>
    </g>
    <g id="xtick_3">
     <g id="line2d_3">
      <g>
       <use xlink:href="#m95ccdb6880" x="215.094" y="98.88" style="stroke: #000000; stroke-width: 0.8"/>
      </g>
     </g>
    </g>
    <g id="xtick_4">
     <g id="line2d_4">
      <g>
       <use xlink:href="#m95ccdb6880" x="290.771" y="98.88" style="stroke: #000000; stroke-width: 0.8"/>
      </g>
     </g>
    </g>
    <g id="xtick_5">
     <g id="line2d_5">
      <g>
       <use xlink:href="#m95ccdb6880" x="366.448" y="98.88" style="stroke: #000000; stroke-width: 0.8"/>
      </g>
     </g>
    </g>
    <g id="xtick_6">
     <g id="line2d_6">
      <g>
       <use xlink:href="#m95ccdb6880" x="442.125" y="98.88" style="stroke: #000000; stroke-width: 0.8"/>
      </g>
     </g>
    </g>
   </g>
   <g id="matplotlib.axis_2">
    <g id="ytick_1">
     <g id="line2d_7">
      <defs>
       <path id="mfafd974b4b" d="M 0 0 
L -3.5 0 
" style="stroke: #000000; stroke-width: 0.8"/>
      </defs>
      <g>
       <use xlink:href="#mfafd974b4b" x="63.74" y="82.317627" style="stroke: #000000; stroke-width: 0.8"/>
      </g>
     </g>
     <g id="text_1">
      <!-- −0.2 -->
      <g transform="translate(32.457188 86.116846)scale(0.1 -0.1)">
       <defs>
        <path id="DejaVuSans-2212" d="M 678 2272 
L 4684 2272 
L 4684 1741 
L 678 1741 
L 678 2272 
z
" transform="scale(0.015625)"/>
        <path id="DejaVuSans-30" d="M 2034 4250 
Q 1547 4250 1301 3770 
Q 1056 3291 1056 2328 
Q 1056 1369 1301 889 
Q 1547 409 2034 409 
Q 2525 409 2770 889 
Q 3016 1369 3016 2328 
Q 3016 3291 2770 3770 
Q 2525 4250 2034 4250 
z
M 2034 4750 
Q 2819 4750 3233 4129 
Q 3647 3509 3647 2328 
Q 3647 1150 3233 529 
Q 2819 -91 2034 -91 
Q 1250 -91 836 529 
Q 422 1150 422 2328 
Q 422 3509 836 4129 
Q 1250 4750 2034 4750 
z
" transform="scale(0.015625)"/>
        <path id="DejaVuSans-2e" d="M 684 794 
L 1344 794 
L 1344 0 
L 684 0 
L 684 794 
z
" transform="scale(0.015625)"/>
        <path id="DejaVuSans-32" d="M 1228 531 
L 3431 531 
L 3431 0 
L 469 0 
L 469 531 
Q 828 903 1448 1529 
Q 2069 2156 2228 2338 
Q 2531 2678 2651 2914 
Q 2772 3150 2772 3378 
Q 2772 3750 2511 3984 
Q 2250 4219 1831 4219 
Q 1534 4219 1204 4116 
Q 875 4013 500 3803 
L 500 4441 
Q 881 4594 1212 4672 
Q 1544 4750 1819 4750 
Q 2544 4750 2975 4387 
Q 3406 4025 3406 3419 
Q 3406 3131 3298 2873 
Q 3191 2616 2906 2266 
Q 2828 2175 2409 1742 
Q 1991 1309 1228 531 
z
" transform="scale(0.015625)"/>
       </defs>
       <use xlink:href="#DejaVuSans-2212"/>
       <use xlink:href="#DejaVuSans-30" x="83.789062"/>
       <use xlink:href="#DejaVuSans-2e" x="147.412109"/>
       <use xlink:href="#DejaVuSans-32" x="179.199219"/>
      </g>
     </g>
    </g>
    <g id="ytick_2">
     <g id="line2d_8">
      <g>
       <use xlink:href="#mfafd974b4b" x="63.74" y="55.953344" style="stroke: #000000; stroke-width: 0.8"/>
      </g>
     </g>
     <g id="text_2">
      <!-- 0.0 -->
      <g transform="translate(40.836875 59.752563)scale(0.1 -0.1)">
       <use xlink:href="#DejaVuSans-30"/>
       <use xlink:href="#DejaVuSans-2e" x="63.623047"/>
       <use xlink:href="#DejaVuSans-30" x="95.410156"/>
      </g>
     </g>
    </g>
    <g id="ytick_3">
     <g id="line2d_9">
      <g>
       <use xlink:href="#mfafd974b4b" x="63.74" y="29.589061" style="stroke: #000000; stroke-width: 0.8"/>
      </g>
     </g>
     <g id="text_3">
      <!-- 0.2 -->
      <g transform="translate(40.836875 33.38828)scale(0.1 -0.1)">
       <use xlink:href="#DejaVuSans-30"/>
       <use xlink:href="#DejaVuSans-2e" x="63.623047"/>
       <use xlink:href="#DejaVuSans-32" x="95.410156"/>
      </g>
     </g>
    </g>
   </g>
   <g id="line2d_10">
    <path d="M 71.3077 59.157508 
L 72.82124 49.193561 
L 74.33478 61.643612 
L 75.84832 62.961569 
L 77.36186 64.700551 
L 78.8754 47.373172 
L 80.38894 67.631758 
L 81.90248 76.340368 
L 83.41602 52.062885 
L 84.92956 53.817953 
L 86.4431 58.081526 
L 87.95664 44.391853 
L 89.47018 44.902925 
L 92.49726 66.255792 
L 94.0108 51.463497 
L 95.52434 51.428431 
L 97.03788 63.227421 
L 98.55142 50.391282 
L 100.06496 60.942244 
L 101.5785 63.282948 
L 103.09204 64.51227 
L 104.60558 50.571431 
L 106.11912 60.713372 
L 107.63266 65.707049 
L 109.1462 60.958953 
L 110.65974 49.392104 
L 112.17328 46.039498 
L 113.68682 38.930283 
L 115.20036 55.207427 
L 116.7139 31.258702 
L 118.22744 57.978424 
L 121.25452 46.835359 
L 122.76806 56.159558 
L 124.2816 52.400558 
L 125.79514 46.554697 
L 127.30868 55.603701 
L 128.82222 51.151698 
L 130.33576 43.916635 
L 131.8493 70.367552 
L 133.36284 50.188809 
L 134.87638 43.234219 
L 136.38992 71.21814 
L 137.90346 42.689329 
L 139.417 37.684884 
L 142.44408 62.75405 
L 143.95762 55.80162 
L 145.47116 41.471951 
L 146.9847 59.435568 
L 148.49824 72.248918 
L 150.01178 68.358736 
L 151.52532 69.47938 
L 153.03886 70.878144 
L 154.5524 65.595199 
L 156.06594 63.930907 
L 157.57948 79.247922 
L 159.09302 58.791233 
L 160.60656 53.088581 
L 162.1201 45.854067 
L 163.63364 63.673878 
L 165.14718 76.064217 
L 166.66072 50.174968 
L 168.17426 52.958894 
L 169.6878 62.701488 
L 171.20134 61.307313 
L 172.71488 67.706828 
L 174.22842 42.786139 
L 175.74196 36.655403 
L 177.2555 55.299934 
L 178.76904 58.492278 
L 180.28258 62.935772 
L 181.79612 58.469099 
L 183.30966 54.418257 
L 184.8232 61.083608 
L 186.33674 63.153617 
L 187.85028 69.397501 
L 189.36382 69.51475 
L 192.3909 56.519264 
L 193.90444 67.904714 
L 195.41798 50.752824 
L 196.93152 67.283722 
L 198.44506 64.185615 
L 199.9586 86.975224 
L 201.47214 58.677591 
L 202.98568 58.07706 
L 204.49922 53.715468 
L 206.01276 28.750136 
L 207.5263 32.456049 
L 210.55338 14.803636 
L 212.06692 35.342883 
L 213.58046 25.673557 
L 215.094 30.894793 
L 216.60754 42.654809 
L 218.12108 51.905853 
L 219.63462 47.373047 
L 221.14816 24.880466 
L 222.6617 48.457773 
L 224.17524 38.346112 
L 225.68878 69.989143 
L 227.20232 32.030725 
L 228.71586 49.74636 
L 230.2294 46.021897 
L 231.74294 69.993126 
L 233.25648 63.198037 
L 234.77002 65.585547 
L 236.28356 59.895389 
L 237.7971 52.391269 
L 239.31064 54.208719 
L 240.82418 38.900599 
L 242.33772 69.104623 
L 243.85126 49.332889 
L 245.3648 73.263613 
L 246.87834 50.837503 
L 248.39188 56.38466 
L 249.90542 44.109825 
L 251.41896 57.302597 
L 252.9325 57.962643 
L 254.44604 67.525932 
L 255.95958 70.95932 
L 257.47312 53.786445 
L 258.98666 74.608363 
L 260.5002 51.717484 
L 262.01374 61.531838 
L 263.52728 40.856779 
L 265.04082 62.35207 
L 266.55436 58.508019 
L 268.0679 59.66908 
L 269.58144 74.465276 
L 271.09498 60.442029 
L 272.60852 53.372404 
L 274.12206 59.241715 
L 275.6356 63.295208 
L 277.14914 61.217762 
L 278.66268 74.30615 
L 280.17622 64.699236 
L 281.68976 61.906302 
L 283.2033 70.659908 
L 284.71684 65.069693 
L 286.23038 67.545993 
L 287.74392 65.700369 
L 289.25746 70.529161 
L 290.771 71.175076 
L 292.28454 77.242503 
L 293.79808 73.559101 
L 295.31162 72.930745 
L 296.82516 57.679585 
L 298.3387 83.901165 
L 299.85224 72.115019 
L 301.36578 73.544862 
L 302.87932 67.311359 
L 304.39286 80.835867 
L 305.9064 83.912978 
L 307.41994 55.245769 
L 308.93348 74.036171 
L 310.44702 82.657343 
L 311.96056 69.83441 
L 313.4741 77.465017 
L 314.98764 69.079979 
L 316.50118 50.943 
L 318.01472 53.53773 
L 319.52826 51.530588 
L 321.0418 47.705403 
L 322.55534 24.245128 
L 324.06888 16.644438 
L 325.58242 34.646912 
L 327.09596 31.76132 
L 328.6095 24.412606 
L 330.12304 30.000082 
L 331.63658 50.194016 
L 333.15012 33.909735 
L 334.66366 47.264832 
L 336.1772 23.028007 
L 337.69074 44.437845 
L 339.20428 48.71729 
L 340.71782 51.873702 
L 342.23136 54.324593 
L 343.7449 34.494648 
L 345.25844 47.226659 
L 346.77198 48.813294 
L 348.28552 29.371627 
L 349.79906 38.176646 
L 351.3126 44.18777 
L 352.82614 52.555146 
L 354.33968 49.776774 
L 355.85322 54.643918 
L 357.36676 36.255194 
L 358.8803 53.072463 
L 360.39384 55.263812 
L 361.90738 79.437473 
L 363.42092 69.776143 
L 364.93446 63.166445 
L 366.448 65.176109 
L 367.96154 67.731745 
L 369.47508 39.93197 
L 370.98862 59.308372 
L 372.50216 51.530703 
L 374.0157 53.207194 
L 375.52924 46.659996 
L 377.04278 55.691394 
L 378.55632 51.348737 
L 380.06986 61.331772 
L 381.5834 51.816019 
L 383.09694 49.109276 
L 384.61048 49.592394 
L 386.12402 57.719544 
L 387.63756 60.406313 
L 389.1511 80.898207 
L 390.66464 62.82114 
L 392.17818 65.750536 
L 395.20526 49.997806 
L 396.7188 54.839502 
L 398.23234 52.987542 
L 399.74588 64.068358 
L 401.25942 51.612764 
L 402.77296 67.262063 
L 404.2865 52.275854 
L 405.80004 63.028072 
L 407.31358 69.313311 
L 408.82712 69.321959 
L 410.34066 69.178526 
L 411.8542 33.944971 
L 413.36774 63.841682 
L 414.88128 52.52354 
L 416.39482 59.705161 
L 417.90836 47.107824 
L 419.4219 51.06137 
L 420.93544 41.499588 
L 422.44898 62.964831 
L 423.96252 59.222209 
L 425.47606 65.766396 
L 426.9896 54.47991 
L 428.50314 54.73284 
L 430.01668 64.993965 
L 431.53022 71.900484 
L 433.04376 54.990644 
L 434.5573 44.6089 
L 436.07084 57.876173 
L 437.58438 50.945938 
L 439.09792 52.631502 
L 440.61146 57.364987 
L 440.61146 57.364987 
" clip-path="url(#p9afce15410)" style="fill: none; stroke: #1f77b4; stroke-width: 1.5; stroke-linecap: square"/>
   </g>
   <g id="line2d_11">
    <path d="M 154.5524 61.193292 
L 156.06594 56.658209 
L 157.57948 61.119405 
L 159.09302 56.341362 
L 160.60656 58.454624 
L 162.1201 56.516218 
L 163.63364 54.381153 
L 165.14718 54.704087 
L 166.66072 58.725625 
L 168.17426 59.601581 
L 169.6878 62.830681 
L 171.20134 55.185521 
L 172.71488 53.703833 
L 174.22842 57.158411 
L 175.74196 53.830228 
L 177.2555 56.259217 
L 178.76904 62.843282 
L 180.28258 62.110293 
L 181.79612 52.607052 
L 183.30966 51.37671 
L 184.8232 54.135116 
L 186.33674 59.408126 
L 187.85028 57.396357 
L 189.36382 50.842583 
L 190.87736 58.472358 
L 192.3909 54.238472 
L 193.90444 56.84786 
L 195.41798 54.569805 
L 196.93152 55.822027 
L 198.44506 51.329134 
L 199.9586 49.942252 
L 201.47214 50.239602 
L 202.98568 53.903318 
L 206.01276 45.843699 
L 207.5263 43.836946 
L 209.03984 48.077385 
L 210.55338 47.733737 
L 212.06692 52.078232 
L 213.58046 50.490733 
L 215.094 50.065072 
L 216.60754 52.825358 
L 218.12108 48.289463 
L 219.63462 50.366851 
L 221.14816 51.579692 
L 222.6617 43.642483 
L 224.17524 52.434671 
L 225.68878 55.230974 
L 227.20232 56.945038 
L 228.71586 54.565672 
L 230.2294 56.609798 
L 231.74294 60.075228 
L 233.25648 56.957527 
L 234.77002 65.945576 
L 236.28356 62.238275 
L 237.7971 56.219447 
L 239.31064 59.713312 
L 240.82418 57.041926 
L 242.33772 55.452282 
L 245.3648 59.444555 
L 246.87834 57.837935 
L 248.39188 58.695511 
L 249.90542 60.608627 
L 251.41896 58.64601 
L 252.9325 58.912613 
L 254.44604 55.284101 
L 255.95958 60.99617 
L 257.47312 52.886097 
L 258.98666 55.486389 
L 260.5002 62.709832 
L 262.01374 58.079082 
L 263.52728 61.800257 
L 265.04082 57.96329 
L 266.55436 65.116618 
L 268.0679 62.954883 
L 269.58144 62.69147 
L 271.09498 58.472245 
L 272.60852 63.797837 
L 274.12206 64.915405 
L 275.6356 60.290568 
L 278.66268 68.018037 
L 280.17622 64.182364 
L 281.68976 65.636231 
L 283.2033 63.465393 
L 284.71684 68.592628 
L 286.23038 58.4201 
L 287.74392 61.16804 
L 289.25746 60.654964 
L 290.771 57.824625 
L 292.28454 59.258177 
L 295.31162 68.298057 
L 296.82516 61.38087 
L 298.3387 65.302144 
L 299.85224 62.660725 
L 301.36578 64.167425 
L 302.87932 63.110945 
L 304.39286 58.383833 
L 305.9064 57.47535 
L 307.41994 57.305344 
L 308.93348 57.635335 
L 310.44702 54.969965 
L 311.96056 54.714047 
L 313.4741 44.620114 
L 314.98764 52.947043 
L 316.50118 47.297801 
L 318.01472 45.075424 
L 319.52826 42.25282 
L 321.0418 44.963329 
L 322.55534 47.359383 
L 324.06888 44.691448 
L 325.58242 42.361246 
L 327.09596 40.604575 
L 328.6095 46.035351 
L 330.12304 42.651711 
L 331.63658 44.639447 
L 333.15012 42.406564 
L 334.66366 45.935769 
L 336.1772 46.949238 
L 339.20428 44.780885 
L 342.23136 49.830707 
L 343.7449 55.415279 
L 345.25844 57.265948 
L 346.77198 49.472716 
L 348.28552 48.686212 
L 349.79906 55.686992 
L 351.3126 54.221044 
L 352.82614 60.001504 
L 354.33968 55.335271 
L 355.85322 51.423814 
L 357.36676 59.099332 
L 358.8803 55.306347 
L 360.39384 53.286734 
L 361.90738 51.944186 
L 363.42092 55.134853 
L 364.93446 54.177197 
L 367.96154 48.721711 
L 369.47508 45.604404 
L 370.98862 50.954839 
L 372.50216 51.191023 
L 374.0157 53.756379 
L 375.52924 55.535213 
L 377.04278 51.309672 
L 378.55632 56.540265 
L 380.06986 58.932809 
L 381.5834 58.597014 
L 383.09694 55.490003 
L 384.61048 63.260642 
L 386.12402 59.229483 
L 387.63756 62.886165 
L 389.1511 62.894948 
L 390.66464 64.097426 
L 392.17818 64.612401 
L 393.69172 66.428109 
L 395.20526 65.862964 
L 396.7188 59.455022 
L 398.23234 62.880088 
L 399.74588 59.332606 
L 401.25942 62.593015 
L 402.77296 59.054841 
L 404.2865 68.545923 
L 405.80004 63.188378 
L 407.31358 67.253983 
L 408.82712 60.596824 
L 410.34066 70.697359 
L 411.8542 66.73005 
L 413.36774 66.958543 
L 414.88128 65.242868 
L 416.39482 64.811993 
L 417.90836 60.140133 
L 419.4219 56.678948 
L 420.93544 59.068345 
L 422.44898 58.413947 
L 423.96252 53.749211 
L 425.47606 57.333299 
L 426.9896 56.45699 
L 428.50314 53.3543 
L 430.01668 51.862297 
L 431.53022 49.747961 
L 433.04376 44.904081 
L 434.5573 47.99174 
L 436.07084 43.943426 
L 437.58438 41.286309 
L 439.09792 50.714828 
L 440.61146 43.377012 
L 440.61146 43.377012 
" clip-path="url(#p9afce15410)" style="fill: none; stroke: #ff7f0e; stroke-width: 1.5; stroke-linecap: square"/>
   </g>
   <g id="patch_3">
    <path d="M 63.74 98.88 
L 63.74 10.8 
" style="fill: none; stroke: #000000; stroke-width: 0.8; stroke-linejoin: miter; stroke-linecap: square"/>
   </g>
   <g id="patch_4">
    <path d="M 63.74 98.88 
L 442.125 98.88 
" style="fill: none; stroke: #000000; stroke-width: 0.8; stroke-linejoin: miter; stroke-linecap: square"/>
   </g>
  </g>
  <g id="axes_2">
   <g id="patch_5">
    <path d="M 63.74 201.26 
L 442.125 201.26 
L 442.125 113.18 
L 63.74 113.18 
z
" style="fill: #ffffff"/>
   </g>
   <g id="matplotlib.axis_3">
    <g id="xtick_7">
     <g id="line2d_12">
      <g>
       <use xlink:href="#m95ccdb6880" x="63.74" y="201.26" style="stroke: #000000; stroke-width: 0.8"/>
      </g>
     </g>
    </g>
    <g id="xtick_8">
     <g id="line2d_13">
      <g>
       <use xlink:href="#m95ccdb6880" x="139.417" y="201.26" style="stroke: #000000; stroke-width: 0.8"/>
      </g>
     </g>
    </g>
    <g id="xtick_9">
     <g id="line2d_14">
      <g>
       <use xlink:href="#m95ccdb6880" x="215.094" y="201.26" style="stroke: #000000; stroke-width: 0.8"/>
      </g>
     </g>
    </g>
    <g id="xtick_10">
     <g id="line2d_15">
      <g>
       <use xlink:href="#m95ccdb6880" x="290.771" y="201.26" style="stroke: #000000; stroke-width: 0.8"/>
      </g>
     </g>
    </g>
    <g id="xtick_11">
     <g id="line2d_16">
      <g>
       <use xlink:href="#m95ccdb6880" x="366.448" y="201.26" style="stroke: #000000; stroke-width: 0.8"/>
      </g>
     </g>
    </g>
    <g id="xtick_12">
     <g id="line2d_17">
      <g>
       <use xlink:href="#m95ccdb6880" x="442.125" y="201.26" style="stroke: #000000; stroke-width: 0.8"/>
      </g>
     </g>
    </g>
   </g>
   <g id="matplotlib.axis_4">
    <g id="ytick_4">
     <g id="line2d_18">
      <g>
       <use xlink:href="#mfafd974b4b" x="63.74" y="184.697627" style="stroke: #000000; stroke-width: 0.8"/>
      </g>
     </g>
     <g id="text_4">
      <!-- −0.2 -->
      <g transform="translate(32.457188 188.496846)scale(0.1 -0.1)">
       <use xlink:href="#DejaVuSans-2212"/>
       <use xlink:href="#DejaVuSans-30" x="83.789062"/>
       <use xlink:href="#DejaVuSans-2e" x="147.412109"/>
       <use xlink:href="#DejaVuSans-32" x="179.199219"/>
      </g>
     </g>
    </g>
    <g id="ytick_5">
     <g id="line2d_19">
      <g>
       <use xlink:href="#mfafd974b4b" x="63.74" y="158.333344" style="stroke: #000000; stroke-width: 0.8"/>
      </g>
     </g>
     <g id="text_5">
      <!-- 0.0 -->
      <g transform="translate(40.836875 162.132563)scale(0.1 -0.1)">
       <use xlink:href="#DejaVuSans-30"/>
       <use xlink:href="#DejaVuSans-2e" x="63.623047"/>
       <use xlink:href="#DejaVuSans-30" x="95.410156"/>
      </g>
     </g>
    </g>
    <g id="ytick_6">
     <g id="line2d_20">
      <g>
       <use xlink:href="#mfafd974b4b" x="63.74" y="131.969061" style="stroke: #000000; stroke-width: 0.8"/>
      </g>
     </g>
     <g id="text_6">
      <!-- 0.2 -->
      <g transform="translate(40.836875 135.76828)scale(0.1 -0.1)">
       <use xlink:href="#DejaVuSans-30"/>
       <use xlink:href="#DejaVuSans-2e" x="63.623047"/>
       <use xlink:href="#DejaVuSans-32" x="95.410156"/>
      </g>
     </g>
    </g>
    <g id="text_7">
     <!-- $\Delta F/F$ (%) -->
     <g transform="translate(26.3775 178.32)rotate(-90)scale(0.1 -0.1)">
      <defs>
       <path id="DejaVuSans-394" d="M 2188 4044 
L 906 525 
L 3472 525 
L 2188 4044 
z
M 50 0 
L 1831 4666 
L 2547 4666 
L 4325 0 
L 50 0 
z
" transform="scale(0.015625)"/>
       <path id="DejaVuSans-Oblique-46" d="M 1081 4666 
L 3756 4666 
L 3653 4134 
L 1606 4134 
L 1338 2759 
L 3188 2759 
L 3084 2228 
L 1234 2228 
L 800 0 
L 172 0 
L 1081 4666 
z
" transform="scale(0.015625)"/>
       <path id="DejaVuSans-2f" d="M 1625 4666 
L 2156 4666 
L 531 -594 
L 0 -594 
L 1625 4666 
z
" transform="scale(0.015625)"/>
       <path id="DejaVuSans-20" transform="scale(0.015625)"/>
       <path id="DejaVuSans-28" d="M 1984 4856 
Q 1566 4138 1362 3434 
Q 1159 2731 1159 2009 
Q 1159 1288 1364 580 
Q 1569 -128 1984 -844 
L 1484 -844 
Q 1016 -109 783 600 
Q 550 1309 550 2009 
Q 550 2706 781 3412 
Q 1013 4119 1484 4856 
L 1984 4856 
z
" transform="scale(0.015625)"/>
       <path id="DejaVuSans-25" d="M 4653 2053 
Q 4381 2053 4226 1822 
Q 4072 1591 4072 1178 
Q 4072 772 4226 539 
Q 4381 306 4653 306 
Q 4919 306 5073 539 
Q 5228 772 5228 1178 
Q 5228 1588 5073 1820 
Q 4919 2053 4653 2053 
z
M 4653 2450 
Q 5147 2450 5437 2106 
Q 5728 1763 5728 1178 
Q 5728 594 5436 251 
Q 5144 -91 4653 -91 
Q 4153 -91 3862 251 
Q 3572 594 3572 1178 
Q 3572 1766 3864 2108 
Q 4156 2450 4653 2450 
z
M 1428 4353 
Q 1159 4353 1004 4120 
Q 850 3888 850 3481 
Q 850 3069 1003 2837 
Q 1156 2606 1428 2606 
Q 1700 2606 1854 2837 
Q 2009 3069 2009 3481 
Q 2009 3884 1853 4118 
Q 1697 4353 1428 4353 
z
M 4250 4750 
L 4750 4750 
L 1831 -91 
L 1331 -91 
L 4250 4750 
z
M 1428 4750 
Q 1922 4750 2215 4408 
Q 2509 4066 2509 3481 
Q 2509 2891 2217 2550 
Q 1925 2209 1428 2209 
Q 931 2209 642 2551 
Q 353 2894 353 3481 
Q 353 4063 643 4406 
Q 934 4750 1428 4750 
z
" transform="scale(0.015625)"/>
       <path id="DejaVuSans-29" d="M 513 4856 
L 1013 4856 
Q 1481 4119 1714 3412 
Q 1947 2706 1947 2009 
Q 1947 1309 1714 600 
Q 1481 -109 1013 -844 
L 513 -844 
Q 928 -128 1133 580 
Q 1338 1288 1338 2009 
Q 1338 2731 1133 3434 
Q 928 4138 513 4856 
z
" transform="scale(0.015625)"/>
      </defs>
      <use xlink:href="#DejaVuSans-394" transform="translate(0 0.125)"/>
      <use xlink:href="#DejaVuSans-Oblique-46" transform="translate(68.408203 0.125)"/>
      <use xlink:href="#DejaVuSans-2f" transform="translate(125.927734 0.125)"/>
      <use xlink:href="#DejaVuSans-Oblique-46" transform="translate(159.619141 0.125)"/>
      <use xlink:href="#DejaVuSans-20" transform="translate(217.138672 0.125)"/>
      <use xlink:href="#DejaVuSans-28" transform="translate(248.925781 0.125)"/>
      <use xlink:href="#DejaVuSans-25" transform="translate(287.939453 0.125)"/>
      <use xlink:href="#DejaVuSans-29" transform="translate(382.958984 0.125)"/>
     </g>
    </g>
   </g>
   <g id="line2d_21">
    <path d="M 71.3077 168.789056 
L 72.82124 164.704334 
L 74.33478 156.142642 
L 75.84832 159.564465 
L 77.36186 163.79296 
L 78.8754 153.383754 
L 80.38894 161.2578 
L 81.90248 165.467825 
L 83.41602 151.585535 
L 84.92956 152.125452 
L 86.4431 166.884378 
L 87.95664 165.379982 
L 89.47018 146.189771 
L 90.98372 146.095797 
L 92.49726 168.755958 
L 94.0108 168.040319 
L 95.52434 153.703247 
L 97.03788 148.301699 
L 98.55142 144.316712 
L 100.06496 151.299439 
L 101.5785 150.350842 
L 103.09204 148.177054 
L 104.60558 195.582008 
L 106.11912 130.806058 
L 107.63266 156.861662 
L 109.1462 164.825245 
L 110.65974 153.680747 
L 112.17328 160.819865 
L 113.68682 141.331958 
L 115.20036 175.080795 
L 116.7139 151.720293 
L 118.22744 180.986922 
L 119.74098 164.524323 
L 121.25452 149.681761 
L 122.76806 165.519092 
L 124.2816 162.045282 
L 125.79514 171.368422 
L 127.30868 142.278185 
L 128.82222 151.590105 
L 130.33576 168.008988 
L 131.8493 169.993993 
L 133.36284 163.235176 
L 134.87638 139.603926 
L 136.38992 155.797431 
L 137.90346 181.130142 
L 139.417 150.369852 
L 140.93054 161.66974 
L 142.44408 148.375088 
L 143.95762 145.642222 
L 145.47116 159.161198 
L 146.9847 161.904351 
L 148.49824 157.123148 
L 150.01178 157.620193 
L 151.52532 182.700992 
L 153.03886 163.475453 
L 154.5524 165.582251 
L 156.06594 148.98792 
L 157.57948 142.142668 
L 159.09302 166.384156 
L 160.60656 160.138059 
L 162.1201 149.415997 
L 163.63364 153.523476 
L 165.14718 164.738317 
L 166.66072 157.658581 
L 168.17426 142.851499 
L 169.6878 150.799437 
L 171.20134 150.410418 
L 172.71488 161.396376 
L 174.22842 145.349571 
L 175.74196 164.04758 
L 177.2555 158.964309 
L 178.76904 145.137737 
L 180.28258 167.681754 
L 181.79612 158.925566 
L 183.30966 171.908476 
L 184.8232 173.912781 
L 186.33674 160.670969 
L 187.85028 155.552857 
L 189.36382 132.343645 
L 190.87736 143.676203 
L 192.3909 146.672047 
L 193.90444 174.252128 
L 195.41798 142.285184 
L 196.93152 145.266512 
L 198.44506 146.61731 
L 199.9586 172.552417 
L 201.47214 147.882056 
L 202.98568 154.298938 
L 204.49922 170.262222 
L 206.01276 161.225262 
L 207.5263 181.243442 
L 209.03984 171.790669 
L 210.55338 148.514567 
L 212.06692 155.106518 
L 213.58046 166.977445 
L 215.094 167.057252 
L 216.60754 149.859132 
L 218.12108 158.464822 
L 219.63462 169.504538 
L 221.14816 152.699166 
L 222.6617 163.323381 
L 224.17524 153.418306 
L 225.68878 149.808425 
L 227.20232 142.739403 
L 228.71586 192.972738 
L 230.2294 151.551374 
L 233.25648 158.313499 
L 234.77002 148.783777 
L 236.28356 173.796346 
L 237.7971 161.819313 
L 239.31064 161.827668 
L 240.82418 173.414997 
L 242.33772 155.938187 
L 243.85126 145.56964 
L 245.3648 153.283021 
L 246.87834 177.452621 
L 248.39188 166.664897 
L 249.90542 150.18292 
L 251.41896 175.559171 
L 252.9325 134.276507 
L 254.44604 151.51579 
L 255.95958 154.932263 
L 257.47312 155.906022 
L 258.98666 179.229392 
L 260.5002 145.648285 
L 262.01374 161.647723 
L 263.52728 151.631499 
L 265.04082 159.900643 
L 266.55436 160.443568 
L 268.0679 142.286647 
L 269.58144 170.662123 
L 271.09498 162.454809 
L 272.60852 156.885344 
L 274.12206 171.227077 
L 275.6356 157.724345 
L 277.14914 177.341863 
L 278.66268 180.90146 
L 280.17622 151.536253 
L 281.68976 159.355661 
L 283.2033 161.277982 
L 284.71684 141.858844 
L 286.23038 159.014725 
L 287.74392 159.096711 
L 289.25746 155.313836 
L 290.771 165.752311 
L 292.28454 165.416628 
L 293.79808 144.552452 
L 295.31162 160.873047 
L 296.82516 157.27483 
L 298.3387 153.063308 
L 299.85224 159.618573 
L 301.36578 146.864727 
L 302.87932 165.402484 
L 304.39286 166.256889 
L 305.9064 170.765603 
L 307.41994 170.393586 
L 308.93348 158.028308 
L 310.44702 150.943116 
L 311.96056 153.608772 
L 313.4741 163.993137 
L 314.98764 168.277564 
L 316.50118 139.840819 
L 318.01472 166.268867 
L 319.52826 167.697973 
L 321.0418 162.214348 
L 322.55534 152.459811 
L 324.06888 153.269125 
L 325.58242 148.181837 
L 327.09596 155.487374 
L 328.6095 153.644895 
L 330.12304 146.718728 
L 331.63658 157.062615 
L 333.15012 141.798068 
L 334.66366 154.777255 
L 336.1772 137.270867 
L 337.69074 156.949736 
L 339.20428 163.21318 
L 340.71782 154.029061 
L 342.23136 156.221862 
L 343.7449 151.705408 
L 345.25844 153.079085 
L 346.77198 131.283074 
L 348.28552 159.881458 
L 349.79906 166.326266 
L 351.3126 160.778297 
L 352.82614 168.02988 
L 355.85322 138.426213 
L 357.36676 175.541496 
L 358.8803 141.528334 
L 360.39384 180.263429 
L 361.90738 146.244387 
L 363.42092 187.005794 
L 364.93446 180.21184 
L 366.448 178.698615 
L 367.96154 165.599235 
L 369.47508 142.945876 
L 370.98862 154.836351 
L 372.50216 155.140724 
L 374.0157 173.325282 
L 375.52924 145.377112 
L 377.04278 170.668686 
L 378.55632 166.89768 
L 380.06986 148.695641 
L 381.5834 167.069713 
L 383.09694 167.55812 
L 384.61048 174.953189 
L 386.12402 154.91149 
L 387.63756 151.93727 
L 389.1511 163.185527 
L 390.66464 161.222165 
L 392.17818 175.919903 
L 393.69172 152.613746 
L 395.20526 141.701194 
L 396.7188 136.272933 
L 398.23234 176.159249 
L 399.74588 150.40441 
L 401.25942 160.006616 
L 402.77296 146.033342 
L 404.2865 143.031268 
L 405.80004 152.829353 
L 407.31358 157.544635 
L 408.82712 156.161055 
L 410.34066 162.903724 
L 411.8542 146.680666 
L 413.36774 160.734399 
L 414.88128 160.357496 
L 416.39482 163.432953 
L 417.90836 157.361415 
L 419.4219 152.303684 
L 420.93544 158.42056 
L 422.44898 162.706257 
L 423.96252 141.384562 
L 425.47606 138.553288 
L 426.9896 154.41567 
L 428.50314 153.408984 
L 430.01668 168.860615 
L 431.53022 163.378901 
L 433.04376 151.595386 
L 434.5573 165.61816 
L 436.07084 173.745599 
L 437.58438 169.474819 
L 439.09792 162.96662 
L 440.61146 163.568939 
L 440.61146 163.568939 
" clip-path="url(#pcfe3b286c8)" style="fill: none; stroke: #1f77b4; stroke-width: 1.5; stroke-linecap: square"/>
   </g>
   <g id="line2d_22">
    <path d="M 154.5524 155.649576 
L 156.06594 159.177394 
L 157.57948 155.875386 
L 159.09302 160.685724 
L 160.60656 166.410044 
L 162.1201 153.551498 
L 163.63364 159.949911 
L 165.14718 154.557309 
L 166.66072 160.869158 
L 168.17426 158.283079 
L 169.6878 158.524689 
L 171.20134 159.766629 
L 172.71488 162.960147 
L 174.22842 162.582411 
L 175.74196 157.418875 
L 177.2555 159.160317 
L 178.76904 165.928701 
L 180.28258 156.10627 
L 181.79612 155.276803 
L 183.30966 160.850584 
L 184.8232 160.963759 
L 186.33674 151.711765 
L 187.85028 161.979144 
L 189.36382 161.112675 
L 190.87736 153.899623 
L 192.3909 153.80672 
L 193.90444 158.25563 
L 195.41798 161.636246 
L 196.93152 156.410754 
L 198.44506 155.337906 
L 199.9586 154.630994 
L 201.47214 156.962656 
L 202.98568 159.992577 
L 204.49922 150.81091 
L 206.01276 153.544338 
L 207.5263 158.866538 
L 209.03984 161.812854 
L 210.55338 154.39036 
L 212.06692 154.802137 
L 213.58046 158.351744 
L 215.094 157.647055 
L 216.60754 155.159085 
L 218.12108 159.383664 
L 219.63462 154.441424 
L 221.14816 157.2097 
L 222.6617 157.152411 
L 224.17524 155.20378 
L 225.68878 154.165268 
L 227.20232 160.802196 
L 228.71586 156.258155 
L 230.2294 154.970914 
L 231.74294 160.321014 
L 234.77002 157.232946 
L 236.28356 169.984933 
L 237.7971 161.449873 
L 239.31064 160.58086 
L 240.82418 152.280185 
L 242.33772 163.482248 
L 243.85126 154.518378 
L 245.3648 158.084868 
L 246.87834 155.778724 
L 248.39188 157.441757 
L 249.90542 162.480808 
L 251.41896 161.626502 
L 252.9325 158.189923 
L 254.44604 156.941747 
L 255.95958 156.848429 
L 258.98666 162.902102 
L 260.5002 157.549829 
L 262.01374 161.101078 
L 263.52728 162.753675 
L 265.04082 158.103168 
L 266.55436 158.551363 
L 268.0679 152.173294 
L 269.58144 161.554252 
L 271.09498 158.744294 
L 272.60852 161.763333 
L 274.12206 162.444136 
L 275.6356 159.170763 
L 277.14914 162.148646 
L 278.66268 160.550715 
L 280.17622 162.878961 
L 281.68976 155.481577 
L 283.2033 157.823377 
L 284.71684 159.711935 
L 286.23038 164.989022 
L 287.74392 159.503045 
L 289.25746 157.001728 
L 290.771 156.066025 
L 292.28454 157.989955 
L 293.79808 161.450516 
L 295.31162 155.150918 
L 296.82516 158.425461 
L 298.3387 154.972963 
L 299.85224 160.528376 
L 301.36578 160.781097 
L 302.87932 162.068374 
L 304.39286 165.092035 
L 305.9064 160.379102 
L 307.41994 154.691622 
L 308.93348 159.587176 
L 310.44702 156.971953 
L 311.96056 157.904495 
L 313.4741 153.438986 
L 314.98764 158.18502 
L 316.50118 155.63893 
L 318.01472 157.25272 
L 319.52826 153.975475 
L 321.0418 153.344446 
L 322.55534 164.14692 
L 324.06888 156.030013 
L 325.58242 149.711318 
L 327.09596 156.896692 
L 328.6095 162.596183 
L 330.12304 157.714234 
L 331.63658 156.409204 
L 333.15012 153.330707 
L 334.66366 156.843181 
L 336.1772 158.351332 
L 337.69074 155.683195 
L 339.20428 155.033824 
L 340.71782 160.477078 
L 342.23136 159.396069 
L 343.7449 156.22822 
L 345.25844 162.557409 
L 346.77198 156.161195 
L 348.28552 155.754019 
L 349.79906 155.467714 
L 351.3126 161.170278 
L 352.82614 160.086371 
L 354.33968 157.8135 
L 355.85322 156.68931 
L 357.36676 160.727195 
L 358.8803 163.095428 
L 360.39384 153.999094 
L 361.90738 156.961326 
L 363.42092 162.196608 
L 364.93446 160.136824 
L 366.448 164.070945 
L 367.96154 156.228669 
L 369.47508 160.009243 
L 370.98862 156.464669 
L 372.50216 159.360383 
L 374.0157 156.295452 
L 375.52924 158.569897 
L 377.04278 154.865155 
L 378.55632 160.676457 
L 380.06986 160.816772 
L 381.5834 158.202227 
L 383.09694 156.532429 
L 384.61048 163.939108 
L 386.12402 155.79735 
L 387.63756 159.379946 
L 389.1511 155.678664 
L 390.66464 156.838651 
L 392.17818 159.051848 
L 393.69172 158.495417 
L 395.20526 159.208991 
L 396.7188 159.190262 
L 398.23234 150.526042 
L 399.74588 158.371426 
L 401.25942 159.463852 
L 402.77296 161.767051 
L 404.2865 154.60352 
L 405.80004 162.016008 
L 407.31358 156.006242 
L 408.82712 162.14017 
L 410.34066 159.788115 
L 411.8542 163.025051 
L 413.36774 153.584137 
L 414.88128 160.511936 
L 416.39482 157.205126 
L 417.90836 162.198256 
L 419.4219 153.110377 
L 420.93544 162.587904 
L 422.44898 156.864369 
L 423.96252 160.218849 
L 425.47606 152.425495 
L 426.9896 157.808781 
L 428.50314 154.021198 
L 430.01668 161.504711 
L 431.53022 156.869846 
L 433.04376 157.270753 
L 434.5573 158.999072 
L 436.07084 155.647494 
L 437.58438 159.010278 
L 439.09792 157.771857 
L 440.61146 164.812776 
L 440.61146 164.812776 
" clip-path="url(#pcfe3b286c8)" style="fill: none; stroke: #ff7f0e; stroke-width: 1.5; stroke-linecap: square"/>
   </g>
   <g id="patch_6">
    <path d="M 63.74 201.26 
L 63.74 113.18 
" style="fill: none; stroke: #000000; stroke-width: 0.8; stroke-linejoin: miter; stroke-linecap: square"/>
   </g>
   <g id="patch_7">
    <path d="M 63.74 201.26 
L 442.125 201.26 
" style="fill: none; stroke: #000000; stroke-width: 0.8; stroke-linejoin: miter; stroke-linecap: square"/>
   </g>
  </g>
  <g id="axes_3">
   <g id="patch_8">
    <path d="M 63.74 303.64 
L 442.125 303.64 
L 442.125 215.56 
L 63.74 215.56 
z
" style="fill: #ffffff"/>
   </g>
   <g id="matplotlib.axis_5">
    <g id="xtick_13">
     <g id="line2d_23">
      <g>
       <use xlink:href="#m95ccdb6880" x="63.74" y="303.64" style="stroke: #000000; stroke-width: 0.8"/>
      </g>
     </g>
     <g id="text_8">
      <!-- 0.0 -->
      <g transform="translate(55.788438 318.238438)scale(0.1 -0.1)">
       <use xlink:href="#DejaVuSans-30"/>
       <use xlink:href="#DejaVuSans-2e" x="63.623047"/>
       <use xlink:href="#DejaVuSans-30" x="95.410156"/>
      </g>
     </g>
    </g>
    <g id="xtick_14">
     <g id="line2d_24">
      <g>
       <use xlink:href="#m95ccdb6880" x="139.417" y="303.64" style="stroke: #000000; stroke-width: 0.8"/>
      </g>
     </g>
     <g id="text_9">
      <!-- 0.5 -->
      <g transform="translate(131.465438 318.238438)scale(0.1 -0.1)">
       <defs>
        <path id="DejaVuSans-35" d="M 691 4666 
L 3169 4666 
L 3169 4134 
L 1269 4134 
L 1269 2991 
Q 1406 3038 1543 3061 
Q 1681 3084 1819 3084 
Q 2600 3084 3056 2656 
Q 3513 2228 3513 1497 
Q 3513 744 3044 326 
Q 2575 -91 1722 -91 
Q 1428 -91 1123 -41 
Q 819 9 494 109 
L 494 744 
Q 775 591 1075 516 
Q 1375 441 1709 441 
Q 2250 441 2565 725 
Q 2881 1009 2881 1497 
Q 2881 1984 2565 2268 
Q 2250 2553 1709 2553 
Q 1456 2553 1204 2497 
Q 953 2441 691 2322 
L 691 4666 
z
" transform="scale(0.015625)"/>
       </defs>
       <use xlink:href="#DejaVuSans-30"/>
       <use xlink:href="#DejaVuSans-2e" x="63.623047"/>
       <use xlink:href="#DejaVuSans-35" x="95.410156"/>
      </g>
     </g>
    </g>
    <g id="xtick_15">
     <g id="line2d_25">
      <g>
       <use xlink:href="#m95ccdb6880" x="215.094" y="303.64" style="stroke: #000000; stroke-width: 0.8"/>
      </g>
     </g>
     <g id="text_10">
      <!-- 1.0 -->
      <g transform="translate(207.142438 318.238438)scale(0.1 -0.1)">
       <defs>
        <path id="DejaVuSans-31" d="M 794 531 
L 1825 531 
L 1825 4091 
L 703 3866 
L 703 4441 
L 1819 4666 
L 2450 4666 
L 2450 531 
L 3481 531 
L 3481 0 
L 794 0 
L 794 531 
z
" transform="scale(0.015625)"/>
       </defs>
       <use xlink:href="#DejaVuSans-31"/>
       <use xlink:href="#DejaVuSans-2e" x="63.623047"/>
       <use xlink:href="#DejaVuSans-30" x="95.410156"/>
      </g>
     </g>
    </g>
    <g id="xtick_16">
     <g id="line2d_26">
      <g>
       <use xlink:href="#m95ccdb6880" x="290.771" y="303.64" style="stroke: #000000; stroke-width: 0.8"/>
      </g>
     </g>
     <g id="text_11">
      <!-- 1.5 -->
      <g transform="translate(282.819437 318.238438)scale(0.1 -0.1)">
       <use xlink:href="#DejaVuSans-31"/>
       <use xlink:href="#DejaVuSans-2e" x="63.623047"/>
       <use xlink:href="#DejaVuSans-35" x="95.410156"/>
      </g>
     </g>
    </g>
    <g id="xtick_17">
     <g id="line2d_27">
      <g>
       <use xlink:href="#m95ccdb6880" x="366.448" y="303.64" style="stroke: #000000; stroke-width: 0.8"/>
      </g>
     </g>
     <g id="text_12">
      <!-- 2.0 -->
      <g transform="translate(358.496438 318.238438)scale(0.1 -0.1)">
       <use xlink:href="#DejaVuSans-32"/>
       <use xlink:href="#DejaVuSans-2e" x="63.623047"/>
       <use xlink:href="#DejaVuSans-30" x="95.410156"/>
      </g>
     </g>
    </g>
    <g id="xtick_18">
     <g id="line2d_28">
      <g>
       <use xlink:href="#m95ccdb6880" x="442.125" y="303.64" style="stroke: #000000; stroke-width: 0.8"/>
      </g>
     </g>
     <g id="text_13">
      <!-- 2.5 -->
      <g transform="translate(434.173438 318.238438)scale(0.1 -0.1)">
       <use xlink:href="#DejaVuSans-32"/>
       <use xlink:href="#DejaVuSans-2e" x="63.623047"/>
       <use xlink:href="#DejaVuSans-35" x="95.410156"/>
      </g>
     </g>
    </g>
    <g id="text_14">
     <!-- time (s) -->
     <g transform="translate(233.541094 331.916562)scale(0.1 -0.1)">
      <defs>
       <path id="DejaVuSans-74" d="M 1172 4494 
L 1172 3500 
L 2356 3500 
L 2356 3053 
L 1172 3053 
L 1172 1153 
Q 1172 725 1289 603 
Q 1406 481 1766 481 
L 2356 481 
L 2356 0 
L 1766 0 
Q 1100 0 847 248 
Q 594 497 594 1153 
L 594 3053 
L 172 3053 
L 172 3500 
L 594 3500 
L 594 4494 
L 1172 4494 
z
" transform="scale(0.015625)"/>
       <path id="DejaVuSans-69" d="M 603 3500 
L 1178 3500 
L 1178 0 
L 603 0 
L 603 3500 
z
M 603 4863 
L 1178 4863 
L 1178 4134 
L 603 4134 
L 603 4863 
z
" transform="scale(0.015625)"/>
       <path id="DejaVuSans-6d" d="M 3328 2828 
Q 3544 3216 3844 3400 
Q 4144 3584 4550 3584 
Q 5097 3584 5394 3201 
Q 5691 2819 5691 2113 
L 5691 0 
L 5113 0 
L 5113 2094 
Q 5113 2597 4934 2840 
Q 4756 3084 4391 3084 
Q 3944 3084 3684 2787 
Q 3425 2491 3425 1978 
L 3425 0 
L 2847 0 
L 2847 2094 
Q 2847 2600 2669 2842 
Q 2491 3084 2119 3084 
Q 1678 3084 1418 2786 
Q 1159 2488 1159 1978 
L 1159 0 
L 581 0 
L 581 3500 
L 1159 3500 
L 1159 2956 
Q 1356 3278 1631 3431 
Q 1906 3584 2284 3584 
Q 2666 3584 2933 3390 
Q 3200 3197 3328 2828 
z
" transform="scale(0.015625)"/>
       <path id="DejaVuSans-65" d="M 3597 1894 
L 3597 1613 
L 953 1613 
Q 991 1019 1311 708 
Q 1631 397 2203 397 
Q 2534 397 2845 478 
Q 3156 559 3463 722 
L 3463 178 
Q 3153 47 2828 -22 
Q 2503 -91 2169 -91 
Q 1331 -91 842 396 
Q 353 884 353 1716 
Q 353 2575 817 3079 
Q 1281 3584 2069 3584 
Q 2775 3584 3186 3129 
Q 3597 2675 3597 1894 
z
M 3022 2063 
Q 3016 2534 2758 2815 
Q 2500 3097 2075 3097 
Q 1594 3097 1305 2825 
Q 1016 2553 972 2059 
L 3022 2063 
z
" transform="scale(0.015625)"/>
       <path id="DejaVuSans-73" d="M 2834 3397 
L 2834 2853 
Q 2591 2978 2328 3040 
Q 2066 3103 1784 3103 
Q 1356 3103 1142 2972 
Q 928 2841 928 2578 
Q 928 2378 1081 2264 
Q 1234 2150 1697 2047 
L 1894 2003 
Q 2506 1872 2764 1633 
Q 3022 1394 3022 966 
Q 3022 478 2636 193 
Q 2250 -91 1575 -91 
Q 1294 -91 989 -36 
Q 684 19 347 128 
L 347 722 
Q 666 556 975 473 
Q 1284 391 1588 391 
Q 1994 391 2212 530 
Q 2431 669 2431 922 
Q 2431 1156 2273 1281 
Q 2116 1406 1581 1522 
L 1381 1569 
Q 847 1681 609 1914 
Q 372 2147 372 2553 
Q 372 3047 722 3315 
Q 1072 3584 1716 3584 
Q 2034 3584 2315 3537 
Q 2597 3491 2834 3397 
z
" transform="scale(0.015625)"/>
      </defs>
      <use xlink:href="#DejaVuSans-74"/>
      <use xlink:href="#DejaVuSans-69" x="39.208984"/>
      <use xlink:href="#DejaVuSans-6d" x="66.992188"/>
      <use xlink:href="#DejaVuSans-65" x="164.404297"/>
      <use xlink:href="#DejaVuSans-20" x="225.927734"/>
      <use xlink:href="#DejaVuSans-28" x="257.714844"/>
      <use xlink:href="#DejaVuSans-73" x="296.728516"/>
      <use xlink:href="#DejaVuSans-29" x="348.828125"/>
     </g>
    </g>
   </g>
   <g id="matplotlib.axis_6">
    <g id="ytick_7">
     <g id="line2d_29">
      <g>
       <use xlink:href="#mfafd974b4b" x="63.74" y="287.077627" style="stroke: #000000; stroke-width: 0.8"/>
      </g>
     </g>
     <g id="text_15">
      <!-- −0.2 -->
      <g transform="translate(32.457188 290.876846)scale(0.1 -0.1)">
       <use xlink:href="#DejaVuSans-2212"/>
       <use xlink:href="#DejaVuSans-30" x="83.789062"/>
       <use xlink:href="#DejaVuSans-2e" x="147.412109"/>
       <use xlink:href="#DejaVuSans-32" x="179.199219"/>
      </g>
     </g>
    </g>
    <g id="ytick_8">
     <g id="line2d_30">
      <g>
       <use xlink:href="#mfafd974b4b" x="63.74" y="260.713344" style="stroke: #000000; stroke-width: 0.8"/>
      </g>
     </g>
     <g id="text_16">
      <!-- 0.0 -->
      <g transform="translate(40.836875 264.512563)scale(0.1 -0.1)">
       <use xlink:href="#DejaVuSans-30"/>
       <use xlink:href="#DejaVuSans-2e" x="63.623047"/>
       <use xlink:href="#DejaVuSans-30" x="95.410156"/>
      </g>
     </g>
    </g>
    <g id="ytick_9">
     <g id="line2d_31">
      <g>
       <use xlink:href="#mfafd974b4b" x="63.74" y="234.349061" style="stroke: #000000; stroke-width: 0.8"/>
      </g>
     </g>
     <g id="text_17">
      <!-- 0.2 -->
      <g transform="translate(40.836875 238.14828)scale(0.1 -0.1)">
       <use xlink:href="#DejaVuSans-30"/>
       <use xlink:href="#DejaVuSans-2e" x="63.623047"/>
       <use xlink:href="#DejaVuSans-32" x="95.410156"/>
      </g>
     </g>
    </g>
   </g>
   <g id="line2d_32">
    <path d="M 71.3077 272.659936 
L 72.82124 295.503919 
L 74.33478 246.719207 
L 75.84832 253.355711 
L 77.36186 272.011411 
L 78.8754 259.087006 
L 80.38894 261.930346 
L 81.90248 268.310019 
L 83.41602 277.436988 
L 84.92956 242.358152 
L 86.4431 250.469674 
L 87.95664 249.886394 
L 89.47018 241.989381 
L 90.98372 235.853714 
L 92.49726 272.908775 
L 94.0108 259.445549 
L 95.52434 262.540121 
L 97.03788 274.893137 
L 98.55142 266.123211 
L 100.06496 269.571147 
L 101.5785 254.460997 
L 103.09204 250.3852 
L 104.60558 255.568309 
L 106.11912 255.214241 
L 107.63266 259.58177 
L 109.1462 254.072095 
L 110.65974 273.406998 
L 112.17328 230.782348 
L 113.68682 251.669798 
L 115.20036 270.571706 
L 116.7139 258.487663 
L 118.22744 271.051378 
L 119.74098 265.649961 
L 121.25452 264.773688 
L 122.76806 268.619935 
L 124.2816 257.263278 
L 125.79514 272.527664 
L 127.30868 280.283342 
L 128.82222 258.829349 
L 130.33576 252.948864 
L 131.8493 252.777865 
L 133.36284 247.663198 
L 134.87638 268.972844 
L 136.38992 231.480931 
L 137.90346 265.59117 
L 139.417 253.723386 
L 140.93054 255.062369 
L 142.44408 246.131614 
L 143.95762 264.61214 
L 145.47116 239.482399 
L 146.9847 265.240719 
L 148.49824 277.770436 
L 150.01178 271.547737 
L 151.52532 260.974325 
L 153.03886 263.805701 
L 154.5524 267.415888 
L 156.06594 236.886007 
L 157.57948 258.033963 
L 159.09302 266.940373 
L 160.60656 267.156412 
L 162.1201 262.825102 
L 163.63364 286.300836 
L 165.14718 277.80716 
L 166.66072 259.045225 
L 168.17426 253.689001 
L 169.6878 272.78639 
L 171.20134 243.540307 
L 172.71488 257.687126 
L 175.74196 267.014399 
L 177.2555 289.025434 
L 178.76904 274.72768 
L 180.28258 271.468988 
L 181.79612 224.99681 
L 183.30966 286.034936 
L 184.8232 272.886435 
L 186.33674 250.654568 
L 187.85028 241.829613 
L 189.36382 265.942611 
L 190.87736 271.305686 
L 192.3909 255.354259 
L 193.90444 246.69436 
L 195.41798 268.408114 
L 196.93152 264.467433 
L 198.44506 266.43758 
L 199.9586 268.992026 
L 201.47214 267.396087 
L 202.98568 250.996609 
L 204.49922 247.41321 
L 206.01276 266.312818 
L 207.5263 258.769507 
L 209.03984 239.184979 
L 210.55338 278.778247 
L 213.58046 246.085364 
L 215.094 232.39225 
L 216.60754 253.808857 
L 218.12108 268.116859 
L 219.63462 265.057668 
L 221.14816 252.719951 
L 222.6617 259.709739 
L 224.17524 251.502715 
L 225.68878 254.337523 
L 227.20232 268.8061 
L 228.71586 247.166217 
L 230.2294 267.73905 
L 231.74294 249.244371 
L 233.25648 234.295257 
L 234.77002 258.205336 
L 236.28356 269.484013 
L 237.7971 265.369427 
L 239.31064 296.760511 
L 240.82418 258.900442 
L 242.33772 276.669026 
L 243.85126 276.874611 
L 245.3648 260.700983 
L 246.87834 254.386785 
L 248.39188 241.16311 
L 249.90542 274.888127 
L 251.41896 267.968575 
L 252.9325 264.201221 
L 254.44604 256.681278 
L 255.95958 250.143614 
L 257.47312 269.248611 
L 258.98666 264.873063 
L 260.5002 266.017563 
L 262.01374 277.416981 
L 263.52728 265.927977 
L 265.04082 262.326686 
L 266.55436 266.41592 
L 268.0679 264.780571 
L 269.58144 258.407144 
L 271.09498 262.091905 
L 272.60852 275.440383 
L 274.12206 299.636364 
L 275.6356 264.44743 
L 277.14914 251.153994 
L 278.66268 241.803456 
L 280.17622 254.545882 
L 281.68976 265.115639 
L 283.2033 256.151974 
L 284.71684 258.431022 
L 286.23038 239.795856 
L 287.74392 230.233483 
L 289.25746 270.581436 
L 290.771 250.164422 
L 292.28454 276.895967 
L 293.79808 260.223574 
L 295.31162 250.257047 
L 296.82516 250.744842 
L 298.3387 262.476182 
L 299.85224 262.171843 
L 301.36578 269.757433 
L 302.87932 261.756448 
L 304.39286 276.639034 
L 305.9064 265.084701 
L 307.41994 261.617948 
L 308.93348 260.714963 
L 310.44702 258.23291 
L 311.96056 265.416973 
L 313.4741 237.286873 
L 314.98764 283.728961 
L 316.50118 233.699549 
L 318.01472 241.670793 
L 319.52826 254.771121 
L 321.0418 277.932684 
L 322.55534 243.882301 
L 324.06888 263.492731 
L 325.58242 264.164171 
L 327.09596 277.856449 
L 331.63658 242.587179 
L 333.15012 258.845872 
L 334.66366 253.404176 
L 336.1772 253.289862 
L 337.69074 261.65954 
L 339.20428 255.233986 
L 340.71782 246.047516 
L 342.23136 263.889854 
L 343.7449 269.896472 
L 345.25844 260.516382 
L 346.77198 252.913238 
L 348.28552 243.536051 
L 349.79906 262.766391 
L 351.3126 273.909838 
L 352.82614 264.340415 
L 354.33968 260.691328 
L 355.85322 252.112143 
L 357.36676 259.71216 
L 358.8803 272.838226 
L 360.39384 245.720933 
L 361.90738 279.566208 
L 363.42092 269.02538 
L 364.93446 232.445797 
L 366.448 235.71985 
L 369.47508 281.14076 
L 370.98862 265.286797 
L 372.50216 267.191218 
L 374.0157 265.547624 
L 375.52924 295.669643 
L 377.04278 257.929794 
L 378.55632 268.132894 
L 380.06986 258.216632 
L 381.5834 258.957145 
L 383.09694 263.25236 
L 384.61048 265.183901 
L 386.12402 262.384471 
L 387.63756 273.595983 
L 389.1511 279.287581 
L 390.66464 237.240937 
L 393.69172 250.815018 
L 395.20526 283.353895 
L 396.7188 274.073369 
L 398.23234 265.981082 
L 399.74588 247.832032 
L 401.25942 249.613225 
L 402.77296 256.331297 
L 404.2865 252.006472 
L 405.80004 265.442062 
L 407.31358 272.569715 
L 408.82712 254.253137 
L 410.34066 257.051051 
L 411.8542 270.113021 
L 413.36774 261.282118 
L 414.88128 256.796987 
L 416.39482 284.869091 
L 417.90836 247.646488 
L 419.4219 260.144867 
L 422.44898 273.322565 
L 423.96252 266.899903 
L 425.47606 251.013895 
L 426.9896 260.97817 
L 428.50314 249.642343 
L 430.01668 252.911891 
L 431.53022 255.398884 
L 433.04376 270.518612 
L 434.5573 245.004941 
L 436.07084 280.45836 
L 437.58438 239.767744 
L 439.09792 264.77918 
L 440.61146 260.59996 
L 440.61146 260.59996 
" clip-path="url(#p5b08175230)" style="fill: none; stroke: #1f77b4; stroke-width: 1.5; stroke-linecap: square"/>
   </g>
   <g id="line2d_33">
    <path d="M 154.5524 265.165916 
L 156.06594 258.192764 
L 157.57948 259.483763 
L 159.09302 258.559745 
L 160.60656 261.531906 
L 162.1201 269.325631 
L 163.63364 267.15615 
L 165.14718 258.49073 
L 166.66072 257.2717 
L 168.17426 263.357117 
L 169.6878 258.721234 
L 171.20134 257.944224 
L 172.71488 259.930001 
L 174.22842 258.645421 
L 175.74196 264.022415 
L 177.2555 262.635253 
L 178.76904 262.609984 
L 180.28258 257.837691 
L 181.79612 261.279157 
L 183.30966 256.275794 
L 184.8232 256.837667 
L 186.33674 257.187242 
L 187.85028 260.414742 
L 189.36382 260.049691 
L 190.87736 261.030206 
L 192.3909 261.601609 
L 193.90444 257.854979 
L 195.41798 257.309504 
L 196.93152 258.551792 
L 198.44506 264.072317 
L 199.9586 261.203832 
L 201.47214 263.473251 
L 202.98568 264.727257 
L 204.49922 259.881184 
L 206.01276 262.967862 
L 207.5263 260.853995 
L 209.03984 253.793862 
L 210.55338 255.190787 
L 212.06692 259.320869 
L 213.58046 262.006441 
L 215.094 259.97103 
L 216.60754 264.442737 
L 218.12108 260.590998 
L 219.63462 261.151261 
L 221.14816 262.983817 
L 222.6617 256.569901 
L 224.17524 262.33266 
L 225.68878 262.172973 
L 227.20232 259.762698 
L 228.71586 266.325692 
L 230.2294 264.323334 
L 231.74294 261.703167 
L 233.25648 267.025112 
L 234.77002 263.770081 
L 237.7971 255.181092 
L 239.31064 257.967527 
L 240.82418 263.646359 
L 242.33772 267.082584 
L 243.85126 249.105763 
L 245.3648 261.252185 
L 246.87834 260.103838 
L 248.39188 257.909045 
L 249.90542 257.307379 
L 251.41896 262.553217 
L 252.9325 264.013792 
L 254.44604 258.473597 
L 255.95958 260.496473 
L 257.47312 258.321789 
L 258.98666 261.097784 
L 260.5002 262.329475 
L 262.01374 259.368046 
L 263.52728 266.639676 
L 265.04082 261.280439 
L 266.55436 260.079163 
L 268.0679 260.622453 
L 269.58144 262.195852 
L 271.09498 257.352982 
L 272.60852 260.447651 
L 274.12206 257.881398 
L 275.6356 265.89801 
L 277.14914 261.947138 
L 278.66268 254.014505 
L 280.17622 259.710946 
L 281.68976 257.784592 
L 283.2033 263.985852 
L 284.71684 258.376099 
L 286.23038 261.224478 
L 287.74392 265.968323 
L 289.25746 261.507267 
L 290.771 257.518018 
L 292.28454 256.572626 
L 293.79808 265.217256 
L 295.31162 264.48394 
L 296.82516 266.425544 
L 298.3387 258.202188 
L 299.85224 257.701328 
L 301.36578 261.203252 
L 302.87932 261.309339 
L 304.39286 263.848454 
L 305.9064 259.898894 
L 307.41994 258.629392 
L 308.93348 259.044706 
L 310.44702 257.93549 
L 311.96056 255.724802 
L 313.4741 264.324635 
L 314.98764 258.513581 
L 316.50118 266.166316 
L 318.01472 261.50242 
L 319.52826 263.227524 
L 321.0418 255.660751 
L 322.55534 265.05051 
L 324.06888 262.083002 
L 325.58242 264.151218 
L 327.09596 257.545666 
L 328.6095 262.220798 
L 330.12304 262.566842 
L 331.63658 265.727686 
L 333.15012 258.179673 
L 334.66366 255.248565 
L 336.1772 263.265579 
L 337.69074 263.702519 
L 339.20428 262.249282 
L 340.71782 256.983525 
L 342.23136 263.267068 
L 343.7449 253.006911 
L 345.25844 262.594294 
L 346.77198 263.726956 
L 348.28552 259.284489 
L 349.79906 260.222074 
L 351.3126 260.167983 
L 352.82614 261.764143 
L 354.33968 263.554632 
L 355.85322 263.859592 
L 357.36676 253.736442 
L 360.39384 256.766273 
L 361.90738 262.739158 
L 363.42092 262.691997 
L 364.93446 262.805112 
L 366.448 256.07024 
L 367.96154 257.782458 
L 369.47508 262.708743 
L 370.98862 265.048849 
L 372.50216 268.195895 
L 374.0157 259.707622 
L 375.52924 258.836037 
L 377.04278 264.821638 
L 378.55632 263.907186 
L 380.06986 256.578602 
L 381.5834 259.503937 
L 383.09694 258.247241 
L 384.61048 270.53968 
L 386.12402 260.94965 
L 387.63756 261.493034 
L 389.1511 257.447857 
L 390.66464 259.3625 
L 392.17818 263.353773 
L 393.69172 262.029107 
L 395.20526 257.725133 
L 396.7188 249.774786 
L 398.23234 265.329807 
L 399.74588 265.520838 
L 401.25942 255.856008 
L 402.77296 260.921616 
L 404.2865 261.563117 
L 405.80004 263.055884 
L 407.31358 259.475096 
L 408.82712 255.390636 
L 410.34066 257.794037 
L 411.8542 256.946054 
L 413.36774 259.37236 
L 414.88128 261.364456 
L 416.39482 256.116076 
L 417.90836 255.424321 
L 419.4219 259.13623 
L 420.93544 268.925858 
L 422.44898 257.734027 
L 423.96252 264.862716 
L 425.47606 263.119856 
L 426.9896 266.17104 
L 428.50314 259.674997 
L 431.53022 257.360407 
L 433.04376 261.699224 
L 434.5573 259.203658 
L 436.07084 261.301387 
L 437.58438 257.886577 
L 439.09792 267.145165 
L 440.61146 264.378296 
L 440.61146 264.378296 
" clip-path="url(#p5b08175230)" style="fill: none; stroke: #ff7f0e; stroke-width: 1.5; stroke-linecap: square"/>
   </g>
   <g id="patch_9">
    <path d="M 63.74 303.64 
L 63.74 215.56 
" style="fill: none; stroke: #000000; stroke-width: 0.8; stroke-linejoin: miter; stroke-linecap: square"/>
   </g>
   <g id="patch_10">
    <path d="M 63.74 303.64 
L 442.125 303.64 
" style="fill: none; stroke: #000000; stroke-width: 0.8; stroke-linejoin: miter; stroke-linecap: square"/>
   </g>
  </g>
  <g id="legend_1">
   <g id="patch_11">
    <path d="M 158.467969 340.6 
L 302.332031 340.6 
Q 304.332031 340.6 304.332031 338.6 
L 304.332031 324.921875 
Q 304.332031 322.921875 302.332031 322.921875 
L 158.467969 322.921875 
Q 156.467969 322.921875 156.467969 324.921875 
L 156.467969 338.6 
Q 156.467969 340.6 158.467969 340.6 
z
" style="fill: #ffffff; opacity: 0.8; stroke: #cccccc; stroke-linejoin: miter"/>
   </g>
   <g id="line2d_34">
    <path d="M 160.467969 331.020312 
L 170.467969 331.020312 
L 180.467969 331.020312 
" style="fill: none; stroke: #1f77b4; stroke-width: 1.5; stroke-linecap: square"/>
   </g>
   <g id="text_18">
    <!-- raw -->
    <g transform="translate(188.467969 334.520312)scale(0.1 -0.1)">
     <defs>
      <path id="DejaVuSans-72" d="M 2631 2963 
Q 2534 3019 2420 3045 
Q 2306 3072 2169 3072 
Q 1681 3072 1420 2755 
Q 1159 2438 1159 1844 
L 1159 0 
L 581 0 
L 581 3500 
L 1159 3500 
L 1159 2956 
Q 1341 3275 1631 3429 
Q 1922 3584 2338 3584 
Q 2397 3584 2469 3576 
Q 2541 3569 2628 3553 
L 2631 2963 
z
" transform="scale(0.015625)"/>
      <path id="DejaVuSans-61" d="M 2194 1759 
Q 1497 1759 1228 1600 
Q 959 1441 959 1056 
Q 959 750 1161 570 
Q 1363 391 1709 391 
Q 2188 391 2477 730 
Q 2766 1069 2766 1631 
L 2766 1759 
L 2194 1759 
z
M 3341 1997 
L 3341 0 
L 2766 0 
L 2766 531 
Q 2569 213 2275 61 
Q 1981 -91 1556 -91 
Q 1019 -91 701 211 
Q 384 513 384 1019 
Q 384 1609 779 1909 
Q 1175 2209 1959 2209 
L 2766 2209 
L 2766 2266 
Q 2766 2663 2505 2880 
Q 2244 3097 1772 3097 
Q 1472 3097 1187 3025 
Q 903 2953 641 2809 
L 641 3341 
Q 956 3463 1253 3523 
Q 1550 3584 1831 3584 
Q 2591 3584 2966 3190 
Q 3341 2797 3341 1997 
z
" transform="scale(0.015625)"/>
      <path id="DejaVuSans-77" d="M 269 3500 
L 844 3500 
L 1563 769 
L 2278 3500 
L 2956 3500 
L 3675 769 
L 4391 3500 
L 4966 3500 
L 4050 0 
L 3372 0 
L 2619 2869 
L 1863 0 
L 1184 0 
L 269 3500 
z
" transform="scale(0.015625)"/>
     </defs>
     <use xlink:href="#DejaVuSans-72"/>
     <use xlink:href="#DejaVuSans-61" x="41.113281"/>
     <use xlink:href="#DejaVuSans-77" x="102.392578"/>
    </g>
   </g>
   <g id="line2d_35">
    <path d="M 226.885156 331.020312 
L 236.885156 331.020312 
L 246.885156 331.020312 
" style="fill: none; stroke: #ff7f0e; stroke-width: 1.5; stroke-linecap: square"/>
   </g>
   <g id="text_19">
    <!-- denoised -->
    <g transform="translate(254.885156 334.520312)scale(0.1 -0.1)">
     <defs>
      <path id="DejaVuSans-64" d="M 2906 2969 
L 2906 4863 
L 3481 4863 
L 3481 0 
L 2906 0 
L 2906 525 
Q 2725 213 2448 61 
Q 2172 -91 1784 -91 
Q 1150 -91 751 415 
Q 353 922 353 1747 
Q 353 2572 751 3078 
Q 1150 3584 1784 3584 
Q 2172 3584 2448 3432 
Q 2725 3281 2906 2969 
z
M 947 1747 
Q 947 1113 1208 752 
Q 1469 391 1925 391 
Q 2381 391 2643 752 
Q 2906 1113 2906 1747 
Q 2906 2381 2643 2742 
Q 2381 3103 1925 3103 
Q 1469 3103 1208 2742 
Q 947 2381 947 1747 
z
" transform="scale(0.015625)"/>
      <path id="DejaVuSans-6e" d="M 3513 2113 
L 3513 0 
L 2938 0 
L 2938 2094 
Q 2938 2591 2744 2837 
Q 2550 3084 2163 3084 
Q 1697 3084 1428 2787 
Q 1159 2491 1159 1978 
L 1159 0 
L 581 0 
L 581 3500 
L 1159 3500 
L 1159 2956 
Q 1366 3272 1645 3428 
Q 1925 3584 2291 3584 
Q 2894 3584 3203 3211 
Q 3513 2838 3513 2113 
z
" transform="scale(0.015625)"/>
      <path id="DejaVuSans-6f" d="M 1959 3097 
Q 1497 3097 1228 2736 
Q 959 2375 959 1747 
Q 959 1119 1226 758 
Q 1494 397 1959 397 
Q 2419 397 2687 759 
Q 2956 1122 2956 1747 
Q 2956 2369 2687 2733 
Q 2419 3097 1959 3097 
z
M 1959 3584 
Q 2709 3584 3137 3096 
Q 3566 2609 3566 1747 
Q 3566 888 3137 398 
Q 2709 -91 1959 -91 
Q 1206 -91 779 398 
Q 353 888 353 1747 
Q 353 2609 779 3096 
Q 1206 3584 1959 3584 
z
" transform="scale(0.015625)"/>
     </defs>
     <use xlink:href="#DejaVuSans-64"/>
     <use xlink:href="#DejaVuSans-65" x="63.476562"/>
     <use xlink:href="#DejaVuSans-6e" x="125"/>
     <use xlink:href="#DejaVuSans-6f" x="188.378906"/>
     <use xlink:href="#DejaVuSans-69" x="249.560547"/>
     <use xlink:href="#DejaVuSans-73" x="277.34375"/>
     <use xlink:href="#DejaVuSans-65" x="329.443359"/>
     <use xlink:href="#DejaVuSans-64" x="390.966797"/>
    </g>
   </g>
  </g>
 </g>
 <defs>
  <clipPath id="p9afce15410">
   <rect x="63.74" y="10.8" width="378.385" height="88.08"/>
  </clipPath>
  <clipPath id="pcfe3b286c8">
   <rect x="63.74" y="113.18" width="378.385" height="88.08"/>
  </clipPath>
  <clipPath id="p5b08175230">
   <rect x="63.74" y="215.56" width="378.385" height="88.08"/>
  </clipPath>
 </defs>
</svg>
